<svg height="512" viewBox="0 0 60 60" width="512" xmlns="http://www.w3.org/2000/svg"><g id="014---Image" fill="none"><rect id="Rectangle" fill="#d1d4dc" height="58" rx="1" width="58" x="1" y="1"/><rect id="Rectangle" fill="#509aee" height="38" rx="1" width="48" x="6" y="6"/><circle id="Oval" cx="16" cy="17" fill="#ffcf38" r="5"/><path id="Path" d="m54 29.79v13.21c0 .5522847-.4477153 1-1 1h-46c-.27218762-.0010388-.53219116-.1129847-.72-.31l18.01-18.39c.1864103-.1918336.4425137-.3000725.71-.3000725s.5235897.1082389.71.3000725l5.41 5.58 11.17-11.58c.1864103-.1918336.4425137-.3000725.71-.3000725s.5235897.1082389.71.3000725z" fill="#9fd164"/><g fill="#373737"><path id="Path" d="m58 0h-56c-1.1045695 0-2 .8954305-2 2v10c0 .5522847.44771525 1 1 1s1-.4477153 1-1v-10h56v56h-56v-41c0-.5522847-.44771525-1-1-1s-1 .4477153-1 1v41c0 1.1045695.8954305 2 2 2h56c1.1045695 0 2-.8954305 2-2v-56c0-1.1045695-.8954305-2-2-2z"/><path id="Shape" d="m55 43v-36c0-1.1045695-.8954305-2-2-2h-46c-1.1045695 0-2 .8954305-2 2v36c0 1.1045695.8954305 2 2 2h46c1.1045695 0 2-.8954305 2-2zm-48-36h46v20.342l-8.574-8.742c-.7923649-.7796734-2.0636351-.7796734-2.856 0l-10.452 10.842-4.693-4.837c-.7894327-.7811245-2.0605673-.7811245-2.85 0l-13.293 13.695c-.38659932.3965405-.37854045 1.0314007.018 1.418.3965405.3865993 1.0314007.3785405 1.418-.018l13.271-13.7 11.293 11.636c.3846663.3965404 1.0179595.4061663 1.4145.0215.3965404-.3846663.4061663-1.0179595.0215-1.4145l-5.207-5.365 10.489-10.878 10 10.2v12.8h-46z"/><path id="Shape" d="m16 23c3.3137085 0 6-2.6862915 6-6s-2.6862915-6-6-6-6 2.6862915-6 6c.0033074 3.3123376 2.6876624 5.9966926 6 6zm0-10c2.209139 0 4 1.790861 4 4s-1.790861 4-4 4-4-1.790861-4-4 1.790861-4 4-4z"/><path id="Path" d="m24.649 31.3-5.367 5.53c-.3846663.3965405-.3750405 1.0298337.0215 1.4145s1.0298337.3750405 1.4145-.0215l5.367-5.523c.2500859-.2565167.3443248-.6269671.2472178-.9718062s-.3708071-.6116776-.718-.7-.7151319.0152895-.9652178.2718062z"/><path id="Path" d="m44.034 25.282c-.3965471-.3843735-1.0296027-.374524-1.414.022l-4.338 4.469c-.3846663.3965405-.3750405 1.0298337.0215 1.4145s1.0298337.3750405 1.4145-.0215l4.338-4.47c.3843735-.3965471.374524-1.0296027-.022-1.414z"/><path id="Path" d="m45 48c-.5522847 0-1 .4477153-1 1s.4477153 1 1 1h2c.5522847 0 1-.4477153 1-1s-.4477153-1-1-1z"/><path id="Path" d="m38 48h-25c-.5522847 0-1 .4477153-1 1s.4477153 1 1 1h25c.5522847 0 1-.4477153 1-1s-.4477153-1-1-1z"/><path id="Path" d="m38 53h-16c-.5522847 0-1 .4477153-1 1s.4477153 1 1 1h16c.5522847 0 1-.4477153 1-1s-.4477153-1-1-1z"/></g></g></svg>