<?xml version="1.0" encoding="UTF-8" ?>
<!DOCTYPE svg PUBLIC "-//W3C//DTD SVG 1.1//EN" "http://www.w3.org/Graphics/SVG/1.1/DTD/svg11.dtd">
<svg width="493pt" height="468pt" viewBox="0 0 493 468" version="1.1" xmlns="http://www.w3.org/2000/svg">
<g id="#dd9031ff">
<path fill="#dd9031" opacity="1.00" d=" M 272.83 0.00 L 274.19 0.00 C 275.06 1.17 276.04 2.38 275.92 3.94 C 276.10 7.91 276.16 11.90 276.14 15.87 C 272.10 11.78 272.78 5.31 272.83 0.00 Z" />
<path fill="#dd9031" opacity="1.00" d=" M 280.17 14.03 C 281.24 9.87 277.71 4.84 281.79 1.73 C 284.44 5.33 282.92 9.89 282.54 13.95 C 282.63 15.44 279.22 16.33 280.17 14.03 Z" />
<path fill="#dd9031" opacity="1.00" d=" M 265.08 6.95 C 265.69 5.94 266.30 4.93 266.91 3.92 C 269.51 7.89 270.45 13.23 269.84 17.80 C 269.56 17.86 269.00 17.98 268.72 18.04 C 267.06 14.51 266.10 10.71 265.08 6.95 Z" />
<path fill="#dd9031" opacity="1.00" d=" M 289.40 10.22 C 290.77 9.80 292.10 10.46 293.42 10.76 C 292.43 15.02 290.10 19.02 286.86 21.96 C 286.83 17.91 287.91 13.95 289.40 10.22 Z" />
<path fill="#dd9031" opacity="1.00" d=" M 270.21 19.06 C 275.54 18.86 281.54 19.49 285.41 23.60 C 288.04 25.66 287.02 29.34 286.74 32.17 C 286.05 35.45 285.55 39.74 282.00 41.15 C 277.43 42.72 271.77 42.39 268.18 38.84 C 264.22 34.82 258.34 33.85 254.19 30.11 C 255.09 29.23 256.04 28.40 257.04 27.63 C 261.05 26.93 261.92 33.39 265.99 32.48 C 268.28 31.53 269.60 29.19 270.39 26.96 C 269.88 24.30 267.88 21.46 270.21 19.06 Z" />
<path fill="#dd9031" opacity="1.00" d=" M 306.08 34.70 C 307.18 35.50 308.50 36.42 308.30 38.00 C 308.51 42.11 308.56 46.23 308.57 50.35 C 305.72 48.98 306.01 45.71 305.51 43.09 C 305.37 40.31 304.01 37.08 306.08 34.70 Z" />
<path fill="#dd9031" opacity="1.00" d=" M 312.82 37.86 C 313.67 36.30 315.54 37.68 315.65 39.05 C 315.89 42.40 315.39 45.78 314.85 49.09 C 314.31 49.49 313.22 50.31 312.68 50.71 C 312.57 48.08 312.93 45.43 312.44 42.82 C 312.35 41.18 311.48 39.22 312.82 37.86 Z" />
<path fill="#dd9031" opacity="1.00" d=" M 297.87 42.97 C 297.08 41.25 298.70 39.90 299.50 38.58 C 302.15 43.09 302.45 48.49 302.79 53.58 C 299.27 51.32 299.09 46.61 297.87 42.97 Z" />
<path fill="#dd9031" opacity="1.00" d=" M 321.35 46.13 C 321.65 43.00 327.12 45.18 325.32 47.83 C 323.67 50.96 322.19 54.46 319.19 56.54 C 319.26 52.97 320.14 49.48 321.35 46.13 Z" />
<path fill="#dd9031" opacity="1.00" d=" M 248.80 49.03 C 248.60 47.11 250.64 46.41 251.86 45.44 C 253.57 49.81 251.90 54.50 251.31 58.93 C 251.35 60.78 249.70 61.65 248.41 62.59 C 248.49 58.07 248.60 53.55 248.80 49.03 Z" />
<path fill="#dd9031" opacity="1.00" d=" M 240.06 51.99 C 239.59 50.05 241.41 48.94 242.49 47.68 C 246.16 51.11 242.72 55.79 243.72 59.98 C 244.61 61.95 242.86 63.28 241.28 61.78 C 240.44 58.59 240.27 55.26 240.06 51.99 Z" />
<path fill="#dd9031" opacity="1.00" d=" M 255.25 66.36 C 255.76 60.80 255.66 54.49 259.33 49.91 C 260.27 51.48 261.89 53.06 260.88 55.03 C 259.50 58.96 259.08 63.96 255.25 66.36 Z" />
<path fill="#dd9031" opacity="1.00" d=" M 302.40 53.56 C 308.49 53.67 315.70 54.40 319.28 60.09 C 319.99 64.29 319.05 68.67 317.61 72.63 C 315.95 76.78 310.64 76.95 306.87 76.58 C 302.32 76.25 299.71 72.05 295.91 70.15 C 292.69 68.50 289.12 67.30 286.60 64.57 C 287.96 63.74 289.11 61.82 290.95 62.36 C 293.75 63.33 294.67 67.53 298.02 67.28 C 301.11 66.17 303.90 62.16 302.07 58.97 C 300.86 57.21 301.74 55.32 302.40 53.56 Z" />
<path fill="#dd9031" opacity="1.00" d=" M 228.84 59.88 C 227.44 57.29 230.67 56.74 232.37 56.00 C 234.52 60.15 236.03 64.76 235.93 69.47 C 232.65 67.08 230.77 63.34 228.84 59.88 Z" />
<path fill="#dd9031" opacity="1.00" d=" M 236.10 73.04 C 240.62 66.93 248.86 66.03 255.89 66.45 C 256.31 67.61 256.66 68.78 256.95 69.97 C 256.37 71.99 254.40 74.11 255.74 76.25 C 256.95 78.62 258.97 81.35 261.98 81.08 C 265.03 80.39 266.10 76.71 268.99 75.77 C 271.23 74.97 272.59 77.18 274.03 78.45 C 269.23 82.58 262.48 83.38 257.88 87.82 C 253.66 91.71 247.31 92.01 242.03 90.52 C 238.02 89.50 237.02 85.01 236.26 81.53 C 235.83 78.76 235.08 75.74 236.10 73.04 Z" />
<path fill="#dd9031" opacity="1.00" d=" M 314.24 92.14 C 313.96 88.12 311.79 83.51 314.58 79.97 C 315.31 81.23 316.67 82.34 316.53 83.95 C 316.68 87.92 316.70 91.89 316.88 95.85 C 315.51 94.98 314.19 93.92 314.24 92.14 Z" />
<path fill="#dd9031" opacity="1.00" d=" M 320.32 86.00 C 319.83 84.42 321.58 83.39 322.14 82.12 C 325.28 85.34 323.46 89.98 323.23 93.91 C 323.43 95.16 320.85 97.04 320.77 94.93 C 320.98 91.94 320.81 88.96 320.32 86.00 Z" />
<path fill="#dd9031" opacity="1.00" d=" M 307.19 84.21 C 310.55 88.16 310.70 93.86 310.81 98.79 C 310.57 98.81 310.07 98.84 309.82 98.86 C 307.90 95.93 307.07 92.45 306.18 89.11 C 305.42 87.38 306.61 85.75 307.19 84.21 Z" />
<path fill="#dd9031" opacity="1.00" d=" M 330.28 90.25 C 331.52 90.42 332.73 90.74 333.95 91.05 C 333.23 95.40 330.61 99.29 327.52 102.34 C 327.42 98.17 328.50 94.00 330.28 90.25 Z" />
<path fill="#dd9031" opacity="1.00" d=" M 311.02 99.86 C 316.85 98.63 323.74 100.45 327.31 105.49 C 328.19 107.90 327.59 110.61 327.25 113.09 C 326.56 116.16 326.01 120.17 322.66 121.49 C 319.39 122.63 315.68 122.75 312.40 121.56 C 309.26 120.26 307.20 117.31 304.16 115.84 C 300.98 114.27 297.69 112.86 294.86 110.68 C 295.89 109.72 296.61 108.23 298.08 107.89 C 301.64 107.89 302.46 112.94 306.01 112.98 C 308.73 112.30 310.35 109.55 311.02 107.01 C 310.58 104.67 308.10 101.49 311.02 99.86 Z" />
<path fill="#dd9031" opacity="1.00" d=" M 275.17 109.90 C 275.95 108.97 276.93 108.24 277.85 107.45 C 280.04 111.77 278.02 116.62 277.54 121.10 C 277.58 122.95 275.87 123.74 274.56 124.61 C 274.88 119.71 274.68 114.78 275.17 109.90 Z" />
<path fill="#dd9031" opacity="1.00" d=" M 268.22 109.71 C 269.06 111.02 271.04 112.09 270.58 113.86 C 269.84 117.37 269.55 120.93 270.11 124.49 C 269.44 124.32 268.09 123.98 267.42 123.81 C 266.98 119.16 264.67 113.65 268.22 109.71 Z" />
<path fill="#dd9031" opacity="1.00" d=" M 281.46 128.39 C 282.11 122.93 281.73 116.52 285.62 112.14 C 286.12 112.88 287.12 114.35 287.62 115.09 C 286.01 119.62 285.84 125.56 281.46 128.39 Z" />
<path fill="#dd9031" opacity="1.00" d=" M 254.93 119.24 C 256.30 119.22 258.62 117.58 259.40 119.41 C 260.99 123.27 262.20 127.36 262.19 131.57 C 258.62 128.47 255.09 124.14 254.93 119.24 Z" />
<path fill="#dd9031" opacity="1.00" d=" M 263.62 133.62 C 268.40 128.74 275.60 128.36 282.01 128.44 C 282.45 129.61 282.82 130.80 283.14 132.01 C 282.68 133.70 281.52 135.20 281.46 136.98 C 282.46 139.82 284.57 143.22 287.98 143.20 C 291.43 142.64 292.50 138.09 296.02 137.72 C 298.02 137.52 299.00 139.55 300.24 140.74 C 295.42 144.49 289.00 145.45 284.47 149.64 C 279.99 153.88 273.08 154.29 267.49 152.33 C 263.53 150.63 263.01 145.80 262.21 142.10 C 261.93 139.29 260.97 135.62 263.62 133.62 Z" />
<path fill="#dd9031" opacity="1.00" d=" M 238.12 164.05 C 238.06 161.76 236.82 158.75 239.04 157.07 C 239.51 157.55 240.44 158.50 240.91 158.98 C 241.39 163.50 241.21 168.07 241.44 172.61 C 238.13 171.05 238.79 167.03 238.12 164.05 Z" />
<path fill="#dd9031" opacity="1.00" d=" M 244.95 162.99 C 244.34 161.27 246.19 160.11 246.88 158.80 C 249.83 162.31 248.03 166.96 247.75 171.02 C 247.84 172.30 246.21 172.24 245.39 172.63 C 245.54 169.40 245.58 166.17 244.95 162.99 Z" />
<path fill="#dd9031" opacity="1.00" d=" M 232.29 171.01 C 231.33 167.72 229.36 164.01 231.89 160.90 C 234.92 164.85 235.64 170.45 235.02 175.22 C 233.05 174.81 233.00 172.54 232.29 171.01 Z" />
<path fill="#dd9031" opacity="1.00" d=" M 254.89 166.57 C 256.41 167.25 259.28 167.59 258.15 170.01 C 256.63 173.28 254.92 176.68 252.02 178.95 C 251.97 174.65 253.40 170.54 254.89 166.57 Z" />
<path fill="#dd9031" opacity="1.00" d=" M 236.16 176.23 C 241.35 175.77 247.29 176.90 250.96 181.00 C 253.17 183.08 252.20 186.41 251.97 189.06 C 251.28 192.38 250.82 196.82 247.16 198.22 C 242.52 199.82 236.79 199.39 233.20 195.75 C 229.72 192.18 224.64 191.18 220.74 188.26 C 218.75 187.01 221.40 184.65 222.94 184.60 C 226.11 184.95 227.03 189.01 230.06 189.68 C 233.07 189.55 234.74 186.45 235.61 183.95 C 235.03 181.42 232.60 177.67 236.16 176.23 Z" />
</g>
<g id="#f3eb3eff">
<path fill="#f3eb3e" opacity="1.00" d=" M 191.20 18.90 C 190.94 17.26 192.11 15.96 192.95 14.70 C 194.43 15.74 196.35 16.92 196.17 19.03 C 196.33 25.11 196.43 31.19 196.74 37.26 C 195.36 36.52 193.35 35.88 193.24 34.01 C 192.38 29.00 191.58 23.97 191.20 18.90 Z" />
<path fill="#f3eb3e" opacity="1.00" d=" M 182.56 20.72 C 183.97 22.22 185.63 23.71 185.83 25.89 C 186.70 31.15 188.29 36.48 187.83 41.82 C 186.45 42.43 185.66 40.80 185.02 39.89 C 182.92 35.10 181.66 29.99 180.37 24.94 C 181.08 23.53 181.82 22.12 182.56 20.72 Z" />
<path fill="#f3eb3e" opacity="1.00" d=" M 127.08 31.90 C 126.72 29.69 128.71 28.54 130.06 27.24 C 130.49 27.96 131.34 29.42 131.77 30.15 C 131.25 35.10 130.74 40.06 129.69 44.93 C 129.39 46.38 127.56 46.70 126.60 47.55 C 126.84 42.34 127.04 37.12 127.08 31.90 Z" />
<path fill="#f3eb3e" opacity="1.00" d=" M 215.62 30.87 C 216.49 27.78 219.80 30.00 221.63 30.71 C 221.83 34.76 219.00 37.86 217.21 41.21 C 216.05 43.36 214.61 45.39 212.54 46.75 C 211.85 41.27 214.09 36.02 215.62 30.87 Z" />
<path fill="#f3eb3e" opacity="1.00" d=" M 117.18 36.03 C 116.45 33.55 118.03 31.63 119.61 29.95 C 120.57 31.48 122.75 32.84 122.04 34.95 C 121.45 38.64 120.32 42.48 121.84 46.11 C 121.41 46.58 120.54 47.51 120.11 47.98 C 116.57 45.16 118.04 39.97 117.18 36.03 Z" />
<path fill="#f3eb3e" opacity="1.00" d=" M 136.42 37.93 C 136.59 35.70 138.11 34.13 139.67 32.72 C 140.27 34.40 141.86 36.06 141.15 37.96 C 139.93 42.31 138.97 46.92 136.57 50.80 C 136.18 50.90 135.41 51.11 135.02 51.22 C 134.08 46.80 135.77 42.31 136.42 37.93 Z" />
<path fill="#f3eb3e" opacity="1.00" d=" M 104.12 41.84 C 105.11 40.77 106.63 40.41 108.01 40.20 C 109.51 40.91 109.71 42.69 110.22 44.07 C 111.35 47.89 112.72 51.77 112.32 55.83 C 109.51 54.17 108.19 51.12 106.50 48.49 C 105.32 46.43 103.54 44.39 104.12 41.84 Z" />
<path fill="#f3eb3e" opacity="1.00" d=" M 188.11 42.95 C 195.93 42.36 204.76 43.61 210.36 49.69 C 213.97 52.55 212.58 57.56 212.26 61.48 C 211.13 66.28 210.82 72.53 205.91 75.11 C 201.11 77.09 195.49 77.28 190.57 75.64 C 186.01 74.22 183.36 69.92 179.30 67.71 C 174.68 64.89 169.01 63.66 165.15 59.68 C 164.83 58.00 166.81 56.56 168.02 55.61 C 174.52 53.63 175.51 64.90 182.05 62.47 C 186.09 60.26 189.88 54.53 186.86 50.12 C 185.09 47.84 186.12 44.70 188.11 42.95 Z" />
<path fill="#f3eb3e" opacity="1.00" d=" M 113.79 58.76 C 119.03 53.14 127.67 51.27 134.91 52.89 C 138.15 55.51 135.14 58.95 134.46 61.93 C 135.17 65.29 137.41 68.92 140.89 69.89 C 145.76 70.56 146.66 63.73 151.14 63.42 C 153.45 63.05 154.57 65.42 155.93 66.83 C 152.24 70.27 147.33 71.69 142.97 74.00 C 138.71 76.15 135.87 80.67 130.98 81.63 C 126.36 82.58 121.06 82.56 116.95 79.98 C 113.62 77.05 113.24 72.22 112.39 68.11 C 112.18 65.02 111.08 61.09 113.79 58.76 Z" />
<path fill="#f3eb3e" opacity="1.00" d=" M 164.17 86.04 C 163.45 84.55 164.89 80.60 166.54 83.24 C 167.96 87.11 167.01 91.63 167.45 95.75 C 163.98 93.82 164.97 89.32 164.17 86.04 Z" />
<path fill="#f3eb3e" opacity="1.00" d=" M 170.64 86.92 C 170.16 85.43 172.05 84.74 172.66 83.67 C 174.91 87.02 173.68 91.23 173.04 94.89 C 172.54 95.14 171.53 95.63 171.03 95.88 C 171.41 92.88 171.14 89.88 170.64 86.92 Z" />
<path fill="#f3eb3e" opacity="1.00" d=" M 158.28 85.60 C 160.92 87.06 161.01 90.20 161.54 92.83 C 161.71 94.47 162.34 96.16 161.84 97.80 C 161.57 97.87 161.03 98.01 160.76 98.08 C 159.18 94.19 156.41 89.84 158.28 85.60 Z" />
<path fill="#f3eb3e" opacity="1.00" d=" M 179.47 91.27 C 180.39 90.25 181.88 91.45 183.00 91.43 C 182.65 95.39 179.87 98.63 177.20 101.38 C 177.14 97.88 178.06 94.44 179.47 91.27 Z" />
<path fill="#f3eb3e" opacity="1.00" d=" M 162.11 98.94 C 166.99 98.38 172.51 99.24 176.09 102.90 C 178.21 104.62 177.32 107.66 177.11 109.98 C 176.48 112.82 176.05 116.58 172.99 117.86 C 168.73 119.41 163.45 119.10 160.01 115.89 C 156.36 112.54 151.33 111.50 147.37 108.60 C 148.23 107.74 148.93 106.65 150.06 106.12 C 153.55 105.82 154.49 111.11 158.02 110.44 C 160.52 109.39 163.03 106.21 161.52 103.47 C 160.69 101.96 160.41 99.98 162.11 98.94 Z" />
<path fill="#f3eb3e" opacity="1.00" d=" M 217.25 102.88 C 217.00 100.90 218.71 99.70 220.12 98.69 C 221.22 99.85 222.22 101.36 221.76 103.06 C 221.30 107.39 220.79 111.72 219.88 115.99 C 219.71 117.58 217.73 117.87 216.71 118.70 C 217.07 113.43 217.10 108.15 217.25 102.88 Z" />
<path fill="#f3eb3e" opacity="1.00" d=" M 207.26 105.97 C 206.89 103.94 208.73 102.64 209.74 101.15 C 210.59 102.39 211.90 103.41 212.32 104.91 C 212.21 107.97 210.94 110.94 211.27 114.01 C 211.33 115.59 212.43 117.50 211.01 118.82 C 210.15 118.57 209.30 118.29 208.46 118.00 C 207.94 114.00 207.48 109.99 207.26 105.97 Z" />
<path fill="#f3eb3e" opacity="1.00" d=" M 225.64 114.05 C 226.31 110.44 226.54 106.33 229.71 103.92 C 230.36 105.23 231.11 106.51 231.57 107.91 C 230.64 112.27 229.31 116.57 227.57 120.68 C 226.98 121.53 226.44 122.96 225.17 122.79 C 224.11 119.96 225.37 116.93 225.64 114.05 Z" />
<path fill="#f3eb3e" opacity="1.00" d=" M 194.28 112.93 C 195.66 112.00 197.35 111.09 199.03 111.81 C 200.94 116.63 202.80 121.77 202.47 127.03 C 199.55 125.35 198.27 122.15 196.50 119.47 C 195.33 117.47 193.64 115.42 194.28 112.93 Z" />
<path fill="#f3eb3e" opacity="1.00" d=" M 204.96 129.00 C 210.20 124.06 218.06 122.88 224.90 123.88 C 226.49 125.40 227.29 127.97 225.83 129.85 C 222.93 133.97 226.72 139.55 230.83 141.06 C 236.04 142.07 236.96 134.23 241.98 134.62 C 243.94 134.74 244.81 136.87 246.10 138.04 C 242.67 141.26 238.15 142.73 234.01 144.77 C 228.98 147.01 225.77 152.49 219.96 153.11 C 215.11 153.67 208.79 153.85 205.55 149.52 C 203.08 144.78 202.26 139.26 202.21 133.96 C 201.97 131.84 203.54 130.29 204.96 129.00 Z" />
<path fill="#f3eb3e" opacity="1.00" d=" M 186.03 176.80 C 186.92 177.79 188.61 178.45 188.47 180.02 C 188.62 183.57 188.64 187.13 188.82 190.68 C 185.90 189.43 186.28 186.03 185.76 183.42 C 185.36 181.21 185.32 178.95 186.03 176.80 Z" />
<path fill="#f3eb3e" opacity="1.00" d=" M 178.71 183.00 C 178.78 181.35 181.12 180.22 181.49 182.35 C 182.35 185.67 183.90 189.46 182.83 192.82 C 182.57 192.79 182.04 192.72 181.77 192.69 C 180.43 189.58 179.23 186.36 178.71 183.00 Z" />
<path fill="#f3eb3e" opacity="1.00" d=" M 183.12 194.03 C 188.59 193.07 195.29 194.47 198.56 199.37 C 199.08 203.18 198.28 207.17 196.71 210.67 C 195.45 213.09 192.45 213.53 190.00 213.68 C 186.80 213.96 183.55 212.97 181.20 210.76 C 177.58 207.46 172.61 206.42 168.66 203.62 C 169.70 202.67 170.43 200.97 172.07 201.07 C 174.64 201.57 175.58 204.59 177.97 205.44 C 180.67 205.82 182.40 203.08 183.31 200.94 C 183.59 198.60 180.72 196.06 183.12 194.03 Z" />
</g>
<g id="#f3eb3dff">
<path fill="#f3eb3d" opacity="1.00" d=" M 201.75 21.01 C 202.59 19.75 203.67 18.68 204.70 17.57 C 205.69 19.24 207.55 20.75 207.18 22.91 C 206.83 27.24 206.70 31.63 205.84 35.91 C 205.29 36.41 204.20 37.43 203.66 37.93 C 201.18 36.14 202.86 33.41 202.94 30.98 C 202.79 27.63 201.47 24.38 201.75 21.01 Z" />
<path fill="#f3eb3d" opacity="1.00" d=" M 193.74 178.79 C 196.46 181.92 194.86 186.32 194.36 190.00 C 193.82 190.16 192.74 190.49 192.20 190.65 C 192.83 187.42 192.39 184.18 191.76 181.00 C 192.26 180.44 193.25 179.34 193.74 178.79 Z" />
<path fill="#f3eb3d" opacity="1.00" d=" M 200.68 186.43 C 201.98 184.27 205.54 187.13 203.86 188.96 C 202.41 191.62 200.87 194.34 198.51 196.32 C 198.43 192.90 199.38 189.56 200.68 186.43 Z" />
</g>
<g id="#9cc24eff">
<path fill="#9cc24e" opacity="1.00" d=" M 396.39 38.47 C 397.30 37.75 398.23 37.04 399.16 36.33 C 401.32 40.69 399.34 45.59 398.78 50.12 C 398.84 51.93 397.00 52.54 395.83 53.46 C 396.13 48.46 396.15 43.46 396.39 38.47 Z" />
<path fill="#9cc24e" opacity="1.00" d=" M 389.32 38.54 C 390.48 39.84 392.65 40.94 391.80 43.02 C 391.00 46.34 391.13 49.72 391.33 53.10 C 389.89 54.10 388.33 52.36 388.39 50.98 C 388.09 46.83 386.33 42.13 389.32 38.54 Z" />
<path fill="#9cc24e" opacity="1.00" d=" M 403.21 51.54 C 403.92 47.83 404.10 43.68 406.97 40.85 C 407.62 41.92 408.27 43.00 408.93 44.08 C 407.69 48.21 406.72 52.52 404.49 56.26 C 404.16 56.16 403.51 55.95 403.18 55.85 C 402.56 54.46 403.04 52.97 403.21 51.54 Z" />
<path fill="#9cc24e" opacity="1.00" d=" M 349.21 46.27 C 350.42 45.81 351.22 46.17 351.62 47.35 C 352.18 51.27 351.94 55.26 352.09 59.21 C 350.81 58.48 350.09 57.40 349.92 55.98 C 349.38 52.79 348.72 49.51 349.21 46.27 Z" />
<path fill="#9cc24e" opacity="1.00" d=" M 376.06 48.16 C 377.37 47.78 378.69 47.47 380.04 47.23 C 382.30 51.14 383.35 55.75 383.50 60.24 C 379.81 57.31 376.63 52.93 376.06 48.16 Z" />
<path fill="#9cc24e" opacity="1.00" d=" M 345.67 61.29 C 344.36 57.38 341.53 52.92 343.93 48.90 C 346.45 52.25 346.96 56.79 346.82 60.83 C 346.53 60.95 345.96 61.18 345.67 61.29 Z" />
<path fill="#9cc24e" opacity="1.00" d=" M 363.55 53.99 C 364.67 54.48 365.79 54.99 366.91 55.52 C 365.41 58.79 364.10 62.49 361.03 64.64 C 361.21 60.96 362.24 57.41 363.55 53.99 Z" />
<path fill="#9cc24e" opacity="1.00" d=" M 384.69 62.63 C 389.33 57.94 396.66 56.45 402.94 57.79 C 405.80 59.62 403.61 62.74 402.77 65.04 C 403.12 67.94 405.20 70.90 408.03 71.84 C 412.51 72.88 413.63 66.05 417.96 66.57 C 419.70 66.55 420.37 68.57 421.50 69.58 C 416.57 73.29 410.12 74.31 405.56 78.58 C 401.14 82.66 394.43 83.00 388.96 81.17 C 384.95 79.64 384.37 74.82 383.56 71.17 C 383.31 68.38 382.19 64.75 384.69 62.63 Z" />
<path fill="#9cc24e" opacity="1.00" d=" M 347.19 62.12 C 352.34 62.03 358.51 63.05 361.26 67.98 C 361.64 71.61 361.00 75.35 359.70 78.75 C 358.35 82.14 354.08 82.36 350.97 82.13 C 347.00 81.99 344.67 78.40 341.45 76.64 C 338.67 75.16 335.76 73.88 333.25 71.95 C 334.12 71.09 335.04 70.28 336.00 69.52 C 338.69 69.82 339.74 72.80 341.98 73.94 C 344.36 74.36 345.92 71.91 346.78 70.05 C 347.74 68.28 346.16 66.47 345.66 64.81 C 346.10 63.88 346.61 62.98 347.19 62.12 Z" />
<path fill="#9cc24e" opacity="1.00" d=" M 372.06 108.05 C 371.60 104.81 370.81 101.41 371.97 98.22 C 372.99 99.27 374.39 100.34 374.16 102.02 C 374.34 105.47 374.38 108.93 374.29 112.38 C 372.93 111.29 372.14 109.78 372.06 108.05 Z" />
<path fill="#9cc24e" opacity="1.00" d=" M 377.34 102.36 C 377.85 101.59 378.52 100.95 379.23 100.36 C 381.28 102.85 380.27 106.10 380.06 109.00 C 380.16 110.62 379.27 111.86 377.87 112.59 C 378.00 109.16 377.67 105.76 377.34 102.36 Z" />
<path fill="#9cc24e" opacity="1.00" d=" M 385.74 107.31 C 386.90 107.41 388.04 107.69 389.20 107.92 C 388.17 111.59 386.33 115.12 383.49 117.70 C 383.47 114.12 384.40 110.61 385.74 107.31 Z" />
<path fill="#9cc24e" opacity="1.00" d=" M 367.96 117.77 C 368.31 116.76 368.95 115.99 369.87 115.46 C 374.69 114.61 380.48 116.22 383.36 120.49 C 384.13 122.70 383.53 125.15 383.25 127.41 C 382.67 129.94 382.19 133.20 379.48 134.35 C 375.56 135.81 370.66 135.50 367.58 132.41 C 364.13 128.90 358.92 128.06 355.54 124.49 C 356.20 124.05 357.52 123.16 358.19 122.71 C 361.33 122.23 362.06 126.71 365.01 127.04 C 367.44 126.53 368.74 124.10 369.49 121.95 C 369.20 120.48 368.53 119.14 367.96 117.77 Z" />
<path fill="#9cc24e" opacity="1.00" d=" M 350.44 146.37 C 351.34 145.59 352.25 144.82 353.17 144.05 C 355.61 148.41 353.31 153.47 352.84 158.07 C 352.85 159.79 351.01 160.22 349.90 161.07 C 350.25 156.18 350.33 151.27 350.44 146.37 Z" />
<path fill="#9cc24e" opacity="1.00" d=" M 343.33 146.36 C 344.26 147.19 345.23 148.00 346.04 148.97 C 345.73 152.63 344.74 156.25 345.49 159.93 C 345.59 162.18 342.70 160.88 342.65 159.48 C 342.21 155.15 340.41 150.20 343.33 146.36 Z" />
<path fill="#9cc24e" opacity="1.00" d=" M 357.51 158.10 C 358.22 154.83 358.23 150.83 361.34 148.77 C 361.89 149.82 362.45 150.88 363.01 151.95 C 361.71 156.07 360.87 160.49 358.43 164.12 C 358.12 164.04 357.50 163.88 357.19 163.80 C 356.59 161.93 357.30 159.98 357.51 158.10 Z" />
<path fill="#9cc24e" opacity="1.00" d=" M 330.03 156.02 C 331.59 155.85 334.08 153.85 334.86 156.13 C 336.39 159.91 337.74 163.94 337.50 168.08 C 333.94 164.97 330.89 160.73 330.03 156.02 Z" />
<path fill="#9cc24e" opacity="1.00" d=" M 340.68 168.76 C 345.24 165.23 351.32 164.87 356.85 165.03 C 359.85 167.20 357.80 170.34 356.86 172.99 C 357.44 176.00 359.69 179.39 362.99 179.71 C 366.88 179.65 367.94 173.99 371.95 174.29 C 373.57 174.28 374.43 175.91 375.34 176.99 C 372.71 180.13 368.45 180.92 364.98 182.77 C 360.77 184.61 357.92 188.94 353.17 189.62 C 349.03 190.17 344.01 190.35 340.71 187.36 C 337.97 183.52 337.41 178.51 337.25 173.91 C 337.01 171.58 339.06 170.04 340.68 168.76 Z" />
<path fill="#9cc24e" opacity="1.00" d=" M 303.19 178.79 C 302.88 177.01 305.01 176.92 305.57 178.32 C 306.02 181.38 305.89 184.49 305.88 187.58 C 303.27 185.50 303.52 181.78 303.19 178.79 Z" />
<path fill="#9cc24e" opacity="1.00" d=" M 309.23 187.67 C 309.44 184.46 307.53 180.70 310.09 178.01 C 312.10 180.71 312.05 185.64 309.23 187.67 Z" />
<path fill="#9cc24e" opacity="1.00" d=" M 298.16 179.90 C 301.68 181.46 300.87 186.32 301.57 189.50 C 306.07 189.58 311.53 189.88 314.31 194.00 C 314.40 197.21 314.08 201.05 311.64 203.41 C 307.90 205.28 302.97 204.99 299.63 202.35 C 296.36 199.97 292.37 198.97 288.95 196.85 C 289.89 196.09 290.91 195.46 292.01 194.96 C 293.79 195.89 295.20 197.36 296.94 198.37 C 299.03 198.69 300.57 196.74 301.37 195.06 C 301.04 193.23 300.42 191.42 300.87 189.54 C 299.21 186.73 296.80 183.27 298.16 179.90 Z" />
<path fill="#9cc24e" opacity="1.00" d=" M 316.31 183.70 C 317.33 183.73 318.34 183.82 319.36 183.95 C 318.38 186.96 316.54 189.68 314.00 191.59 C 314.35 188.88 314.77 186.02 316.31 183.70 Z" />
</g>
<g id="#9cc34eff">
<path fill="#9cc34e" opacity="1.00" d=" M 356.61 47.25 C 359.40 50.33 357.78 54.76 357.28 58.38 C 356.81 58.62 355.87 59.10 355.40 59.34 C 355.72 56.13 355.56 52.91 354.89 49.75 C 355.45 48.91 356.03 48.08 356.61 47.25 Z" />
</g>
<g id="#a42b30ff">
<path fill="#a42b30" opacity="1.00" d=" M 77.36 70.20 C 77.02 65.82 74.88 60.94 77.49 56.92 C 78.35 58.17 79.80 59.27 79.68 60.95 C 79.89 65.27 79.87 69.59 80.07 73.91 C 78.77 72.98 77.31 71.99 77.36 70.20 Z" />
<path fill="#a42b30" opacity="1.00" d=" M 68.74 65.97 C 68.32 64.50 68.91 62.21 70.69 62.06 C 73.32 66.39 73.55 71.85 73.80 76.77 C 73.51 76.83 72.95 76.95 72.66 77.01 C 70.53 73.70 69.67 69.75 68.74 65.97 Z" />
<path fill="#a42b30" opacity="1.00" d=" M 93.94 67.68 C 95.30 68.10 96.66 68.54 98.01 69.00 C 96.78 73.32 94.75 77.86 91.04 80.58 C 91.12 76.12 92.54 71.86 93.94 67.68 Z" />
<path fill="#a42b30" opacity="1.00" d=" M 26.27 80.91 C 26.12 79.34 27.93 78.63 28.73 77.54 C 31.01 81.55 29.76 86.27 29.23 90.57 C 29.32 91.69 26.05 93.37 26.78 91.15 C 26.95 87.72 26.73 84.31 26.27 80.91 Z" />
<path fill="#a42b30" opacity="1.00" d=" M 74.07 77.95 C 79.05 77.37 84.59 78.12 88.50 81.52 C 89.81 82.70 91.42 84.05 91.39 85.99 C 91.51 90.16 90.81 94.42 89.23 98.29 C 87.34 102.40 81.96 102.53 78.08 102.12 C 73.32 101.73 70.68 97.28 66.71 95.26 C 63.43 93.58 60.03 92.09 57.07 89.84 C 58.24 88.71 59.09 86.51 61.08 86.85 C 64.11 87.47 64.96 91.40 67.93 92.19 C 70.49 92.39 72.12 90.00 73.18 88.03 C 75.55 84.87 69.94 80.45 74.07 77.95 Z" />
<path fill="#a42b30" opacity="1.00" d=" M 36.55 86.33 C 37.88 86.32 39.19 86.61 40.50 86.81 C 39.86 91.50 37.19 95.80 33.80 99.03 C 33.72 94.65 34.92 90.35 36.55 86.33 Z" />
<path fill="#a42b30" opacity="1.00" d=" M 16.33 104.98 C 16.57 101.99 13.46 98.09 16.77 95.85 C 21.29 96.00 26.20 96.17 30.02 98.93 C 31.95 100.36 34.28 102.20 34.04 104.90 C 33.98 109.16 33.40 113.59 31.37 117.40 C 29.14 120.66 24.57 120.71 21.02 120.44 C 16.21 120.07 13.38 115.71 9.40 113.60 C 6.25 111.91 3.01 110.38 0.00 108.44 L 0.00 107.43 C 1.14 106.43 2.19 104.76 3.96 105.12 C 6.40 106.32 7.80 108.86 10.06 110.33 C 13.31 111.01 15.41 107.59 16.33 104.98 Z" />
<path fill="#a42b30" opacity="1.00" d=" M 108.22 95.35 C 109.36 96.74 111.51 97.94 110.74 100.07 C 109.88 103.66 110.22 107.34 110.09 110.95 L 109.11 111.41 C 108.72 111.16 107.94 110.68 107.55 110.44 C 106.91 105.52 104.66 99.63 108.22 95.35 Z" />
<path fill="#a42b30" opacity="1.00" d=" M 122.42 112.22 C 123.36 107.34 123.05 101.57 126.82 97.79 C 127.35 99.16 128.80 100.37 128.52 101.93 C 127.67 106.07 126.36 110.16 124.50 113.96 C 124.12 113.98 123.38 114.03 123.01 114.06 C 122.86 113.60 122.57 112.68 122.42 112.22 Z" />
<path fill="#a42b30" opacity="1.00" d=" M 93.81 105.96 C 95.50 105.72 98.17 103.48 99.08 105.94 C 100.68 110.02 102.04 114.33 101.93 118.77 C 97.91 115.62 95.17 110.84 93.81 105.96 Z" />
<path fill="#a42b30" opacity="1.00" d=" M 104.90 119.83 C 109.63 115.93 116.16 115.23 122.05 115.73 C 125.45 117.38 123.29 121.40 122.30 124.06 C 122.74 127.17 124.95 130.36 128.02 131.35 C 132.90 132.19 133.97 124.42 138.95 125.65 C 140.10 126.46 141.11 127.44 142.16 128.38 C 138.99 131.53 134.66 132.86 130.74 134.77 C 126.23 136.83 123.20 141.60 118.00 142.18 C 113.58 142.69 107.90 142.88 104.80 139.10 C 102.39 134.87 101.65 129.81 101.61 125.00 C 101.40 122.70 103.32 121.15 104.90 119.83 Z" />
<path fill="#a42b30" opacity="1.00" d=" M 64.83 122.97 C 64.56 120.80 66.64 119.75 67.95 118.45 C 68.42 119.92 69.55 121.31 69.32 122.94 C 68.92 127.32 68.35 131.71 67.44 136.02 C 67.21 137.54 65.36 137.93 64.44 138.89 C 64.48 133.59 64.67 128.28 64.83 122.97 Z" />
<path fill="#a42b30" opacity="1.00" d=" M 55.82 136.50 C 55.57 131.42 53.11 125.42 57.06 121.20 C 57.96 122.46 59.55 123.42 59.83 125.03 C 59.70 127.42 59.08 129.75 58.84 132.13 C 58.62 134.40 59.56 136.66 59.01 138.92 C 57.61 138.75 55.70 138.29 55.82 136.50 Z" />
<path fill="#a42b30" opacity="1.00" d=" M 72.71 137.15 C 73.65 132.61 73.45 127.28 77.18 123.90 C 78.32 125.90 79.68 128.10 78.60 130.44 C 77.12 134.45 76.77 139.42 73.58 142.48 L 72.88 142.17 C 71.79 140.73 72.67 138.77 72.71 137.15 Z" />
<path fill="#a42b30" opacity="1.00" d=" M 167.32 144.07 C 166.51 142.03 168.53 140.91 169.70 139.64 C 172.02 143.75 170.75 148.63 170.09 153.02 C 169.51 153.45 168.36 154.29 167.79 154.72 C 167.88 151.16 167.96 147.59 167.32 144.07 Z" />
<path fill="#a42b30" opacity="1.00" d=" M 50.08 152.02 C 54.65 144.78 64.13 143.04 72.08 143.74 C 73.55 143.92 73.31 145.92 74.01 146.89 C 74.68 149.57 71.24 151.85 72.48 154.64 C 73.65 157.53 75.69 160.72 79.01 161.28 C 83.64 161.35 84.56 154.88 89.05 154.72 C 91.27 154.53 92.32 156.85 93.72 158.12 C 89.90 161.58 84.89 163.05 80.44 165.46 C 76.65 167.41 74.09 171.23 69.95 172.57 C 65.51 173.97 60.53 173.85 56.19 172.17 C 53.18 171.01 51.97 167.75 51.23 164.88 C 50.22 160.71 49.23 156.30 50.08 152.02 Z" />
<path fill="#a42b30" opacity="1.00" d=" M 177.54 148.18 C 178.82 148.44 180.10 148.71 181.38 148.99 C 180.84 153.65 178.16 157.94 174.76 161.09 C 174.62 156.62 176.10 152.34 177.54 148.18 Z" />
<path fill="#a42b30" opacity="1.00" d=" M 156.65 163.40 C 155.76 161.61 155.86 158.84 157.90 157.92 C 164.08 157.90 171.39 159.13 174.77 164.97 C 175.42 168.60 174.68 172.33 173.81 175.87 C 173.20 178.15 172.22 180.74 169.81 181.63 C 164.90 183.51 158.75 182.97 154.97 179.05 C 151.20 175.06 145.51 174.05 141.39 170.59 C 140.65 169.14 142.29 168.07 143.32 167.35 C 147.70 166.11 148.57 173.54 152.97 172.42 C 156.09 170.89 158.63 166.73 156.65 163.40 Z" />
<path fill="#a42b30" opacity="1.00" d=" M 103.59 177.99 C 103.15 173.59 101.34 168.85 103.53 164.65 C 104.54 165.93 106.16 167.05 105.93 168.90 C 106.04 173.19 106.16 177.47 106.24 181.75 C 105.00 180.77 103.64 179.71 103.59 177.99 Z" />
<path fill="#a42b30" opacity="1.00" d=" M 109.65 169.81 C 110.46 168.89 111.27 167.98 112.09 167.08 C 114.94 170.88 113.19 175.77 112.82 180.06 C 112.89 181.84 109.48 182.30 110.35 179.94 C 110.83 176.54 110.23 173.15 109.65 169.81 Z" />
<path fill="#a42b30" opacity="1.00" d=" M 95.02 173.97 C 94.20 172.11 95.78 170.67 96.73 169.28 C 99.27 173.96 100.13 179.55 99.81 184.79 C 99.57 184.79 99.08 184.81 98.83 184.82 C 96.88 181.49 95.90 177.70 95.02 173.97 Z" />
<path fill="#a42b30" opacity="1.00" d=" M 120.13 176.07 C 121.76 174.75 124.93 176.71 123.76 178.91 C 122.13 182.36 120.43 186.05 117.33 188.44 C 117.40 184.19 118.38 179.93 120.13 176.07 Z" />
<path fill="#a42b30" opacity="1.00" d=" M 99.27 190.76 C 98.40 189.21 98.42 186.91 100.08 185.90 C 106.37 184.63 114.05 186.65 117.44 192.48 C 118.05 196.93 117.12 201.53 115.60 205.72 C 114.23 209.56 109.55 210.12 106.04 210.04 C 102.56 210.11 99.45 208.31 97.03 205.95 C 93.05 202.07 87.18 201.13 83.22 197.22 C 84.63 196.12 85.84 194.00 87.94 194.69 C 90.64 195.95 91.70 199.99 95.00 199.94 C 98.57 198.87 101.29 194.23 99.27 190.76 Z" />
<path fill="#a42b30" opacity="1.00" d=" M 145.59 219.37 C 146.22 219.03 147.49 218.34 148.13 218.00 C 147.76 222.62 148.85 228.59 145.08 232.01 C 145.18 227.80 144.93 223.54 145.59 219.37 Z" />
<path fill="#a42b30" opacity="1.00" d=" M 150.54 235.42 C 150.26 230.75 150.03 224.81 153.89 221.50 C 155.32 226.32 152.97 231.33 150.54 235.42 Z" />
<path fill="#a42b30" opacity="1.00" d=" M 135.66 241.04 C 138.47 235.83 144.89 235.05 150.20 234.90 C 150.64 235.89 151.08 236.89 151.52 237.89 C 148.93 241.22 150.74 246.65 155.00 247.31 C 157.45 246.35 158.50 243.45 161.01 242.60 C 162.57 242.82 163.27 244.34 164.13 245.45 C 161.54 247.14 158.73 248.43 156.02 249.91 C 152.65 251.73 150.21 255.50 146.07 255.64 C 143.08 255.80 139.10 255.68 137.50 252.66 C 135.93 249.04 135.23 244.97 135.66 241.04 Z" />
</g>
<g id="#a42c30ff">
<path fill="#a42c30" opacity="1.00" d=" M 85.58 59.39 C 88.80 62.55 86.99 67.25 86.80 71.17 C 86.96 72.87 85.50 73.62 84.22 74.25 C 84.47 70.16 84.23 66.08 83.47 62.05 C 83.99 61.39 85.05 60.06 85.58 59.39 Z" />
<path fill="#a42c30" opacity="1.00" d=" M 19.08 82.09 C 19.06 80.13 17.73 76.03 20.79 75.97 C 21.95 77.01 22.45 78.50 22.36 80.03 C 22.47 84.11 22.61 88.20 22.56 92.29 C 18.97 90.21 19.90 85.53 19.08 82.09 Z" />
<path fill="#a42c30" opacity="1.00" d=" M 12.58 79.92 C 15.45 82.47 15.40 86.52 16.09 90.00 C 16.21 91.59 16.84 93.37 15.83 94.80 C 15.57 94.81 15.03 94.84 14.77 94.86 C 13.07 91.09 12.07 87.06 11.04 83.07 C 11.55 82.02 12.06 80.97 12.58 79.92 Z" />
<path fill="#a42c30" opacity="1.00" d=" M 115.49 96.82 C 115.35 94.98 117.28 94.06 118.21 92.78 C 121.04 97.09 118.68 102.28 118.26 106.96 C 118.31 109.08 116.83 110.43 115.12 111.34 C 115.21 106.50 115.33 101.66 115.49 96.82 Z" />
<path fill="#a42c30" opacity="1.00" d=" M 41.94 132.97 C 43.40 131.87 46.51 130.50 47.14 133.17 C 48.74 137.66 50.38 142.34 49.93 147.18 C 46.83 144.81 45.10 141.23 43.10 137.98 C 42.18 136.49 41.31 134.74 41.94 132.97 Z" />
<path fill="#a42c30" opacity="1.00" d=" M 159.78 140.92 C 159.68 139.60 160.04 137.76 161.76 138.04 C 162.86 139.06 163.44 140.47 163.33 141.98 C 163.40 146.10 163.55 150.22 163.58 154.34 C 162.17 153.63 161.34 152.54 161.08 151.09 C 160.45 147.73 159.97 144.34 159.78 140.92 Z" />
<path fill="#a42c30" opacity="1.00" d=" M 152.19 145.07 C 152.65 143.94 153.18 142.84 153.78 141.78 C 156.17 144.68 156.46 148.52 157.05 152.07 C 157.20 153.64 157.76 155.35 156.83 156.80 C 156.54 156.79 155.97 156.76 155.68 156.74 C 154.12 152.99 152.71 149.11 152.19 145.07 Z" />
<path fill="#a42c30" opacity="1.00" d=" M 130.27 229.02 C 129.89 227.01 132.25 227.29 133.52 226.78 C 134.61 230.29 135.67 233.85 135.90 237.54 C 133.09 235.49 131.42 232.21 130.27 229.02 Z" />
</g>
<g id="#000000ff">
<path fill="#000000" opacity="1.00" d=" M 350.92 94.63 C 349.87 115.38 340.92 135.62 326.38 150.46 C 315.81 161.56 302.64 169.58 290.02 178.08 C 279.29 185.11 270.47 194.65 262.72 204.77 C 256.75 212.98 251.13 221.81 248.69 231.78 C 252.42 229.48 256.09 227.09 259.96 225.02 C 270.85 219.23 283.03 216.68 294.57 212.51 C 312.77 206.14 331.33 200.86 350.10 196.42 C 365.69 192.80 381.34 186.41 392.44 174.47 C 401.83 164.69 406.63 151.20 406.77 137.73 C 409.72 144.04 411.10 151.22 409.72 158.13 C 408.12 166.58 402.67 173.74 396.34 179.31 C 387.84 186.71 377.77 192.05 367.53 196.61 C 346.87 205.67 324.97 211.35 303.26 217.21 C 289.83 220.96 276.25 224.98 264.19 232.15 C 259.14 235.32 253.57 239.58 252.99 246.01 C 251.51 259.01 252.94 272.13 254.36 285.08 C 258.82 320.83 266.52 356.06 274.13 391.24 C 260.58 392.07 247.39 398.60 238.36 408.72 C 227.51 397.57 212.24 390.27 196.48 391.18 C 202.96 353.00 212.09 315.31 218.00 277.02 C 219.07 270.04 220.04 263.04 220.40 255.98 C 220.48 252.82 220.62 249.52 219.45 246.52 C 214.92 244.52 209.79 244.61 205.05 243.28 C 186.17 239.02 169.69 227.36 157.25 212.79 C 144.84 198.31 135.94 181.09 122.63 167.33 C 115.50 159.69 107.00 153.55 99.24 146.60 C 106.46 147.97 112.72 152.08 118.57 156.31 C 130.16 164.95 140.09 175.60 149.26 186.72 C 156.41 195.24 162.31 204.89 170.74 212.28 C 184.59 224.83 202.87 232.90 221.68 233.12 C 219.56 217.46 212.89 202.89 206.29 188.68 C 195.64 166.56 182.30 145.80 166.91 126.69 C 177.30 132.29 185.60 141.00 193.06 149.99 C 211.79 173.12 223.86 200.75 233.58 228.65 C 242.35 206.28 257.43 185.42 279.07 174.06 C 311.30 157.07 337.70 128.73 350.92 94.63 Z" />
</g>
<g id="#a1539bff">
<path fill="#a1539b" opacity="1.00" d=" M 411.22 98.10 C 411.64 97.70 412.48 96.91 412.89 96.51 C 413.10 100.71 413.61 105.73 410.74 109.16 C 410.82 105.48 410.40 101.71 411.22 98.10 Z" />
<path fill="#a1539b" opacity="1.00" d=" M 406.12 99.22 C 406.57 99.18 407.47 99.10 407.92 99.06 C 408.68 102.50 407.69 106.05 407.65 109.52 C 405.33 106.73 405.67 102.60 406.12 99.22 Z" />
<path fill="#a1539b" opacity="1.00" d=" M 456.24 110.14 C 456.26 107.74 454.50 103.51 457.80 102.67 C 459.70 104.66 459.32 107.49 459.39 110.00 C 459.38 113.11 459.62 116.22 459.59 119.33 C 456.11 117.63 457.00 113.28 456.24 110.14 Z" />
<path fill="#a1539b" opacity="1.00" d=" M 398.89 105.32 C 399.76 104.99 400.64 104.66 401.53 104.33 C 402.55 107.47 403.46 110.70 403.37 114.04 C 401.20 111.54 399.65 108.54 398.89 105.32 Z" />
<path fill="#a1539b" opacity="1.00" d=" M 473.25 113.08 C 474.50 113.39 475.76 113.72 477.02 114.07 C 476.48 118.71 473.80 122.99 470.52 126.22 C 470.34 121.68 471.82 117.32 473.25 113.08 Z" />
<path fill="#a1539b" opacity="1.00" d=" M 453.60 123.53 C 459.11 122.43 465.72 124.07 469.46 128.59 C 471.46 130.57 470.66 133.62 470.55 136.11 C 470.04 139.37 469.61 142.86 467.68 145.62 C 464.93 148.40 460.47 148.41 456.87 147.79 C 452.72 147.04 450.42 143.09 446.91 141.16 C 443.55 139.33 439.92 137.89 437.12 135.20 C 438.50 133.99 439.68 131.61 441.89 132.60 C 444.21 134.00 445.18 137.14 447.90 137.89 C 450.30 137.99 451.80 135.72 452.81 133.85 C 455.45 130.56 449.83 126.44 453.60 123.53 Z" />
<path fill="#a1539b" opacity="1.00" d=" M 437.86 167.97 C 438.24 165.60 439.18 163.36 440.98 161.71 C 443.80 165.31 440.39 169.27 439.13 172.79 C 438.88 172.80 438.38 172.83 438.13 172.85 C 436.60 171.58 437.69 169.57 437.86 167.97 Z" />
<path fill="#a1539b" opacity="1.00" d=" M 413.69 167.08 C 414.55 166.98 416.27 166.77 417.13 166.67 C 419.48 169.13 419.90 172.87 420.37 176.11 C 417.29 173.95 414.39 170.91 413.69 167.08 Z" />
<path fill="#a1539b" opacity="1.00" d=" M 389.07 189.57 C 389.90 190.68 391.44 191.52 391.49 193.06 C 391.72 197.61 391.66 202.17 391.93 206.72 C 390.63 205.88 389.22 204.93 389.28 203.20 C 388.83 198.70 387.11 193.92 389.07 189.57 Z" />
<path fill="#a1539b" opacity="1.00" d=" M 397.35 191.91 C 400.46 195.63 398.64 200.65 398.33 205.00 C 398.40 206.74 395.07 207.78 395.84 205.24 C 396.33 201.81 395.63 198.42 395.34 195.02 C 395.86 193.89 396.65 192.92 397.35 191.91 Z" />
<path fill="#a1539b" opacity="1.00" d=" M 380.84 198.86 C 380.32 197.28 380.97 195.12 382.77 194.78 C 384.62 197.54 384.78 200.97 385.37 204.14 C 385.50 205.73 386.22 207.55 384.92 208.86 C 384.65 208.92 384.11 209.04 383.84 209.10 C 382.69 205.73 381.56 202.35 380.84 198.86 Z" />
<path fill="#a1539b" opacity="1.00" d=" M 402.75 213.68 C 402.67 209.03 403.98 204.48 405.79 200.23 C 407.41 201.05 410.08 201.60 408.97 204.05 C 407.39 207.52 405.70 211.14 402.75 213.68 Z" />
<path fill="#a1539b" opacity="1.00" d=" M 386.04 210.90 C 392.25 210.01 399.87 211.97 402.85 217.98 C 403.29 222.65 402.50 227.49 400.73 231.83 C 398.86 235.67 393.79 235.83 390.10 235.47 C 385.21 235.09 382.69 230.37 378.62 228.35 C 375.43 226.72 372.16 225.19 369.39 222.88 C 370.20 221.91 370.98 220.91 371.92 220.06 C 376.27 218.86 376.89 225.78 381.03 225.35 C 383.72 224.46 385.16 221.61 385.91 219.06 C 385.45 216.44 382.90 212.79 386.04 210.90 Z" />
<path fill="#a1539b" opacity="1.00" d=" M 338.52 221.04 C 338.67 219.90 340.16 219.67 340.85 218.94 C 341.28 223.15 341.61 228.53 338.17 231.56 C 338.22 228.05 338.14 224.53 338.52 221.04 Z" />
<path fill="#a1539b" opacity="1.00" d=" M 333.19 220.41 C 333.76 221.38 335.40 222.06 335.12 223.40 C 334.74 226.11 334.54 228.83 334.76 231.57 C 331.84 230.76 332.47 227.34 332.11 225.04 C 331.81 223.38 332.54 221.86 333.19 220.41 Z" />
<path fill="#a1539b" opacity="1.00" d=" M 329.09 238.95 C 332.39 234.59 338.57 233.47 343.68 234.33 C 344.96 236.20 343.46 238.17 343.17 240.10 C 343.68 242.31 345.49 244.66 347.95 244.69 C 350.27 243.73 351.55 241.10 354.09 240.57 C 355.10 241.26 356.06 242.03 356.98 242.86 C 353.27 245.39 348.74 246.45 345.26 249.34 C 343.24 251.02 340.73 252.15 338.05 252.06 C 335.26 252.06 331.54 251.73 330.39 248.68 C 329.23 245.63 328.39 242.19 329.09 238.95 Z" />
</g>
<g id="#a1549bff">
<path fill="#a1549b" opacity="1.00" d=" M 414.63 111.58 C 415.02 107.55 414.69 102.98 417.44 99.69 C 418.64 103.78 417.08 108.03 415.17 111.65 C 415.70 113.80 415.11 115.93 414.80 118.07 C 415.07 120.08 416.76 121.42 418.05 122.82 C 419.76 121.39 421.17 119.63 422.92 118.25 C 424.33 118.38 424.86 119.81 425.70 120.74 C 422.29 122.97 418.52 124.71 415.62 127.65 C 412.95 130.32 407.77 130.58 405.18 127.74 C 403.46 124.49 403.09 120.60 403.32 116.98 C 405.16 112.58 410.37 111.61 414.63 111.58 Z" />
</g>
<g id="#96bb4bf5">
<path fill="#96bb4b" opacity="0.96" d=" M 366.09 101.86 C 368.82 105.09 369.52 109.98 368.90 114.00 C 368.60 113.94 368.01 113.82 367.72 113.76 C 366.49 109.97 363.95 105.78 366.09 101.86 Z" />
</g>
<g id="#a1549cff">
<path fill="#a1549c" opacity="1.00" d=" M 464.31 105.43 C 466.06 104.25 466.56 106.62 466.87 107.88 C 466.78 111.51 466.69 115.23 465.68 118.74 C 465.19 118.90 464.20 119.23 463.70 119.40 C 463.54 116.89 464.04 114.37 463.59 111.87 C 463.43 109.71 462.34 107.09 464.31 105.43 Z" />
<path fill="#a1549c" opacity="1.00" d=" M 448.42 110.02 C 448.78 109.18 449.51 107.50 449.87 106.67 C 452.45 109.54 452.55 113.52 453.19 117.13 C 453.34 118.70 453.92 120.43 452.88 121.84 C 452.60 121.80 452.03 121.72 451.75 121.69 C 450.28 117.92 448.98 114.03 448.42 110.02 Z" />
<path fill="#a1549c" opacity="1.00" d=" M 431.49 160.38 C 432.37 159.79 433.25 159.20 434.15 158.62 C 435.48 161.70 434.39 165.05 433.78 168.16 C 433.79 169.77 432.18 170.31 431.13 171.14 C 431.25 167.55 431.40 163.97 431.49 160.38 Z" />
<path fill="#a1549c" opacity="1.00" d=" M 424.68 170.40 C 424.43 166.92 422.57 162.76 425.78 160.10 C 429.12 162.96 426.32 167.42 427.12 171.12 C 426.51 170.94 425.29 170.58 424.68 170.40 Z" />
<path fill="#a1549c" opacity="1.00" d=" M 420.15 178.89 C 424.22 174.33 431.04 173.33 436.82 174.10 C 437.47 174.65 438.09 175.24 438.69 175.87 C 438.20 177.25 437.51 178.55 437.09 179.96 C 438.01 182.00 439.68 183.93 441.98 184.37 C 445.60 184.75 447.27 179.59 451.01 180.59 C 451.90 181.24 452.76 181.93 453.59 182.68 C 450.72 184.28 447.61 185.35 444.55 186.49 C 440.58 187.92 437.48 191.42 433.08 191.66 C 429.55 191.83 425.25 192.13 422.54 189.43 C 420.51 186.39 419.71 182.50 420.15 178.89 Z" />
<path fill="#a1549c" opacity="1.00" d=" M 343.23 232.85 C 343.40 229.20 343.67 225.01 346.30 222.17 C 346.62 222.84 347.27 224.18 347.60 224.85 C 346.69 227.67 345.94 230.59 344.47 233.20 C 344.16 233.11 343.54 232.94 343.23 232.85 Z" />
<path fill="#a1549c" opacity="1.00" d=" M 323.67 228.94 C 323.45 227.11 325.71 227.21 326.83 226.65 C 327.96 229.83 329.05 233.08 329.08 236.50 C 326.82 234.35 324.94 231.79 323.67 228.94 Z" />
</g>
<g id="#a32b30ff">
<path fill="#a32b30" opacity="1.00" d=" M 138.88 224.98 C 138.38 222.85 139.27 220.99 140.71 219.49 C 143.14 223.34 140.81 227.96 141.58 232.18 C 138.46 231.24 139.34 227.47 138.88 224.98 Z" />
</g>
<g id="#262424ff">
<path fill="#262424" opacity="1.00" d=" M 173.95 392.48 C 181.35 390.83 188.96 391.33 196.48 391.18 C 212.24 390.27 227.51 397.57 238.36 408.72 C 247.39 398.60 260.58 392.07 274.13 391.24 C 284.05 391.41 294.12 390.49 303.87 392.78 C 333.98 399.06 364.48 403.18 394.91 407.46 C 396.21 410.88 396.53 414.59 397.60 418.09 C 398.92 423.08 401.27 427.72 404.08 432.03 C 410.01 432.58 416.00 432.64 421.90 433.51 C 428.26 434.51 432.35 441.95 429.98 447.90 C 428.37 452.79 423.06 455.73 418.03 455.03 C 373.45 451.72 328.87 448.37 284.29 445.05 C 282.80 447.25 281.36 449.51 279.57 451.50 C 270.73 462.01 256.96 466.81 243.62 468.00 L 232.30 468.00 C 222.09 467.26 211.75 464.68 203.26 458.74 C 198.03 455.23 193.82 450.42 190.52 445.09 C 146.01 448.31 101.51 451.72 57.00 455.01 C 51.71 455.81 45.99 452.63 44.63 447.32 C 42.93 441.83 46.10 435.29 51.76 433.77 C 58.38 432.31 65.27 432.99 71.92 431.74 C 77.83 425.07 79.26 415.77 81.12 407.32 C 112.22 403.45 143.24 398.78 173.95 392.48 M 174.14 405.25 C 153.69 409.42 133.08 412.79 112.41 415.73 C 110.97 415.78 109.91 416.80 109.04 417.84 L 109.17 417.15 L 108.89 416.47 C 103.11 416.85 97.41 418.01 91.64 418.63 C 90.49 422.73 89.13 426.78 87.51 430.72 C 122.01 428.22 156.52 425.60 191.02 423.04 C 195.27 422.48 199.57 422.38 203.66 423.86 C 208.67 427.67 208.37 434.87 213.21 438.79 C 219.83 444.90 229.32 446.24 237.99 446.15 C 246.53 446.11 255.90 444.50 262.17 438.19 C 266.04 434.59 266.31 428.88 269.59 424.86 C 272.26 423.82 274.88 422.20 277.89 422.62 C 288.91 423.40 299.94 424.31 310.97 425.06 C 336.92 426.98 362.87 428.95 388.82 430.90 C 387.19 426.89 385.79 422.78 384.61 418.61 C 379.17 417.93 373.73 417.17 368.30 416.42 C 345.79 413.12 323.30 409.62 301.02 405.00 C 288.50 402.27 275.02 402.00 262.94 406.74 C 255.00 409.79 247.87 415.43 244.26 423.27 L 244.63 423.52 L 244.36 423.35 C 244.03 425.52 244.54 428.07 242.95 429.84 C 240.75 432.66 236.16 432.91 233.71 430.29 C 231.37 428.26 232.48 424.71 231.29 422.28 C 228.35 415.29 221.69 410.47 214.93 407.42 C 202.12 401.83 187.54 402.20 174.14 405.25 Z" />
</g>
<g id="#ffffffff">
<path fill="#ffffff" opacity="1.00" d=" M 174.14 405.25 C 187.54 402.20 202.12 401.83 214.93 407.42 C 221.69 410.47 228.35 415.29 231.29 422.28 C 231.33 422.82 231.41 423.89 231.45 424.43 C 222.19 424.09 212.91 424.28 203.66 423.86 C 199.57 422.38 195.27 422.48 191.02 423.04 C 184.69 423.46 178.35 423.66 172.02 423.51 C 149.75 423.19 127.49 422.80 105.22 422.56 C 106.56 421.05 107.74 419.38 109.04 417.84 C 109.91 416.80 110.97 415.78 112.41 415.73 C 133.08 412.79 153.69 409.42 174.14 405.25 Z" />
<path fill="#ffffff" opacity="1.00" d=" M 262.94 406.74 C 275.02 402.00 288.50 402.27 301.02 405.00 C 323.30 409.62 345.79 413.12 368.30 416.42 C 367.45 419.72 366.63 423.03 365.82 426.34 C 347.53 426.07 329.24 425.99 310.97 425.06 C 299.94 424.31 288.91 423.40 277.89 422.62 C 274.88 422.20 272.26 423.82 269.59 424.86 C 261.79 424.95 253.99 424.63 246.19 424.60 C 245.80 424.33 245.02 423.79 244.63 423.52 L 244.26 423.27 C 247.87 415.43 255.00 409.79 262.94 406.74 Z" />
</g>
</svg>
