<?xml version="1.0" encoding="iso-8859-1"?>
<!-- Generator: Adobe Illustrator 16.0.0, SVG Export Plug-In . SVG Version: 6.00 Build 0)  -->
<!DOCTYPE svg PUBLIC "-//W3C//DTD SVG 1.1//EN" "http://www.w3.org/Graphics/SVG/1.1/DTD/svg11.dtd">
<svg xmlns="http://www.w3.org/2000/svg" xmlns:xlink="http://www.w3.org/1999/xlink" version="1.1" id="Capa_1" x="0px" y="0px" width="512px" height="512px" viewBox="0 0 295.142 295.142" style="enable-background:new 0 0 295.142 295.142;" xml:space="preserve">
<g>
	<g>
		<g>
			<path d="M262.736,172.28c0-15.912,2.448-37.334-14.075-46.514c-3.673-1.836-8.567-3.06-14.075-3.06     c8.566-50.185-30.602-118.116-84.456-122.4c-64.874-5.508-94.25,64.26-94.25,118.729c-4.284,0-8.568,0-12.852,0     c-6.732,0-7.956,7.956-4.896,11.628l0,0c-3.672,37.333-3.672,75.888-4.284,113.22c-0.612,15.912-6.732,36.721,9.18,45.9     c9.18,4.896,26.316,2.448,36.108,3.06c17.748,1.226,35.496,1.836,53.244,1.836c39.168,0.612,78.949,1.226,118.118-2.447     c1.836,0,3.06-1.225,3.672-3.061c3.06,0,5.508-1.836,6.119-5.508C262.736,246.944,263.348,209.612,262.736,172.28z      M137.888,11.936c53.856-3.672,94.249,61.812,86.292,110.772c-6.12,0-11.628,0.611-16.524,0.611     c-17.136-0.611-34.884-1.224-52.02-1.836c-20.197-0.611-40.393-1.224-59.977-1.836c2.448-28.764,19.584-69.155,52.632-72.828     c40.393-4.283,47.125,39.78,45.288,70.381c-0.611,6.731,10.403,6.731,10.403,0c1.836-34.885-8.566-84.456-53.244-81.396     c-38.556,3.06-64.872,47.736-61.812,83.844c-8.568,0-17.136-0.611-26.316,0C68.12,74.359,84.643,15.607,137.888,11.936z      M249.884,283.052c-55.08,0.612-109.549,2.448-164.628,0c-17.748-1.224-33.048-2.447-41.616-20.808     c-4.896-10.404,0.612-36.108,0.612-47.736c0-26.928,1.224-54.468-0.612-81.396c53.244-1.836,105.876,1.837,159.121,3.673     c16.522,0.611,36.106,1.836,45.899,18.36c4.896,8.567,0.611,36.721,0.611,47.124     C249.272,228.584,249.272,256.124,249.884,283.052z" fill="#006aaa"/>
			<path d="M175.22,238.988c-4.896-9.181-9.792-18.974-14.688-28.152c1.226-0.611,2.448-1.836,3.673-2.448     c11.629-10.402,7.956-31.212-6.731-36.72c-5.508-1.836-11.017-1.224-15.913,0.612c-4.896-0.612-9.792,1.836-14.076,5.508     c-5.508,5.508-7.344,13.464-4.896,20.808c1.836,6.732,7.344,11.629,13.464,14.076c-5.508,7.956-9.18,17.137-15.3,24.48     c-4.284,6.12-1.836,15.3,6.12,15.3c13.464,0,26.929,0,40.393,0C173.998,253.063,178.28,245.108,175.22,238.988z" fill="#006aaa"/>
		</g>
	</g>
</g>
<g>
</g>
<g>
</g>
<g>
</g>
<g>
</g>
<g>
</g>
<g>
</g>
<g>
</g>
<g>
</g>
<g>
</g>
<g>
</g>
<g>
</g>
<g>
</g>
<g>
</g>
<g>
</g>
<g>
</g>
</svg>
