<?xml version="1.0" encoding="UTF-8" ?>
<!DOCTYPE svg PUBLIC "-//W3C//DTD SVG 1.1//EN" "http://www.w3.org/Graphics/SVG/1.1/DTD/svg11.dtd">
<svg width="1174pt" height="468pt" viewBox="0 0 1174 468" version="1.1" xmlns="http://www.w3.org/2000/svg">
<g id="#dd9031ff">
<path fill="#dd9031" opacity="1.00" d=" M 272.87 0.00 L 274.14 0.00 C 275.04 1.13 276.06 2.32 275.92 3.88 C 276.10 7.87 276.16 11.87 276.14 15.87 C 272.11 11.78 272.75 5.30 272.87 0.00 Z" />
<path fill="#dd9031" opacity="1.00" d=" M 281.39 1.72 C 284.75 4.99 282.83 9.88 282.54 13.94 C 282.66 15.43 279.19 16.33 280.18 14.02 C 281.14 9.85 278.03 5.21 281.39 1.72 Z" />
<path fill="#dd9031" opacity="1.00" d=" M 268.74 18.06 C 267.28 13.57 263.59 8.29 266.76 3.81 C 268.95 6.33 269.32 9.70 269.85 12.86 C 269.96 14.49 270.69 16.26 269.84 17.80 C 269.56 17.87 269.01 17.99 268.74 18.06 Z" />
<path fill="#dd9031" opacity="1.00" d=" M 286.85 21.98 C 286.99 17.82 287.67 13.41 289.89 9.82 C 291.07 10.10 292.24 10.42 293.41 10.78 C 292.44 15.04 290.07 19.02 286.85 21.98 Z" />
<path fill="#dd9031" opacity="1.00" d=" M 270.22 19.04 C 275.56 18.88 281.55 19.48 285.43 23.61 C 288.02 25.67 287.02 29.33 286.74 32.15 C 286.08 35.21 285.70 39.00 282.76 40.78 C 279.77 42.24 276.21 42.29 273.01 41.60 C 269.22 40.71 266.99 37.15 263.59 35.51 C 260.36 33.88 256.94 32.54 254.18 30.13 C 255.09 29.24 256.05 28.40 257.06 27.62 C 260.75 27.09 261.66 32.20 265.02 32.59 C 267.87 32.38 269.45 29.45 270.35 27.07 C 269.99 24.34 267.81 21.50 270.22 19.04 Z" />
<path fill="#dd9031" opacity="1.00" d=" M 305.97 34.26 C 306.77 35.46 308.43 36.37 308.30 38.01 C 308.50 42.11 308.55 46.23 308.58 50.34 C 308.07 49.89 307.05 48.98 306.54 48.53 C 305.70 43.90 303.99 38.81 305.97 34.26 Z" />
<path fill="#dd9031" opacity="1.00" d=" M 312.19 40.87 C 311.66 39.29 312.70 36.64 314.69 37.29 C 316.90 40.80 315.14 45.26 314.83 49.10 C 314.30 49.51 313.24 50.34 312.71 50.75 C 312.70 47.44 312.78 44.14 312.19 40.87 Z" />
<path fill="#dd9031" opacity="1.00" d=" M 298.99 47.08 C 298.29 44.51 296.31 40.52 299.62 39.01 C 302.02 42.98 302.76 48.12 302.29 52.66 C 299.79 52.22 299.92 48.96 298.99 47.08 Z" />
<path fill="#dd9031" opacity="1.00" d=" M 321.95 44.78 C 323.53 44.31 325.98 44.96 325.59 47.06 C 324.00 50.48 322.40 54.31 319.15 56.49 C 319.36 52.46 320.31 48.46 321.95 44.78 Z" />
<path fill="#dd9031" opacity="1.00" d=" M 248.80 49.07 C 248.58 47.11 250.63 46.42 251.87 45.44 C 253.55 49.79 251.93 54.45 251.32 58.87 C 251.36 60.75 249.73 61.65 248.40 62.59 C 248.50 58.08 248.59 53.57 248.80 49.07 Z" />
<path fill="#dd9031" opacity="1.00" d=" M 240.06 52.02 C 239.61 50.10 241.37 48.95 242.42 47.66 C 243.01 49.04 244.83 50.22 244.32 51.90 C 243.61 55.23 243.39 58.60 243.82 61.98 L 242.98 62.57 C 242.55 62.36 241.70 61.95 241.27 61.74 C 240.43 58.57 240.28 55.27 240.06 52.02 Z" />
<path fill="#dd9031" opacity="1.00" d=" M 255.38 63.55 C 256.03 58.93 256.15 53.78 259.22 49.97 C 259.95 50.98 260.69 51.98 261.42 53.00 C 260.36 57.15 259.07 61.26 257.30 65.17 C 257.00 65.09 256.41 64.92 256.11 64.84 C 255.93 64.52 255.56 63.87 255.38 63.55 Z" />
<path fill="#dd9031" opacity="1.00" d=" M 302.70 53.78 C 307.98 53.58 313.92 54.18 317.78 58.24 C 320.44 60.31 319.46 64.00 319.15 66.87 C 318.48 69.84 318.14 73.52 315.37 75.36 C 312.38 76.93 308.77 77.00 305.53 76.32 C 301.68 75.45 299.40 71.87 295.98 70.19 C 292.73 68.54 289.17 67.29 286.59 64.59 C 287.93 63.78 289.06 61.86 290.88 62.35 C 293.42 63.21 294.33 66.43 296.93 67.25 C 299.45 67.59 301.15 65.20 302.17 63.24 C 304.07 60.19 299.40 56.45 302.70 53.78 Z" />
<path fill="#dd9031" opacity="1.00" d=" M 228.86 59.88 C 227.33 57.19 230.67 56.86 232.40 56.01 C 234.52 60.16 236.01 64.76 235.96 69.46 C 232.65 67.11 230.77 63.35 228.86 59.88 Z" />
<path fill="#dd9031" opacity="1.00" d=" M 236.15 72.98 C 240.46 67.33 248.28 65.75 255.00 66.73 C 256.38 67.00 256.79 68.72 256.98 69.91 C 256.39 71.97 254.37 74.12 255.76 76.29 C 256.98 78.65 259.04 81.43 262.06 81.05 C 265.37 80.32 266.39 75.72 269.97 75.67 C 271.84 75.47 272.96 77.27 273.75 78.68 C 269.24 82.55 262.89 83.26 258.50 87.33 C 253.97 91.76 246.81 92.30 241.09 90.15 C 237.72 88.73 237.04 84.70 236.26 81.54 C 235.84 78.75 235.04 75.69 236.15 72.98 Z" />
<path fill="#dd9031" opacity="1.00" d=" M 313.73 88.93 C 313.43 85.90 312.28 82.50 314.60 79.97 C 315.28 81.21 316.62 82.29 316.52 83.86 C 316.68 87.85 316.70 91.86 316.88 95.86 C 314.05 94.65 314.12 91.52 313.73 88.93 Z" />
<path fill="#dd9031" opacity="1.00" d=" M 320.32 86.02 C 319.85 84.44 321.58 83.38 322.13 82.11 C 325.28 85.34 323.45 89.99 323.23 93.93 C 323.33 95.28 321.80 95.54 320.93 96.14 C 320.77 92.76 320.96 89.36 320.32 86.02 Z" />
<path fill="#dd9031" opacity="1.00" d=" M 307.55 84.33 C 310.34 88.52 310.80 93.89 310.82 98.79 C 310.58 98.82 310.09 98.87 309.85 98.90 C 307.54 95.36 306.78 91.10 305.69 87.07 C 306.16 86.39 307.08 85.01 307.55 84.33 Z" />
<path fill="#dd9031" opacity="1.00" d=" M 330.20 90.08 C 331.46 90.43 332.72 90.81 333.97 91.22 C 333.09 95.47 330.63 99.37 327.50 102.31 C 327.33 98.07 328.76 94.00 330.20 90.08 Z" />
<path fill="#dd9031" opacity="1.00" d=" M 311.01 99.87 C 316.96 98.60 324.26 100.53 327.55 105.98 C 328.08 110.26 327.24 114.69 325.63 118.66 C 323.76 122.51 318.71 122.59 315.03 122.23 C 310.26 121.87 307.66 117.32 303.55 115.52 C 300.55 114.11 297.53 112.70 294.86 110.71 C 296.04 109.60 296.97 107.50 298.94 107.96 C 301.80 108.79 302.74 112.84 305.94 112.97 C 308.70 112.39 310.34 109.56 311.01 107.02 C 310.60 104.68 308.08 101.50 311.01 99.87 Z" />
<path fill="#dd9031" opacity="1.00" d=" M 275.04 110.86 C 274.99 109.31 276.69 108.63 277.54 107.58 C 277.92 108.19 278.69 109.42 279.07 110.03 C 278.53 114.31 278.28 118.68 277.06 122.82 C 276.43 123.26 275.17 124.15 274.54 124.59 C 274.82 120.01 274.79 115.43 275.04 110.86 Z" />
<path fill="#dd9031" opacity="1.00" d=" M 266.27 113.94 C 265.97 112.16 267.66 111.03 268.55 109.73 C 271.90 112.47 269.87 116.39 269.77 119.96 C 269.30 121.34 271.48 124.74 268.94 124.48 C 268.56 124.30 267.79 123.93 267.41 123.75 C 266.72 120.53 266.47 117.22 266.27 113.94 Z" />
<path fill="#dd9031" opacity="1.00" d=" M 281.46 128.42 C 282.06 122.93 281.79 116.59 285.56 112.13 C 286.08 112.87 287.11 114.35 287.63 115.09 C 286.01 119.64 285.82 125.54 281.46 128.42 Z" />
<path fill="#dd9031" opacity="1.00" d=" M 254.95 119.40 C 255.86 119.11 257.70 118.52 258.61 118.22 C 260.90 122.28 262.13 126.94 262.20 131.60 C 258.68 128.50 255.16 124.25 254.95 119.40 Z" />
<path fill="#dd9031" opacity="1.00" d=" M 262.27 135.19 C 266.75 129.04 274.94 128.26 281.96 128.43 C 282.42 129.58 282.81 130.76 283.15 131.97 C 282.68 133.67 281.52 135.20 281.46 137.00 C 282.48 139.85 284.60 143.25 288.02 143.20 C 291.41 142.60 292.49 138.16 295.94 137.74 C 297.96 137.45 298.99 139.54 300.26 140.70 C 295.48 144.48 289.08 145.43 284.55 149.58 C 280.06 153.86 273.13 154.30 267.50 152.34 C 264.29 151.10 263.40 147.44 262.67 144.46 C 262.09 141.44 261.34 138.20 262.27 135.19 Z" />
<path fill="#dd9031" opacity="1.00" d=" M 238.27 165.15 C 237.86 162.29 237.28 159.30 238.81 156.64 C 239.32 157.24 240.36 158.44 240.87 159.04 C 241.44 163.55 241.21 168.13 241.42 172.68 C 238.52 171.24 238.75 167.87 238.27 165.15 Z" />
<path fill="#dd9031" opacity="1.00" d=" M 244.95 162.92 C 244.33 161.21 246.24 160.11 246.89 158.79 C 250.03 162.68 247.76 167.75 247.63 172.20 C 246.87 172.27 246.12 172.31 245.37 172.34 C 245.58 169.18 245.53 166.04 244.95 162.92 Z" />
<path fill="#dd9031" opacity="1.00" d=" M 230.30 164.00 C 230.73 163.25 231.59 161.75 232.02 160.99 C 234.84 164.47 234.87 169.19 235.47 173.43 C 235.32 173.77 235.02 174.46 234.86 174.81 C 234.58 174.81 234.02 174.80 233.74 174.80 C 232.23 171.33 231.25 167.66 230.30 164.00 Z" />
<path fill="#dd9031" opacity="1.00" d=" M 254.91 166.56 C 256.43 167.28 259.24 167.57 258.16 169.99 C 256.64 173.27 254.92 176.67 252.01 178.96 C 251.97 174.65 253.39 170.53 254.91 166.56 Z" />
<path fill="#dd9031" opacity="1.00" d=" M 234.63 177.54 C 235.39 176.60 236.59 175.53 237.93 176.05 C 242.65 176.21 247.71 177.28 250.96 181.00 C 253.17 183.08 252.20 186.40 251.97 189.04 C 251.28 192.35 250.84 196.75 247.24 198.19 C 242.60 199.83 236.84 199.42 233.23 195.77 C 229.34 191.98 223.85 190.74 219.54 187.57 C 220.32 186.58 220.98 185.46 222.03 184.72 C 226.11 183.80 227.00 190.14 230.95 189.59 C 233.43 188.82 234.82 186.25 235.61 183.94 C 235.51 181.77 233.21 179.64 234.63 177.54 Z" />
</g>
<g id="#f3eb3eff">
<path fill="#f3eb3e" opacity="1.00" d=" M 192.25 27.87 C 191.95 23.39 189.75 18.33 192.94 14.39 C 194.17 15.78 196.30 16.85 196.17 19.00 C 196.33 25.08 196.42 31.17 196.74 37.25 C 192.26 36.27 193.00 31.30 192.25 27.87 Z" />
<path fill="#f3eb3e" opacity="1.00" d=" M 182.52 20.68 C 183.92 22.18 185.61 23.66 185.82 25.84 C 186.70 31.11 188.28 36.46 187.84 41.82 C 186.19 42.46 185.29 40.29 184.66 39.14 C 182.94 34.53 181.38 29.82 180.51 24.97 C 181.02 23.47 181.81 22.09 182.52 20.68 Z" />
<path fill="#f3eb3e" opacity="1.00" d=" M 127.08 31.87 C 126.72 29.69 128.70 28.57 130.03 27.27 C 130.46 27.98 131.34 29.40 131.77 30.12 C 131.25 35.06 130.75 40.02 129.70 44.88 C 129.43 46.36 127.57 46.69 126.60 47.57 C 126.84 42.34 127.03 37.11 127.08 31.87 Z" />
<path fill="#f3eb3e" opacity="1.00" d=" M 215.63 30.86 C 216.48 27.81 219.79 29.99 221.61 30.69 C 221.86 34.49 219.32 37.44 217.60 40.56 C 216.25 42.87 214.98 45.46 212.35 46.53 C 212.10 41.12 214.03 35.94 215.63 30.86 Z" />
<path fill="#f3eb3e" opacity="1.00" d=" M 117.18 36.06 C 116.46 33.59 118.01 31.64 119.56 29.95 C 120.59 31.49 122.79 32.84 122.03 35.00 C 121.45 38.68 120.32 42.51 121.84 46.13 C 121.40 46.59 120.53 47.52 120.09 47.98 C 116.58 45.15 118.04 39.99 117.18 36.06 Z" />
<path fill="#f3eb3e" opacity="1.00" d=" M 135.61 42.12 C 136.19 38.70 136.58 34.89 139.63 32.71 C 140.28 34.40 141.89 36.07 141.14 38.01 C 139.91 42.44 138.90 47.08 136.46 51.03 C 136.13 50.98 135.47 50.89 135.14 50.85 C 133.80 48.11 135.44 45.00 135.61 42.12 Z" />
<path fill="#f3eb3e" opacity="1.00" d=" M 104.38 41.42 C 105.77 40.69 108.41 39.33 109.27 41.42 C 110.87 46.05 112.69 50.85 112.33 55.84 C 109.33 54.03 107.97 50.70 106.13 47.90 C 104.94 45.97 103.34 43.80 104.38 41.42 Z" />
<path fill="#f3eb3e" opacity="1.00" d=" M 188.11 42.95 C 196.95 42.16 207.56 44.24 212.42 52.47 C 213.33 58.02 211.99 63.68 210.50 69.01 C 209.69 72.04 207.60 74.88 204.44 75.70 C 199.19 77.18 193.21 77.28 188.31 74.62 C 185.36 73.04 183.31 70.27 180.51 68.47 C 175.38 65.07 168.97 63.74 164.56 59.22 C 166.10 57.69 167.34 54.96 169.94 55.43 C 174.52 55.94 175.33 62.23 179.90 62.82 C 183.77 62.92 186.12 59.08 187.56 55.99 C 189.12 53.15 186.83 50.53 185.89 47.96 C 185.79 46.10 186.76 44.18 188.11 42.95 Z" />
<path fill="#f3eb3e" opacity="1.00" d=" M 112.27 60.96 C 116.74 53.52 126.90 51.19 134.90 52.82 C 136.41 54.36 137.12 56.80 135.67 58.63 C 132.72 62.79 136.68 68.55 140.91 69.90 C 145.77 70.53 146.67 63.71 151.15 63.42 C 153.44 63.07 154.57 65.42 155.93 66.80 C 150.85 71.63 143.29 72.43 138.28 77.36 C 134.85 80.88 129.91 82.58 125.03 82.17 C 121.22 81.99 116.43 81.18 114.78 77.19 C 112.82 72.07 111.59 66.45 112.27 60.96 Z" />
<path fill="#f3eb3e" opacity="1.00" d=" M 164.54 89.08 C 164.17 86.63 163.72 84.05 164.99 81.75 C 165.50 82.31 166.51 83.43 167.02 83.99 C 167.41 87.91 167.32 91.86 167.43 95.80 C 164.80 94.51 164.98 91.52 164.54 89.08 Z" />
<path fill="#f3eb3e" opacity="1.00" d=" M 170.60 86.05 C 171.24 85.22 171.92 84.42 172.64 83.65 C 174.93 87.02 173.67 91.24 173.05 94.94 C 172.53 95.16 171.48 95.62 170.96 95.84 C 171.59 92.56 170.90 89.31 170.60 86.05 Z" />
<path fill="#f3eb3e" opacity="1.00" d=" M 158.35 85.57 C 161.91 88.35 161.67 93.76 161.84 97.80 C 161.57 97.88 161.04 98.03 160.77 98.10 C 159.20 94.20 156.34 89.80 158.35 85.57 Z" />
<path fill="#f3eb3e" opacity="1.00" d=" M 179.48 91.26 C 180.40 90.33 181.82 91.36 182.92 91.33 C 182.79 95.37 179.83 98.61 177.20 101.39 C 177.14 97.89 178.07 94.44 179.48 91.26 Z" />
<path fill="#f3eb3e" opacity="1.00" d=" M 162.11 98.93 C 166.99 98.39 172.50 99.23 176.07 102.89 C 178.20 104.58 177.33 107.61 177.12 109.92 C 176.49 112.77 176.08 116.57 172.99 117.86 C 168.72 119.41 163.43 119.10 159.99 115.87 C 156.34 112.53 151.32 111.49 147.37 108.60 C 148.22 107.75 148.91 106.68 150.02 106.14 C 153.54 105.79 154.46 111.05 158.03 110.48 C 160.48 109.35 163.01 106.27 161.53 103.51 C 160.69 101.97 160.41 100.01 162.11 98.93 Z" />
<path fill="#f3eb3e" opacity="1.00" d=" M 217.34 102.02 C 217.37 100.43 218.98 99.63 220.06 98.76 C 221.30 99.76 222.16 101.37 221.77 103.00 C 221.24 107.62 220.80 112.27 219.65 116.78 C 218.74 117.54 217.77 118.20 216.73 118.76 C 217.10 113.19 217.02 107.59 217.34 102.02 Z" />
<path fill="#f3eb3e" opacity="1.00" d=" M 207.26 105.97 C 206.90 103.95 208.73 102.64 209.72 101.14 C 210.61 102.34 211.76 103.41 212.34 104.82 C 212.15 107.57 211.35 110.24 211.16 112.99 C 211.05 114.92 212.57 117.16 211.03 118.82 C 210.16 118.57 209.31 118.30 208.46 118.00 C 207.94 114.01 207.48 110.00 207.26 105.97 Z" />
<path fill="#f3eb3e" opacity="1.00" d=" M 229.55 103.91 C 230.26 105.22 231.21 106.45 231.56 107.92 C 230.65 112.28 229.30 116.56 227.59 120.66 C 226.99 121.53 226.49 123.03 225.19 122.79 C 224.10 119.98 225.37 116.93 225.64 114.06 C 226.30 110.46 226.58 106.46 229.55 103.91 Z" />
<path fill="#f3eb3e" opacity="1.00" d=" M 194.02 112.85 C 195.62 112.30 197.25 111.11 199.00 111.78 C 200.93 116.61 202.83 121.78 202.45 127.07 C 199.20 125.00 197.80 121.27 195.73 118.20 C 194.57 116.64 194.17 114.75 194.02 112.85 Z" />
<path fill="#f3eb3e" opacity="1.00" d=" M 202.72 131.53 C 207.61 124.65 217.01 122.63 224.91 123.89 C 228.15 126.50 225.67 129.99 224.61 132.95 C 225.19 136.36 227.46 140.02 230.92 141.08 C 236.08 141.97 236.99 134.21 241.98 134.63 C 243.94 134.72 244.81 136.88 246.11 138.04 C 242.27 141.65 237.08 143.00 232.59 145.53 C 228.97 147.47 226.51 151.14 222.52 152.44 C 218.12 153.89 213.18 153.73 208.83 152.17 C 205.02 150.76 204.04 146.39 203.21 142.88 C 202.50 139.19 201.56 135.19 202.72 131.53 Z" />
<path fill="#f3eb3e" opacity="1.00" d=" M 186.09 176.78 C 186.97 177.79 188.60 178.50 188.47 180.07 C 188.62 183.61 188.65 187.16 188.81 190.71 C 187.94 189.91 186.55 189.37 186.52 188.00 C 185.97 184.32 184.74 180.43 186.09 176.78 Z" />
<path fill="#f3eb3e" opacity="1.00" d=" M 178.71 183.00 C 178.82 181.34 181.13 180.20 181.50 182.38 C 182.36 185.69 183.89 189.47 182.84 192.83 C 182.58 192.81 182.07 192.78 181.81 192.77 C 180.45 189.64 179.24 186.38 178.71 183.00 Z" />
<path fill="#f3eb3e" opacity="1.00" d=" M 183.13 193.99 C 188.61 193.12 195.31 194.45 198.57 199.39 C 199.07 203.19 198.28 207.18 196.71 210.67 C 195.26 213.37 191.77 213.63 189.05 213.70 C 186.14 213.81 183.31 212.71 181.18 210.74 C 177.55 207.43 172.54 206.44 168.63 203.55 C 169.70 202.68 170.44 200.99 172.03 201.09 C 174.95 201.49 175.84 205.61 178.97 205.51 C 181.32 204.82 183.06 202.46 183.38 200.11 C 182.84 198.09 181.07 195.78 183.13 193.99 Z" />
</g>
<g id="#f3eb3dff">
<path fill="#f3eb3d" opacity="1.00" d=" M 201.73 21.06 C 202.57 19.78 203.65 18.69 204.68 17.55 C 208.35 20.84 206.93 25.74 206.62 30.03 C 206.25 32.83 206.68 36.28 203.79 37.90 C 203.17 37.18 202.56 36.45 201.95 35.72 C 204.23 30.95 201.51 25.96 201.73 21.06 Z" />
<path fill="#f3eb3d" opacity="1.00" d=" M 193.76 178.78 C 196.45 181.93 194.86 186.29 194.38 189.97 C 193.83 190.14 192.75 190.50 192.20 190.67 C 192.82 187.43 192.39 184.18 191.76 180.99 C 192.26 180.44 193.26 179.33 193.76 178.78 Z" />
<path fill="#f3eb3d" opacity="1.00" d=" M 198.51 196.34 C 198.33 192.56 199.75 189.02 200.94 185.52 C 202.30 186.01 204.32 185.99 204.33 187.94 C 202.86 191.02 201.09 194.05 198.51 196.34 Z" />
</g>
<g id="#9cc24eff">
<path fill="#9cc24e" opacity="1.00" d=" M 396.33 39.85 C 396.14 38.15 397.78 37.28 399.02 36.54 C 399.32 37.13 399.94 38.31 400.24 38.90 C 400.09 42.97 399.44 47.03 398.56 51.01 C 398.25 52.28 396.64 52.63 395.84 53.49 C 396.12 48.94 396.10 44.39 396.33 39.85 Z" />
<path fill="#9cc24e" opacity="1.00" d=" M 389.35 38.53 C 390.49 39.83 392.62 40.96 391.80 43.02 C 390.96 46.34 391.23 49.72 391.26 53.08 C 389.88 54.16 388.34 52.32 388.39 51.00 C 388.10 46.84 386.29 42.10 389.35 38.53 Z" />
<path fill="#9cc24e" opacity="1.00" d=" M 403.19 55.84 C 402.94 50.81 403.57 44.90 406.96 40.84 C 407.61 41.91 408.27 42.99 408.93 44.07 C 407.69 48.19 406.76 52.53 404.48 56.23 C 404.16 56.14 403.51 55.94 403.19 55.84 Z" />
<path fill="#9cc24e" opacity="1.00" d=" M 348.96 47.87 C 348.20 46.68 351.06 44.97 351.25 46.73 C 352.61 50.67 351.72 55.12 352.09 59.25 C 348.64 56.68 349.58 51.67 348.96 47.87 Z" />
<path fill="#9cc24e" opacity="1.00" d=" M 376.12 48.04 C 377.41 47.72 378.72 47.45 380.04 47.24 C 382.29 51.17 383.40 55.78 383.48 60.30 C 379.88 57.23 376.47 52.92 376.12 48.04 Z" />
<path fill="#9cc24e" opacity="1.00" d=" M 345.64 61.24 C 344.33 57.33 341.53 52.88 343.95 48.87 C 346.40 52.25 346.99 56.77 346.81 60.82 C 346.52 60.92 345.94 61.13 345.64 61.24 Z" />
<path fill="#9cc24e" opacity="1.00" d=" M 363.48 54.37 C 364.71 54.00 366.03 54.70 366.68 55.76 C 365.64 59.17 363.71 62.36 361.13 64.83 C 361.20 61.23 361.98 57.64 363.48 54.37 Z" />
<path fill="#9cc24e" opacity="1.00" d=" M 383.68 63.84 C 388.08 58.17 396.18 56.35 402.93 57.79 C 405.79 59.60 403.60 62.77 402.76 65.07 C 403.22 68.20 405.62 71.69 409.01 71.97 C 412.57 71.72 413.66 67.05 417.07 66.56 C 419.22 66.06 420.27 68.27 421.53 69.53 C 416.60 73.31 410.10 74.30 405.53 78.61 C 401.09 82.68 394.35 83.00 388.88 81.14 C 385.15 79.71 384.49 75.29 383.68 71.89 C 383.36 69.27 382.56 66.35 383.68 63.84 Z" />
<path fill="#9cc24e" opacity="1.00" d=" M 347.19 62.13 C 352.34 62.01 358.65 63.06 361.28 68.09 C 361.47 72.29 361.14 77.08 358.50 80.52 C 354.45 83.32 348.31 82.68 344.86 79.13 C 341.49 75.96 336.84 74.81 333.24 71.95 C 334.09 71.11 334.98 70.32 335.93 69.58 C 339.04 69.57 339.88 73.88 342.94 74.05 C 346.74 72.74 348.12 68.03 345.69 64.84 C 346.06 63.85 346.56 62.95 347.19 62.13 Z" />
<path fill="#9cc24e" opacity="1.00" d=" M 371.75 106.05 C 371.45 103.37 370.59 100.38 372.65 98.16 C 375.34 102.37 373.97 107.66 374.30 112.37 C 372.17 110.92 372.09 108.33 371.75 106.05 Z" />
<path fill="#9cc24e" opacity="1.00" d=" M 377.41 102.44 C 377.95 101.62 378.58 100.86 379.19 100.09 C 381.34 103.34 380.23 107.33 379.73 110.89 C 379.27 111.32 378.34 112.18 377.88 112.61 C 378.00 109.20 377.63 105.82 377.41 102.44 Z" />
<path fill="#9cc24e" opacity="1.00" d=" M 383.51 117.80 C 383.49 114.15 384.29 110.45 385.95 107.19 C 387.04 107.42 388.12 107.69 389.20 108.00 C 388.15 111.67 386.22 115.10 383.51 117.80 Z" />
<path fill="#9cc24e" opacity="1.00" d=" M 367.95 117.83 C 368.25 117.33 368.84 116.33 369.14 115.83 C 372.16 114.60 375.64 115.44 378.60 116.52 C 381.01 117.84 384.20 119.82 383.71 123.03 C 383.38 126.65 383.25 130.87 380.62 133.66 C 376.46 136.27 370.45 135.56 367.05 131.96 C 363.68 128.74 358.73 127.92 355.53 124.49 C 356.85 123.82 358.25 121.88 359.92 122.90 C 361.66 124.18 362.70 126.52 364.93 127.04 C 368.94 126.07 370.55 121.03 367.95 117.83 Z" />
<path fill="#9cc24e" opacity="1.00" d=" M 350.45 146.33 C 351.35 145.56 352.26 144.81 353.18 144.05 C 355.58 148.42 353.32 153.46 352.85 158.05 C 352.85 159.76 351.00 160.21 349.90 161.08 C 350.26 156.17 350.32 151.25 350.45 146.33 Z" />
<path fill="#9cc24e" opacity="1.00" d=" M 342.55 159.03 C 342.28 154.79 340.15 149.64 343.76 146.26 C 344.82 147.69 346.67 149.03 345.85 151.06 C 345.23 154.01 345.02 157.01 345.51 160.00 C 345.29 162.34 342.35 160.56 342.55 159.03 Z" />
<path fill="#9cc24e" opacity="1.00" d=" M 357.50 158.16 C 358.21 154.86 358.24 150.88 361.31 148.76 C 361.88 149.81 362.44 150.87 363.01 151.93 C 361.72 156.11 360.83 160.56 358.37 164.24 C 358.07 164.13 357.47 163.91 357.17 163.80 C 356.61 161.94 357.28 160.02 357.50 158.16 Z" />
<path fill="#9cc24e" opacity="1.00" d=" M 330.01 156.05 C 331.52 155.86 334.04 153.89 334.85 156.09 C 336.38 159.89 337.72 163.93 337.52 168.09 C 333.93 165.00 330.94 160.75 330.01 156.05 Z" />
<path fill="#9cc24e" opacity="1.00" d=" M 340.71 168.73 C 345.27 165.22 351.33 164.88 356.85 165.03 C 359.87 167.22 357.78 170.34 356.85 173.01 C 357.46 176.01 359.70 179.41 363.00 179.71 C 366.62 179.62 367.69 174.89 371.10 174.31 C 373.16 173.83 374.32 175.99 375.70 177.09 C 372.53 179.74 368.61 181.08 364.92 182.80 C 360.75 184.65 357.89 188.94 353.17 189.62 C 349.03 190.18 344.01 190.34 340.71 187.36 C 337.98 183.52 337.40 178.52 337.25 173.93 C 337.00 171.56 339.08 170.03 340.71 168.73 Z" />
<path fill="#9cc24e" opacity="1.00" d=" M 303.17 178.80 C 302.97 177.16 305.13 176.75 305.55 178.36 C 306.05 181.40 305.88 184.52 305.88 187.60 C 303.29 185.49 303.52 181.80 303.17 178.80 Z" />
<path fill="#9cc24e" opacity="1.00" d=" M 309.22 187.68 C 309.67 184.67 307.33 180.79 309.95 178.45 C 311.42 179.05 311.61 180.77 311.41 182.13 C 311.17 184.12 311.37 186.67 309.22 187.68 Z" />
<path fill="#9cc24e" opacity="1.00" d=" M 298.17 179.89 C 301.69 181.48 300.86 186.31 301.57 189.50 C 306.06 189.60 311.65 189.85 314.32 194.09 C 314.37 197.30 314.07 201.20 311.54 203.48 C 307.76 205.27 302.89 204.96 299.57 202.31 C 296.32 199.95 292.35 198.95 288.95 196.85 C 289.88 196.11 290.89 195.48 291.97 194.96 C 293.79 195.85 295.16 197.40 296.96 198.32 C 299.00 198.81 300.56 196.69 301.36 195.10 C 301.05 193.26 300.45 191.45 300.86 189.58 C 299.25 186.73 296.75 183.27 298.17 179.89 Z" />
<path fill="#9cc24e" opacity="1.00" d=" M 316.07 183.83 C 317.17 183.71 318.27 183.85 319.39 183.90 C 318.39 186.93 316.56 189.69 313.97 191.59 C 314.29 188.92 314.88 186.26 316.07 183.83 Z" />
</g>
<g id="#9cc34eff">
<path fill="#9cc34e" opacity="1.00" d=" M 354.89 49.66 C 355.51 48.83 356.15 48.01 356.79 47.20 C 359.24 50.65 357.90 55.14 357.08 58.90 C 356.67 58.90 355.85 58.90 355.43 58.89 C 355.67 55.80 355.51 52.70 354.89 49.66 Z" />
</g>
<g id="#a42b30ff">
<path fill="#a42b30" opacity="1.00" d=" M 77.34 70.12 C 76.98 65.82 75.02 61.11 77.33 57.07 C 78.10 57.84 78.87 58.61 79.64 59.39 C 79.78 64.23 79.90 69.08 80.07 73.92 C 78.75 72.97 77.30 71.93 77.34 70.12 Z" />
<path fill="#a42b30" opacity="1.00" d=" M 68.29 64.64 C 69.00 63.69 69.51 62.51 70.62 61.94 C 73.32 66.29 73.54 71.80 73.80 76.77 C 73.53 76.84 72.98 76.98 72.70 77.06 C 70.25 73.34 69.63 68.81 68.29 64.64 Z" />
<path fill="#a42b30" opacity="1.00" d=" M 93.99 67.57 C 95.49 68.22 98.64 68.51 97.57 70.92 C 96.08 74.54 94.12 78.15 91.15 80.78 C 90.98 76.20 92.57 71.85 93.99 67.57 Z" />
<path fill="#a42b30" opacity="1.00" d=" M 26.35 81.98 C 25.60 79.96 27.54 78.77 28.68 77.51 C 31.07 81.65 29.79 86.61 29.08 91.03 C 28.51 91.44 27.38 92.27 26.82 92.68 C 26.82 89.11 26.99 85.52 26.35 81.98 Z" />
<path fill="#a42b30" opacity="1.00" d=" M 74.06 77.95 C 79.05 77.36 84.60 78.13 88.52 81.53 C 89.85 82.73 91.48 84.12 91.40 86.10 C 91.50 90.25 90.79 94.46 89.23 98.30 C 87.31 102.42 81.91 102.54 78.02 102.11 C 73.32 101.69 70.69 97.30 66.77 95.29 C 63.46 93.60 60.03 92.10 57.06 89.82 C 58.23 88.66 59.09 86.62 61.05 86.82 C 64.39 87.47 65.22 92.49 68.96 92.18 C 71.61 91.33 73.14 88.62 73.90 86.10 C 73.57 83.45 70.84 79.88 74.06 77.95 Z" />
<path fill="#a42b30" opacity="1.00" d=" M 36.58 86.29 C 37.92 86.34 39.23 86.64 40.54 86.86 C 39.78 91.52 37.21 95.84 33.78 99.04 C 33.76 94.65 34.89 90.32 36.58 86.29 Z" />
<path fill="#a42b30" opacity="1.00" d=" M 16.33 104.98 C 16.51 101.94 13.55 98.26 16.71 95.83 C 21.25 96.03 26.18 96.14 30.02 98.93 C 31.96 100.37 34.30 102.22 34.04 104.94 C 33.98 109.19 33.39 113.62 31.36 117.42 C 29.14 120.65 24.59 120.71 21.06 120.44 C 16.23 120.09 13.39 115.71 9.39 113.60 C 6.24 111.90 3.00 110.38 0.00 108.41 L 0.00 107.47 C 1.17 106.28 2.69 104.29 4.57 105.41 C 6.58 106.83 8.02 108.92 10.05 110.31 C 13.30 111.05 15.41 107.58 16.33 104.98 Z" />
<path fill="#a42b30" opacity="1.00" d=" M 106.28 99.98 C 105.88 98.04 107.61 96.76 108.58 95.34 C 109.43 96.77 111.33 98.04 110.75 99.96 C 110.01 103.82 109.94 107.74 110.26 111.66 C 109.58 111.33 108.22 110.68 107.53 110.36 C 106.66 106.98 106.51 103.45 106.28 99.98 Z" />
<path fill="#a42b30" opacity="1.00" d=" M 122.44 112.36 C 123.27 107.47 123.08 101.78 126.67 97.91 C 127.38 98.96 128.10 100.02 128.81 101.08 C 127.66 105.53 126.50 110.03 124.42 114.15 C 124.10 114.07 123.46 113.92 123.13 113.84 C 122.96 113.47 122.61 112.73 122.44 112.36 Z" />
<path fill="#a42b30" opacity="1.00" d=" M 93.77 105.98 C 95.51 105.74 98.19 103.41 99.09 105.97 C 100.69 110.05 102.05 114.36 101.91 118.80 C 97.93 115.59 95.19 110.85 93.77 105.98 Z" />
<path fill="#a42b30" opacity="1.00" d=" M 101.93 122.99 C 106.29 116.64 114.75 114.95 121.97 115.78 C 125.49 117.26 123.32 121.35 122.33 123.95 C 122.62 127.09 124.92 130.28 127.94 131.34 C 132.89 132.25 133.97 124.42 139.00 125.62 C 140.21 126.47 141.13 127.66 142.12 128.74 C 137.08 132.81 130.29 133.87 125.51 138.33 C 122.22 141.53 117.54 142.87 113.03 142.42 C 109.69 142.21 105.58 141.41 104.14 137.96 C 102.25 133.28 101.03 128.01 101.93 122.99 Z" />
<path fill="#a42b30" opacity="1.00" d=" M 64.93 121.01 C 65.96 120.18 66.99 119.35 68.02 118.53 C 70.39 122.35 68.73 126.80 68.36 130.92 C 67.82 133.81 68.07 137.61 64.65 138.76 C 64.18 132.88 64.86 126.92 64.93 121.01 Z" />
<path fill="#a42b30" opacity="1.00" d=" M 55.82 136.49 C 55.55 131.40 53.14 125.42 57.05 121.18 C 57.96 122.43 59.50 123.41 59.83 125.01 C 59.71 127.38 59.09 129.69 58.85 132.05 C 58.57 134.36 59.66 136.69 58.91 138.96 C 57.55 138.70 55.69 138.25 55.82 136.49 Z" />
<path fill="#a42b30" opacity="1.00" d=" M 72.86 136.10 C 73.69 131.86 73.72 127.02 77.17 123.89 C 78.03 125.73 79.67 127.63 78.75 129.78 C 77.62 133.80 76.64 137.96 74.60 141.63 C 74.12 141.87 73.17 142.34 72.69 142.58 C 72.03 140.45 72.61 138.23 72.86 136.10 Z" />
<path fill="#a42b30" opacity="1.00" d=" M 167.31 143.96 C 166.51 141.93 168.63 140.89 169.78 139.65 C 171.84 143.46 170.79 147.85 170.34 151.92 C 170.31 153.29 169.27 154.43 167.81 154.28 C 167.82 150.83 167.95 147.37 167.31 143.96 Z" />
<path fill="#a42b30" opacity="1.00" d=" M 50.07 152.02 C 54.70 144.68 64.21 143.16 72.22 143.64 C 73.51 144.17 73.40 145.93 74.04 147.00 C 74.54 149.65 71.30 151.88 72.48 154.61 C 73.63 157.51 75.69 160.75 79.03 161.27 C 83.65 161.34 84.57 154.84 89.08 154.72 C 91.29 154.56 92.33 156.86 93.73 158.13 C 89.87 161.57 84.87 163.07 80.40 165.48 C 76.65 167.43 74.09 171.21 70.00 172.55 C 65.53 173.97 60.50 173.87 56.14 172.15 C 52.83 170.83 51.79 167.12 51.00 163.99 C 50.13 160.09 49.27 155.99 50.07 152.02 Z" />
<path fill="#a42b30" opacity="1.00" d=" M 177.58 148.37 C 178.88 148.42 180.15 148.69 181.44 148.89 C 180.82 153.58 178.20 157.93 174.75 161.10 C 174.73 156.71 175.86 152.38 177.58 148.37 Z" />
<path fill="#a42b30" opacity="1.00" d=" M 157.19 158.15 C 162.79 157.75 169.13 158.55 173.18 162.86 C 176.17 165.35 174.82 169.67 174.47 172.98 C 173.74 176.15 173.19 180.30 169.75 181.66 C 166.65 182.84 163.12 182.98 159.93 182.09 C 156.56 181.17 154.44 178.18 151.59 176.37 C 148.16 174.08 143.79 173.19 140.96 170.03 C 141.73 168.57 143.07 166.66 145.00 167.26 C 147.56 168.19 148.59 171.22 151.01 172.41 C 153.61 173.17 155.52 170.71 156.60 168.72 C 159.18 165.36 154.06 161.41 157.19 158.15 Z" />
<path fill="#a42b30" opacity="1.00" d=" M 103.16 164.75 C 104.04 165.53 104.96 166.27 105.72 167.16 C 106.21 172.01 106.04 176.91 106.24 181.77 C 105.28 180.80 103.81 180.07 103.71 178.54 C 103.06 174.00 101.67 169.26 103.16 164.75 Z" />
<path fill="#a42b30" opacity="1.00" d=" M 109.65 169.86 C 110.45 168.91 111.25 167.98 112.06 167.04 C 114.94 170.81 113.21 175.68 112.84 179.96 C 112.92 181.80 109.56 182.43 110.36 179.94 C 110.80 176.56 110.24 173.19 109.65 169.86 Z" />
<path fill="#a42b30" opacity="1.00" d=" M 96.08 169.26 C 99.80 173.35 99.86 179.58 99.81 184.79 C 99.57 184.80 99.08 184.82 98.84 184.83 C 96.88 181.51 95.90 177.71 95.02 173.98 C 94.44 172.32 95.70 170.80 96.08 169.26 Z" />
<path fill="#a42b30" opacity="1.00" d=" M 119.75 176.83 C 120.60 174.09 125.24 176.51 123.74 178.95 C 122.12 182.38 120.43 186.07 117.31 188.42 C 117.37 184.44 118.33 180.52 119.75 176.83 Z" />
<path fill="#a42b30" opacity="1.00" d=" M 100.06 194.09 C 100.16 191.36 97.00 188.02 100.08 185.90 C 105.77 184.75 112.32 186.26 116.26 190.74 C 118.50 192.86 117.50 196.22 117.34 198.91 C 116.73 202.04 116.34 205.58 114.07 208.02 C 111.21 210.22 107.26 210.28 103.83 209.79 C 99.32 209.18 96.79 204.92 92.93 203.00 C 89.57 201.29 85.99 199.87 83.22 197.21 C 84.63 196.10 85.86 194.02 87.97 194.69 C 90.62 196.00 91.70 199.90 94.95 199.95 C 97.68 199.33 99.25 196.56 100.06 194.09 Z" />
<path fill="#a42b30" opacity="1.00" d=" M 145.47 220.03 C 145.61 218.21 148.55 217.30 148.17 219.92 C 147.76 223.98 148.46 229.09 145.12 232.08 C 145.13 228.07 145.00 224.02 145.47 220.03 Z" />
<path fill="#a42b30" opacity="1.00" d=" M 149.99 233.64 C 150.90 229.52 150.21 224.35 153.88 221.48 C 155.32 225.56 153.21 229.59 152.03 233.44 C 151.78 233.61 151.27 233.93 151.01 234.10 C 150.76 233.98 150.24 233.75 149.99 233.64 Z" />
<path fill="#a42b30" opacity="1.00" d=" M 135.64 241.12 C 138.31 236.11 144.65 234.71 149.88 235.19 C 150.47 236.04 151.05 236.90 151.62 237.77 C 149.15 240.92 150.36 245.64 154.06 247.14 C 157.20 247.62 158.16 243.28 160.98 242.67 C 162.60 242.65 163.21 244.42 164.16 245.43 C 161.55 247.14 158.71 248.44 155.98 249.93 C 152.65 251.75 150.22 255.47 146.12 255.63 C 143.11 255.81 139.11 255.69 137.49 252.65 C 135.95 249.06 135.23 245.02 135.64 241.12 Z" />
</g>
<g id="#a42c30ff">
<path fill="#a42c30" opacity="1.00" d=" M 83.44 61.98 C 84.21 61.15 84.98 60.31 85.75 59.49 C 86.20 60.14 87.10 61.43 87.55 62.08 C 87.21 65.81 87.36 69.66 86.28 73.27 C 85.76 73.44 84.73 73.77 84.21 73.94 C 84.43 69.93 84.21 65.93 83.44 61.98 Z" />
<path fill="#a42c30" opacity="1.00" d=" M 18.81 77.98 C 18.91 76.79 19.54 76.04 20.68 75.73 C 21.05 76.29 21.79 77.43 22.16 77.99 C 22.62 82.73 22.50 87.51 22.58 92.27 C 20.98 91.33 19.97 89.84 19.91 87.99 C 19.37 84.67 18.83 81.34 18.81 77.98 Z" />
<path fill="#a42c30" opacity="1.00" d=" M 12.62 79.90 C 15.40 82.51 15.43 86.50 16.09 89.99 C 16.20 91.58 16.84 93.37 15.84 94.81 C 15.58 94.83 15.06 94.89 14.80 94.92 C 13.08 91.13 12.08 87.08 11.03 83.08 C 11.56 82.02 12.09 80.96 12.62 79.90 Z" />
<path fill="#a42c30" opacity="1.00" d=" M 115.49 96.91 C 115.32 95.03 117.24 94.06 118.22 92.77 C 121.01 97.08 118.70 102.25 118.27 106.92 C 118.30 109.05 116.85 110.43 115.14 111.38 C 115.20 106.55 115.33 101.73 115.49 96.91 Z" />
<path fill="#a42c30" opacity="1.00" d=" M 41.51 132.81 C 43.36 132.47 46.40 130.24 47.13 133.17 C 48.75 137.66 50.39 142.35 49.92 147.21 C 45.90 143.37 42.45 138.36 41.51 132.81 Z" />
<path fill="#a42c30" opacity="1.00" d=" M 159.78 140.90 C 159.64 139.60 160.08 137.95 161.64 137.94 C 162.83 138.99 163.46 140.48 163.33 142.07 C 163.40 146.16 163.55 150.24 163.59 154.33 C 162.17 153.62 161.33 152.53 161.08 151.06 C 160.44 147.70 159.97 144.31 159.78 140.90 Z" />
<path fill="#a42c30" opacity="1.00" d=" M 151.98 145.01 C 152.62 143.96 153.26 142.91 153.91 141.87 C 156.12 144.78 156.47 148.48 157.03 151.96 C 157.17 153.56 157.79 155.32 156.83 156.79 C 156.56 156.80 156.01 156.81 155.74 156.82 C 153.99 153.06 152.99 149.01 151.98 145.01 Z" />
<path fill="#a42c30" opacity="1.00" d=" M 130.27 229.00 C 129.93 227.22 132.18 226.55 133.52 227.18 C 134.86 230.48 135.62 233.99 135.90 237.54 C 133.09 235.48 131.41 232.20 130.27 229.00 Z" />
</g>
<g id="#020303ff">
<path fill="#020303" opacity="1.00" d=" M 613.18 82.32 C 619.34 81.18 626.31 82.55 630.71 87.27 C 634.96 91.70 635.81 98.16 635.81 104.04 C 635.82 148.69 635.81 193.35 635.82 238.00 C 635.83 243.53 635.31 249.46 631.95 254.07 C 625.42 263.05 610.16 263.36 603.33 254.57 C 599.83 250.20 599.04 244.38 599.06 238.94 C 599.06 195.62 599.07 152.30 599.05 108.98 C 599.06 103.31 598.72 97.38 601.03 92.05 C 603.11 87.03 607.85 83.30 613.18 82.32 Z" />
<path fill="#020303" opacity="1.00" d=" M 680.84 89.81 C 685.44 85.60 692.06 85.03 698.01 84.89 C 729.65 84.84 761.30 84.90 792.94 84.86 C 797.75 84.90 802.98 85.12 807.00 88.09 C 813.45 92.70 813.61 103.50 807.47 108.44 C 803.72 111.50 798.63 111.98 793.97 112.00 C 766.66 112.00 739.36 111.99 712.05 112.01 C 712.07 126.15 712.07 140.28 712.05 154.42 C 737.36 154.45 762.66 154.43 787.96 154.43 C 792.23 154.45 796.80 155.01 800.27 157.73 C 806.30 162.35 806.26 172.57 800.49 177.38 C 796.79 180.51 791.70 180.93 787.06 180.95 C 762.06 180.94 737.06 180.94 712.06 180.94 C 712.06 197.32 712.06 213.69 712.07 230.06 C 740.38 230.06 768.69 230.05 797.00 230.06 C 801.60 230.08 806.58 230.68 810.26 233.72 C 816.45 238.65 816.50 249.39 810.30 254.34 C 806.61 257.39 801.61 257.97 797.00 258.00 C 764.00 258.00 730.99 258.01 697.99 258.00 C 692.11 257.92 685.66 257.28 681.02 253.29 C 676.51 249.23 675.43 242.82 675.38 237.05 C 675.36 193.70 675.38 150.35 675.37 107.00 C 675.37 100.96 676.15 94.14 680.84 89.81 Z" />
<path fill="#020303" opacity="1.00" d=" M 856.28 89.27 C 861.89 85.03 869.29 84.89 876.02 84.87 C 892.66 84.93 909.30 84.76 925.94 84.97 C 937.53 85.32 949.48 86.00 960.25 90.72 C 973.92 96.50 984.04 109.41 986.77 123.95 C 989.46 138.40 988.25 154.39 980.13 166.99 C 972.37 179.03 958.62 185.65 944.94 188.34 C 925.75 192.08 906.10 190.13 886.69 190.63 C 886.68 207.09 886.70 223.54 886.69 239.99 C 886.65 245.30 885.56 250.93 881.95 255.03 C 875.11 263.11 860.85 262.95 854.26 254.64 C 850.74 250.27 849.96 244.45 849.99 239.01 C 850.02 194.65 849.98 150.29 850.01 105.93 C 850.06 99.94 851.27 93.16 856.28 89.27 M 886.65 111.40 C 886.75 128.97 886.66 146.55 886.70 164.12 C 898.15 163.98 909.62 164.50 921.06 163.65 C 929.49 162.86 938.61 161.04 944.75 154.73 C 950.10 149.35 951.40 141.24 950.63 133.97 C 949.89 126.42 945.78 118.66 938.60 115.51 C 930.89 112.13 922.32 111.56 914.01 111.34 C 904.89 111.33 895.77 111.22 886.65 111.40 Z" />
<path fill="#020303" opacity="1.00" d=" M 1104.92 286.17 C 1106.40 286.23 1107.91 286.30 1109.42 286.37 C 1109.34 300.85 1109.38 315.34 1109.29 329.83 C 1107.77 329.82 1106.27 329.82 1104.78 329.83 C 1104.81 315.28 1104.73 300.72 1104.92 286.17 Z" />
<path fill="#020303" opacity="1.00" d=" M 530.88 287.75 C 540.58 287.74 550.28 287.73 559.98 287.83 C 559.93 289.08 559.89 290.34 559.86 291.61 C 551.81 291.41 543.75 291.53 535.70 291.51 C 535.62 296.12 535.61 300.74 535.63 305.36 C 543.21 305.49 550.79 305.37 558.37 305.50 C 558.35 306.42 558.30 308.26 558.27 309.19 C 550.73 309.23 543.18 309.14 535.64 309.11 C 535.62 314.29 535.68 319.47 535.52 324.65 C 543.91 325.04 552.31 324.63 560.70 324.90 C 560.65 326.12 560.61 327.35 560.59 328.57 C 550.63 328.56 540.68 328.59 530.73 328.44 C 530.87 314.88 530.73 301.31 530.88 287.75 Z" />
<path fill="#020303" opacity="1.00" d=" M 868.75 288.51 C 876.63 288.91 885.06 287.22 892.48 290.62 C 897.39 292.83 899.17 299.27 896.82 303.94 C 895.18 307.21 891.65 309.01 888.21 309.74 C 883.36 310.70 878.40 310.31 873.50 310.38 C 873.50 316.67 873.50 322.96 873.50 329.24 C 871.89 329.24 870.28 329.24 868.69 329.25 C 868.63 315.67 868.76 302.09 868.75 288.51 M 873.53 292.19 C 873.58 297.05 873.58 301.91 873.54 306.77 C 878.79 306.64 884.40 307.55 889.36 305.33 C 893.86 303.46 894.33 296.20 889.96 293.92 C 884.91 291.33 878.99 292.28 873.53 292.19 Z" />
<path fill="#020303" opacity="1.00" d=" M 677.77 295.67 C 678.73 293.54 679.49 290.80 682.00 290.03 C 685.49 288.89 688.74 291.29 692.05 292.04 C 695.14 293.30 696.60 288.86 699.76 289.19 C 698.90 291.64 697.89 294.78 694.93 295.33 C 690.73 296.22 687.18 292.59 683.02 292.93 C 682.07 293.76 681.29 294.75 680.48 295.71 C 679.80 295.70 678.44 295.68 677.77 295.67 Z" />
<path fill="#020303" opacity="1.00" d=" M 573.99 305.86 C 577.50 301.93 582.96 300.10 588.13 301.27 C 592.52 301.86 596.04 305.72 596.36 310.12 C 596.73 316.29 596.38 322.47 596.52 328.64 C 595.01 328.64 593.52 328.65 592.03 328.67 C 591.61 322.27 592.53 315.78 591.42 309.45 C 590.56 305.34 585.85 303.73 582.12 304.44 C 577.91 304.90 574.67 308.73 574.39 312.86 C 574.01 318.10 574.25 323.36 574.19 328.61 C 572.66 328.61 571.14 328.62 569.62 328.63 C 569.58 319.62 569.89 310.61 569.49 301.60 C 570.94 301.62 572.40 301.63 573.87 301.65 C 573.90 302.71 573.96 304.81 573.99 305.86 Z" />
<path fill="#020303" opacity="1.00" d=" M 609.14 303.15 C 615.11 299.51 623.56 300.61 628.31 305.81 C 627.12 306.54 625.93 307.27 624.74 308.00 C 621.68 304.61 616.49 303.19 612.35 305.45 C 610.22 306.48 609.71 309.88 611.89 311.16 C 616.47 313.69 622.36 313.01 626.54 316.45 C 630.08 319.50 628.67 325.72 624.62 327.66 C 618.12 330.95 609.84 329.45 604.52 324.59 C 605.61 323.65 606.73 322.73 607.85 321.82 C 611.26 325.30 616.47 327.19 621.19 325.29 C 623.73 324.53 625.20 320.85 622.97 318.96 C 618.57 316.03 612.70 316.71 608.38 313.62 C 604.91 311.10 605.56 305.27 609.14 303.15 Z" />
<path fill="#020303" opacity="1.00" d=" M 713.05 304.97 C 718.24 301.53 724.94 300.24 730.94 302.15 C 734.38 303.20 737.29 306.29 737.36 310.02 C 737.65 316.35 737.12 322.70 737.85 329.02 C 736.48 328.98 735.13 328.94 733.79 328.92 C 733.66 327.61 733.54 326.31 733.44 325.01 C 728.61 329.91 720.47 331.27 714.58 327.53 C 710.11 324.85 710.24 317.36 714.98 315.02 C 720.62 312.03 727.27 312.61 733.44 312.29 C 732.91 309.93 732.72 306.96 730.21 305.79 C 725.47 303.42 719.86 304.90 715.60 307.61 C 714.74 306.73 713.89 305.85 713.05 304.97 M 718.03 317.85 C 715.03 319.41 715.59 324.15 718.60 325.36 C 722.84 327.28 728.66 326.50 731.52 322.57 C 733.08 320.55 732.95 317.87 733.35 315.48 C 728.22 315.69 722.64 315.21 718.03 317.85 Z" />
<path fill="#020303" opacity="1.00" d=" M 748.77 302.00 C 750.22 302.00 751.68 302.00 753.15 302.00 C 753.17 303.39 753.20 304.78 753.23 306.17 C 757.00 302.26 762.68 300.36 768.01 301.80 C 772.29 302.58 775.47 306.57 775.69 310.85 C 776.02 316.91 775.73 322.97 775.75 329.03 C 774.21 329.04 772.69 329.05 771.18 329.07 C 771.00 322.49 771.93 315.78 770.56 309.30 C 768.00 302.35 756.60 303.68 754.40 310.33 C 752.67 316.35 753.79 322.74 753.54 328.92 C 752.00 328.96 750.46 328.99 748.94 329.03 C 748.82 320.02 749.18 311.00 748.77 302.00 Z" />
<path fill="#020303" opacity="1.00" d=" M 784.53 302.08 C 792.34 302.16 800.16 302.12 807.98 302.11 C 807.98 302.83 808.00 304.27 808.01 304.99 C 801.93 311.88 795.64 318.59 789.69 325.60 C 796.00 325.62 802.31 325.71 808.62 325.69 C 808.61 326.55 808.61 328.27 808.60 329.13 C 800.05 329.02 791.49 329.38 782.96 328.81 C 783.44 327.17 783.97 325.47 785.21 324.22 C 790.77 317.99 796.33 311.76 801.86 305.50 C 796.04 305.49 790.22 305.41 784.40 305.43 C 784.43 304.60 784.50 302.92 784.53 302.08 Z" />
<path fill="#020303" opacity="1.00" d=" M 816.04 305.12 C 821.42 301.68 828.32 300.38 834.42 302.57 C 837.56 303.72 840.15 306.62 840.28 310.07 C 840.59 316.51 840.11 322.97 840.73 329.41 C 839.77 329.29 837.85 329.07 836.89 328.95 C 836.59 327.72 836.37 326.49 836.22 325.25 C 831.51 330.32 823.20 331.44 817.39 327.68 C 813.20 325.03 813.17 318.00 817.53 315.50 C 823.12 312.24 829.92 312.83 836.16 312.57 C 835.84 310.35 835.87 307.62 833.65 306.34 C 828.86 303.44 822.83 305.13 818.37 307.88 C 817.59 306.96 816.81 306.04 816.04 305.12 M 820.99 318.06 C 818.07 319.55 818.46 324.15 821.33 325.48 C 825.66 327.59 831.79 326.76 834.62 322.58 C 836.02 320.58 835.91 318.02 836.26 315.71 C 831.14 315.91 825.62 315.47 820.99 318.06 Z" />
<path fill="#020303" opacity="1.00" d=" M 903.40 302.37 C 904.83 302.36 906.28 302.36 907.74 302.37 C 907.81 303.77 907.89 305.17 907.98 306.58 C 911.12 302.62 916.13 301.18 921.03 301.79 C 920.84 303.05 920.67 304.31 920.51 305.57 C 916.01 304.99 910.41 306.05 908.92 311.00 C 907.37 316.97 908.42 323.26 908.13 329.37 C 906.59 329.37 905.07 329.37 903.56 329.37 C 903.48 320.37 903.87 311.36 903.40 302.37 Z" />
<path fill="#020303" opacity="1.00" d=" M 926.22 308.37 C 931.40 300.70 943.60 299.53 950.47 305.52 C 953.78 308.38 954.48 312.92 954.56 317.07 C 945.86 316.98 937.16 316.95 928.46 317.05 C 929.23 320.03 930.44 323.20 933.29 324.78 C 938.57 328.30 945.88 326.78 950.06 322.23 C 951.16 322.95 952.27 323.67 953.38 324.40 C 947.15 331.43 935.13 332.16 928.20 325.79 C 923.44 321.47 922.56 313.65 926.22 308.37 M 928.55 313.77 C 935.74 313.78 942.93 313.96 950.13 313.77 C 949.19 311.09 948.33 308.00 945.63 306.56 C 939.30 302.84 929.99 306.30 928.55 313.77 Z" />
<path fill="#020303" opacity="1.00" d=" M 1032.73 306.74 C 1039.20 300.43 1050.72 300.38 1057.26 306.64 C 1056.06 307.35 1054.88 308.07 1053.70 308.78 C 1048.87 303.86 1039.89 304.28 1035.77 309.86 C 1032.04 314.80 1033.70 322.87 1039.40 325.56 C 1044.13 328.05 1050.10 327.16 1054.09 323.66 C 1055.18 324.30 1056.27 324.95 1057.38 325.61 C 1051.43 331.86 1040.79 331.76 1034.09 326.82 C 1027.85 322.23 1027.20 312.13 1032.73 306.74 Z" />
<path fill="#020303" opacity="1.00" d=" M 1075.23 302.30 C 1082.41 301.13 1091.06 303.89 1094.03 311.05 C 1097.01 317.69 1093.44 326.05 1086.75 328.75 C 1078.20 332.71 1065.37 329.86 1062.51 319.96 C 1059.80 311.57 1066.87 303.02 1075.23 302.30 M 1073.34 306.41 C 1066.90 308.81 1064.75 317.80 1069.16 322.98 C 1075.06 330.43 1089.91 327.23 1090.21 317.00 C 1091.18 308.26 1080.66 302.88 1073.34 306.41 Z" />
<path fill="#020303" opacity="1.00" d=" M 1121.27 305.56 C 1126.16 302.31 1132.48 301.38 1138.13 302.92 C 1141.74 303.88 1144.93 307.01 1145.01 310.90 C 1145.38 317.25 1144.77 323.62 1145.45 329.96 C 1144.09 329.90 1142.74 329.85 1141.41 329.80 C 1141.27 328.48 1141.15 327.17 1141.04 325.86 C 1136.24 331.02 1127.66 332.22 1121.84 328.16 C 1117.89 325.40 1118.00 318.61 1122.24 316.19 C 1127.90 312.89 1134.76 313.58 1141.05 313.19 C 1140.54 310.89 1140.41 308.01 1138.04 306.80 C 1133.15 304.23 1127.32 305.89 1122.92 308.70 C 1122.33 307.66 1121.41 306.77 1121.27 305.56 M 1125.80 318.69 C 1122.84 320.12 1123.09 324.75 1125.98 326.11 C 1130.28 328.31 1136.45 327.46 1139.30 323.30 C 1140.73 321.30 1140.66 318.74 1140.97 316.41 C 1135.90 316.59 1130.40 316.16 1125.80 318.69 Z" />
<path fill="#020303" opacity="1.00" d=" M 1160.94 307.06 C 1164.26 303.32 1169.08 301.83 1174.00 302.19 L 1174.00 303.55 C 1173.91 304.17 1173.72 305.41 1173.63 306.03 C 1170.86 306.20 1167.85 305.81 1165.37 307.27 C 1162.74 308.84 1161.40 311.91 1161.29 314.88 C 1160.99 319.89 1161.19 324.92 1161.12 329.94 C 1159.58 329.94 1158.07 329.94 1156.56 329.95 C 1156.61 320.94 1156.76 311.93 1156.44 302.92 C 1157.88 302.93 1159.33 302.94 1160.80 302.96 C 1160.83 304.32 1160.88 305.69 1160.94 307.06 Z" />
<path fill="#020303" opacity="1.00" d=" M 641.38 359.49 C 642.47 359.49 643.57 359.49 644.68 359.49 C 644.73 370.03 644.54 380.57 644.66 391.10 C 642.56 391.16 640.49 391.05 641.16 388.27 C 635.94 392.96 626.56 392.63 622.64 386.48 C 619.43 381.61 621.64 374.33 627.06 372.12 C 631.76 369.84 637.39 371.02 641.32 374.28 C 641.30 369.35 641.39 364.42 641.38 359.49 M 629.21 374.16 C 623.70 376.25 623.13 384.91 628.24 387.76 C 633.41 391.08 642.10 387.68 641.67 380.96 C 641.63 374.93 634.23 371.75 629.21 374.16 Z" />
<path fill="#020303" opacity="1.00" d=" M 732.13 359.79 C 732.97 359.75 734.66 359.67 735.50 359.63 C 735.42 370.17 735.44 380.71 735.43 391.25 C 734.60 391.25 732.93 391.25 732.10 391.24 C 732.16 380.76 732.10 370.28 732.13 359.79 Z" />
<path fill="#020303" opacity="1.00" d=" M 410.45 361.11 C 411.63 361.03 412.81 360.95 414.00 360.88 C 413.95 370.78 414.13 380.69 413.86 390.59 C 412.71 390.54 411.56 390.49 410.42 390.45 C 410.46 380.67 410.58 370.89 410.45 361.11 Z" />
<path fill="#020303" opacity="1.00" d=" M 901.91 363.91 C 906.62 360.26 914.10 360.43 918.47 364.56 C 921.58 367.63 921.48 372.77 919.24 376.32 C 916.01 381.66 912.02 386.49 908.53 391.66 C 907.19 391.60 905.88 391.54 904.57 391.47 C 907.62 387.35 910.61 383.18 913.82 379.19 C 909.99 379.87 905.65 380.17 902.36 377.69 C 897.82 374.65 897.59 367.24 901.91 363.91 M 906.41 364.61 C 902.84 365.93 901.20 370.56 903.14 373.84 C 906.32 379.47 917.16 377.99 917.35 370.97 C 917.77 365.41 910.94 362.44 906.41 364.61 Z" />
<path fill="#020303" opacity="1.00" d=" M 821.27 361.94 C 828.34 361.82 835.42 361.83 842.49 362.10 C 842.46 362.73 842.40 363.99 842.36 364.62 C 836.50 364.64 830.64 364.61 824.78 364.65 C 824.76 367.98 824.75 371.32 824.71 374.66 C 830.23 374.71 835.76 374.67 841.28 374.70 C 841.19 375.39 841.00 376.79 840.91 377.48 C 835.52 377.41 830.13 377.45 824.75 377.38 C 824.73 381.15 824.74 384.93 824.81 388.70 C 830.94 388.67 837.06 388.75 843.19 388.78 C 843.05 389.41 842.76 390.66 842.61 391.29 C 835.49 391.66 828.34 391.36 821.21 391.40 C 821.30 381.58 821.20 371.76 821.27 361.94 Z" />
<path fill="#020303" opacity="1.00" d=" M 951.70 362.19 C 953.11 362.17 954.53 362.16 955.96 362.15 C 962.63 370.44 968.96 378.99 975.74 387.20 C 975.76 378.90 975.74 370.60 975.75 362.29 C 976.64 362.29 978.44 362.27 979.33 362.26 C 979.17 372.10 979.34 381.94 979.19 391.78 C 977.75 391.77 976.31 391.77 974.90 391.77 C 968.25 383.40 961.90 374.79 955.16 366.49 C 955.05 374.93 955.21 383.37 955.07 391.82 C 953.89 391.71 952.72 391.60 951.57 391.50 C 951.72 381.73 951.51 371.96 951.70 362.19 Z" />
<path fill="#020303" opacity="1.00" d=" M 1057.75 368.43 C 1061.48 366.13 1064.67 362.38 1069.34 362.14 C 1069.45 372.09 1069.25 382.05 1069.31 392.00 C 1068.44 392.00 1066.69 392.00 1065.81 392.00 C 1065.80 383.43 1065.81 374.86 1065.88 366.29 C 1063.79 367.78 1061.71 369.29 1059.65 370.81 C 1059.00 370.01 1058.36 369.22 1057.75 368.43 Z" />
<path fill="#020303" opacity="1.00" d=" M 422.62 370.72 C 424.59 370.77 426.36 371.20 426.13 373.62 C 430.17 369.59 438.59 368.95 441.38 374.67 C 442.95 379.78 441.92 385.28 442.11 390.56 C 441.28 390.55 439.62 390.55 438.79 390.55 C 438.69 385.87 439.34 381.11 438.41 376.50 C 436.68 370.97 427.56 372.26 426.48 377.66 C 425.67 381.90 426.15 386.26 426.00 390.56 C 425.17 390.53 423.51 390.49 422.67 390.46 C 422.68 383.88 422.85 377.30 422.62 370.72 Z" />
<path fill="#020303" opacity="1.00" d=" M 583.68 373.94 C 586.37 371.72 589.66 370.60 593.17 370.75 C 593.11 371.45 592.97 372.84 592.91 373.54 C 589.89 373.57 586.05 373.69 584.74 376.98 C 583.17 381.40 584.11 386.26 583.89 390.86 C 583.06 390.87 581.41 390.90 580.59 390.91 C 580.51 384.37 580.64 377.83 580.47 371.30 C 581.27 371.31 582.87 371.35 583.67 371.36 C 583.67 372.01 583.67 373.30 583.68 373.94 Z" />
<path fill="#020303" opacity="1.00" d=" M 596.86 373.24 C 601.92 370.63 609.58 369.18 613.54 374.32 C 615.51 379.59 613.94 385.46 614.73 390.97 C 613.99 390.96 612.52 390.94 611.78 390.93 C 611.76 390.23 611.70 388.83 611.68 388.13 C 608.04 391.47 602.27 392.70 597.96 389.94 C 594.78 388.06 594.70 382.81 597.96 380.98 C 602.10 378.64 607.07 379.14 611.65 378.81 C 610.98 377.14 610.93 374.82 609.01 374.06 C 605.55 372.38 601.69 373.83 598.51 375.42 C 597.95 374.69 597.40 373.96 596.86 373.24 M 600.15 383.11 C 598.20 384.31 598.81 387.48 600.81 388.31 C 603.90 389.75 608.20 389.08 610.24 386.19 C 611.07 384.66 611.29 382.91 611.71 381.25 C 607.84 381.37 603.56 380.92 600.15 383.11 Z" />
<path fill="#020303" opacity="1.00" d=" M 659.41 371.58 C 666.39 369.15 676.28 373.58 675.59 381.90 C 675.15 390.39 664.45 393.66 657.68 390.35 C 653.00 388.45 650.38 382.76 652.21 377.99 C 653.30 374.79 656.21 372.47 659.41 371.58 M 659.38 374.42 C 655.05 376.38 653.85 382.59 656.87 386.17 C 661.06 391.41 671.56 389.33 672.02 382.12 C 673.03 375.44 664.77 371.40 659.38 374.42 Z" />
</g>
<g id="#000000ff">
<path fill="#000000" opacity="1.00" d=" M 279.08 174.05 C 311.41 157.05 337.72 128.58 351.06 94.46 C 349.79 114.52 341.67 134.20 327.86 148.89 C 317.06 160.76 303.26 169.19 290.04 178.06 C 279.52 184.94 270.85 194.26 263.20 204.14 C 257.02 212.52 251.22 221.53 248.70 231.75 C 253.27 228.95 257.78 226.00 262.63 223.68 C 270.17 219.98 278.34 217.87 286.29 215.25 C 298.82 211.16 311.25 206.72 323.95 203.19 C 334.56 200.13 345.33 197.71 356.00 194.88 C 369.53 191.18 382.77 184.85 392.45 174.46 C 401.85 164.66 406.64 151.14 406.78 137.66 C 409.50 143.69 410.99 150.44 409.90 157.04 C 408.62 165.68 403.25 173.11 396.89 178.82 C 388.50 186.30 378.48 191.68 368.30 196.27 C 345.86 206.25 321.93 212.07 298.34 218.58 C 286.36 222.11 274.27 225.96 263.56 232.54 C 258.76 235.64 253.57 239.81 253.00 245.93 C 251.40 260.26 253.16 274.70 254.84 288.94 C 259.40 323.36 266.78 357.33 274.14 391.24 C 260.54 392.08 247.40 398.60 238.30 408.72 C 227.51 397.52 212.20 390.26 196.47 391.19 C 202.91 353.39 211.90 316.06 217.83 278.16 C 218.97 270.82 220.02 263.45 220.40 256.02 C 220.49 252.84 220.62 249.52 219.44 246.51 C 215.17 244.61 210.35 244.66 205.88 243.47 C 187.41 239.50 171.12 228.46 158.71 214.46 C 145.68 199.84 136.69 182.08 123.15 167.86 C 115.86 159.98 107.16 153.64 99.15 146.56 C 106.90 148.08 113.56 152.60 119.79 157.23 C 131.77 166.43 142.00 177.69 151.45 189.42 C 156.83 196.05 161.49 203.29 167.61 209.29 C 181.80 223.57 201.43 232.89 221.70 233.11 C 220.97 227.32 219.55 221.66 217.66 216.15 C 206.29 183.63 188.48 153.53 166.91 126.76 C 171.09 128.88 174.90 131.66 178.44 134.73 C 188.81 143.77 197.35 154.72 204.75 166.27 C 217.11 185.69 226.21 207.01 233.48 228.80 C 242.33 206.39 257.36 185.43 279.08 174.05 Z" />
</g>
<g id="#a1539bff">
<path fill="#a1539b" opacity="1.00" d=" M 411.19 98.15 C 411.62 97.74 412.47 96.92 412.90 96.50 C 413.10 100.72 413.59 105.72 410.75 109.18 C 410.80 105.51 410.44 101.76 411.19 98.15 Z" />
<path fill="#a1539b" opacity="1.00" d=" M 407.58 109.59 C 405.38 106.27 405.15 101.50 406.97 97.94 C 409.43 101.39 407.53 105.74 407.58 109.59 Z" />
<path fill="#a1539b" opacity="1.00" d=" M 456.60 112.95 C 456.23 109.33 455.09 105.46 456.94 102.04 C 457.76 103.30 459.42 104.32 459.28 106.03 C 459.42 110.47 459.50 114.92 459.58 119.36 C 456.96 118.22 456.99 115.34 456.60 112.95 Z" />
<path fill="#a1539b" opacity="1.00" d=" M 398.85 105.37 C 399.74 105.02 400.64 104.68 401.55 104.34 C 402.56 107.49 403.42 110.73 403.42 114.06 C 401.20 111.59 399.71 108.56 398.85 105.37 Z" />
<path fill="#a1539b" opacity="1.00" d=" M 473.28 113.07 C 474.52 113.38 475.77 113.72 477.01 114.08 C 476.49 118.73 473.77 122.98 470.53 126.24 C 470.34 121.69 471.80 117.31 473.28 113.07 Z" />
<path fill="#a1539b" opacity="1.00" d=" M 453.60 123.55 C 459.68 122.28 467.56 124.50 470.59 130.45 C 471.10 134.96 470.25 139.61 468.71 143.86 C 467.10 148.05 461.78 148.39 457.97 147.99 C 453.02 147.66 450.42 142.87 446.31 140.83 C 443.11 139.18 439.78 137.70 437.12 135.21 C 438.00 134.24 438.95 133.31 439.94 132.44 C 443.79 131.90 444.54 137.16 447.90 137.86 C 450.32 138.05 451.83 135.66 452.83 133.80 C 455.41 130.52 449.85 126.43 453.60 123.55 Z" />
<path fill="#a1539b" opacity="1.00" d=" M 437.82 168.10 C 438.20 165.69 439.15 163.40 440.96 161.71 C 443.82 165.30 440.38 169.30 439.12 172.80 C 438.87 172.82 438.37 172.84 438.12 172.85 C 436.63 171.63 437.65 169.67 437.82 168.10 Z" />
<path fill="#a1539b" opacity="1.00" d=" M 414.16 167.22 C 414.89 167.04 416.36 166.68 417.09 166.50 C 419.37 169.11 419.92 172.76 420.40 176.07 C 417.67 173.96 413.73 170.98 414.16 167.22 Z" />
<path fill="#a1539b" opacity="1.00" d=" M 389.08 189.56 C 389.91 190.67 391.42 191.52 391.49 193.06 C 391.72 197.61 391.66 202.18 391.92 206.75 C 390.61 205.87 389.19 204.88 389.27 203.12 C 388.82 198.64 387.11 193.88 389.08 189.56 Z" />
<path fill="#a1539b" opacity="1.00" d=" M 395.41 196.01 C 394.95 194.27 396.70 193.20 397.57 191.96 C 400.30 195.81 398.68 200.66 398.34 204.97 C 398.52 206.49 394.83 207.98 395.87 205.35 C 396.14 202.22 395.84 199.11 395.41 196.01 Z" />
<path fill="#a1539b" opacity="1.00" d=" M 380.67 197.84 C 380.52 196.43 381.51 195.22 382.69 194.61 C 384.56 197.41 384.79 200.86 385.36 204.08 C 385.45 205.68 386.26 207.56 384.90 208.84 C 384.63 208.89 384.09 209.00 383.83 209.05 C 382.59 205.37 381.30 201.68 380.67 197.84 Z" />
<path fill="#a1539b" opacity="1.00" d=" M 402.77 213.77 C 402.64 209.08 403.98 204.50 405.80 200.22 C 407.34 201.03 410.05 201.58 408.99 203.98 C 407.44 207.52 405.62 211.10 402.77 213.77 Z" />
<path fill="#a1539b" opacity="1.00" d=" M 386.04 210.92 C 391.70 210.10 398.10 211.57 401.81 216.20 C 403.38 217.73 402.98 220.07 402.94 222.04 C 402.60 225.60 402.06 229.27 400.38 232.47 C 398.18 235.73 393.59 235.79 390.07 235.46 C 385.21 235.08 382.70 230.39 378.66 228.37 C 375.46 226.73 372.17 225.19 369.38 222.89 C 370.66 221.53 371.74 219.14 374.03 220.05 C 376.39 221.39 377.36 224.44 379.99 225.40 C 382.58 225.55 384.15 223.10 385.18 221.09 C 387.52 217.89 381.92 213.44 386.04 210.92 Z" />
<path fill="#a1539b" opacity="1.00" d=" M 338.42 221.84 C 338.22 220.32 339.81 219.71 340.70 218.84 C 341.43 223.05 341.58 228.51 338.15 231.56 C 338.18 228.32 338.21 225.08 338.42 221.84 Z" />
<path fill="#a1539b" opacity="1.00" d=" M 333.27 220.38 C 333.81 221.36 335.33 222.08 335.11 223.38 C 334.75 226.11 334.56 228.85 334.74 231.60 C 331.85 230.75 332.47 227.37 332.11 225.07 C 331.77 223.37 332.55 221.84 333.27 220.38 Z" />
<path fill="#a1539b" opacity="1.00" d=" M 329.06 238.99 C 332.19 234.68 337.95 233.86 342.90 234.04 C 345.39 235.28 343.46 238.15 343.18 240.12 C 343.68 242.30 345.55 244.78 347.99 244.64 C 350.32 243.75 351.55 241.03 354.11 240.59 C 355.11 241.28 356.07 242.02 356.99 242.83 C 353.30 245.39 348.78 246.44 345.30 249.31 C 341.64 252.56 335.66 253.09 331.57 250.43 C 329.16 247.28 328.53 242.84 329.06 238.99 Z" />
</g>
<g id="#a1549bff">
<path fill="#a1549b" opacity="1.00" d=" M 414.10 111.65 C 415.15 107.65 414.75 103.08 417.38 99.65 C 418.71 103.92 416.99 108.42 414.90 112.15 C 416.14 114.01 414.86 116.05 414.79 118.02 C 415.16 119.80 416.20 121.69 418.01 122.35 C 420.43 122.05 421.02 118.46 423.50 118.41 C 424.10 118.86 425.29 119.75 425.89 120.19 C 423.81 122.10 421.30 123.38 418.95 124.90 C 416.38 126.59 414.40 129.70 411.01 129.68 C 408.74 129.76 405.77 129.42 404.77 127.01 C 403.52 123.87 403.03 120.38 403.32 117.02 C 405.02 112.81 409.98 111.59 414.10 111.65 Z" />
</g>
<g id="#96bb4bf5">
<path fill="#96bb4b" opacity="0.96" d=" M 367.75 113.90 C 366.78 110.09 363.20 105.25 366.81 101.90 C 368.19 105.61 369.87 109.88 368.84 113.81 C 368.56 113.83 368.02 113.88 367.75 113.90 Z" />
</g>
<g id="#a1549cff">
<path fill="#a1549c" opacity="1.00" d=" M 463.23 109.05 C 462.68 107.32 463.74 105.08 465.70 105.08 C 467.98 108.46 466.38 112.72 466.25 116.47 C 466.34 118.13 465.04 119.11 463.70 119.76 C 463.81 116.17 463.85 112.59 463.23 109.05 Z" />
<path fill="#a1549c" opacity="1.00" d=" M 451.77 121.76 C 450.39 116.93 446.80 111.47 449.84 106.64 C 453.01 110.46 452.86 115.76 453.51 120.41 C 453.34 120.76 453.02 121.45 452.86 121.80 C 452.59 121.79 452.04 121.77 451.77 121.76 Z" />
<path fill="#a1549c" opacity="1.00" d=" M 431.49 160.39 C 432.36 159.79 433.25 159.19 434.14 158.60 C 435.49 161.68 434.40 165.04 433.78 168.16 C 433.78 169.76 432.20 170.32 431.13 171.13 C 431.25 167.55 431.40 163.97 431.49 160.39 Z" />
<path fill="#a1549c" opacity="1.00" d=" M 423.88 163.87 C 423.49 162.28 425.12 161.30 425.80 160.09 C 429.11 163.08 426.35 167.67 427.05 171.47 C 423.56 170.60 424.32 166.59 423.88 163.87 Z" />
<path fill="#a1549c" opacity="1.00" d=" M 424.02 175.91 C 427.94 174.02 432.55 173.44 436.82 174.10 C 437.47 174.65 438.09 175.23 438.69 175.86 C 438.21 177.22 437.52 178.51 437.10 179.89 C 438.05 182.25 440.27 184.64 443.04 184.36 C 445.38 183.70 446.83 181.47 449.05 180.55 C 450.83 180.04 452.22 181.62 453.69 182.31 C 450.94 184.33 447.66 185.34 444.51 186.51 C 440.56 187.94 437.47 191.42 433.09 191.66 C 429.73 191.86 425.89 192.03 423.04 189.94 C 420.83 187.56 420.23 184.09 420.00 180.96 C 419.40 178.31 422.16 177.01 424.02 175.91 Z" />
<path fill="#a1549c" opacity="1.00" d=" M 343.21 232.77 C 343.38 229.13 343.75 225.03 346.26 222.15 C 346.59 222.82 347.26 224.15 347.60 224.82 C 346.68 227.71 345.89 230.68 344.41 233.35 C 344.11 233.21 343.51 232.92 343.21 232.77 Z" />
<path fill="#a1549c" opacity="1.00" d=" M 323.73 228.98 C 323.08 227.21 326.82 225.81 327.20 227.94 C 328.41 230.63 328.95 233.56 329.12 236.50 C 326.87 234.37 324.91 231.86 323.73 228.98 Z" />
</g>
<g id="#a32b30ff">
<path fill="#a32b30" opacity="1.00" d=" M 140.43 219.67 C 143.51 223.15 140.63 228.03 141.58 232.18 C 137.69 230.59 139.57 225.31 138.71 222.03 C 139.14 221.44 140.00 220.26 140.43 219.67 Z" />
</g>
<g id="#262324ff">
<path fill="#262324" opacity="1.00" d=" M 388.06 287.40 C 391.86 287.43 395.67 287.43 399.47 287.48 C 399.28 301.05 399.44 314.62 399.30 328.19 C 395.49 328.19 391.68 328.19 387.87 328.18 C 388.03 314.59 387.80 300.99 388.06 287.40 Z" />
<path fill="#262324" opacity="1.00" d=" M 477.80 289.75 C 486.45 284.82 497.92 285.83 505.95 291.59 C 503.60 293.76 501.24 295.91 498.89 298.08 C 495.15 295.47 490.17 293.52 485.77 295.70 C 483.41 296.64 482.98 300.34 485.37 301.48 C 491.19 304.52 498.74 304.44 503.29 309.71 C 507.80 315.11 504.94 323.99 498.81 326.88 C 489.64 331.39 477.82 329.89 469.84 323.55 C 472.30 321.39 474.76 319.25 477.19 317.05 C 480.56 319.59 484.59 321.78 488.97 321.20 C 491.29 321.10 493.99 319.62 493.96 317.00 C 494.07 314.76 491.82 313.62 490.06 312.90 C 484.91 310.88 478.75 310.42 474.78 306.17 C 470.34 301.33 472.14 292.85 477.80 289.75 Z" />
<path fill="#262324" opacity="1.00" d=" M 409.00 287.43 C 414.99 287.48 420.98 287.48 426.98 287.51 C 431.96 287.64 437.39 288.25 441.30 291.65 C 445.90 295.53 446.03 303.52 441.55 307.53 C 439.73 309.15 437.41 310.01 435.22 311.01 C 439.19 316.78 443.27 322.47 447.22 328.26 C 442.79 328.33 438.37 328.33 433.95 328.29 C 430.60 322.89 427.22 317.51 423.85 312.13 C 422.59 312.12 421.33 312.12 420.07 312.11 C 420.08 317.49 420.02 322.87 419.99 328.25 C 416.30 328.25 412.62 328.25 408.94 328.25 C 408.88 314.64 409.02 301.04 409.00 287.43 M 420.00 295.49 C 420.00 298.65 420.00 301.81 420.01 304.97 C 423.87 304.78 428.10 305.50 431.64 303.56 C 434.27 302.14 434.25 297.73 431.43 296.52 C 427.84 294.99 423.80 295.62 420.00 295.49 Z" />
<path fill="#262324" opacity="1.00" d=" M 452.81 287.57 C 456.62 287.56 460.43 287.56 464.25 287.57 C 464.30 301.17 464.16 314.77 464.19 328.37 C 460.37 328.39 456.56 328.35 452.76 328.30 C 452.73 314.72 452.86 301.15 452.81 287.57 Z" />
</g>
<g id="#020403ff">
<path fill="#020403" opacity="1.00" d=" M 637.16 308.15 C 642.20 300.04 654.97 298.72 661.89 305.07 C 665.06 307.92 665.67 312.33 665.82 316.36 C 657.11 316.41 648.41 316.37 639.71 316.32 C 640.36 321.87 645.35 326.18 650.93 326.06 C 655.05 326.42 658.60 324.07 661.50 321.43 C 662.39 322.30 663.41 323.06 664.23 324.03 C 658.20 330.85 646.51 331.29 639.71 325.40 C 634.86 321.24 633.74 313.53 637.16 308.15 M 639.69 313.14 C 646.90 313.21 654.11 313.21 661.33 313.14 C 660.43 310.25 659.35 306.98 656.36 305.63 C 649.94 302.35 641.24 305.91 639.69 313.14 Z" />
<path fill="#020403" opacity="1.00" d=" M 679.56 305.93 C 682.88 302.75 687.34 300.60 692.04 301.27 C 696.84 301.35 701.38 305.00 701.87 309.89 C 702.37 316.21 701.92 322.57 702.05 328.91 C 700.51 328.87 698.98 328.84 697.46 328.81 C 697.31 322.54 697.98 316.22 697.07 310.00 C 696.42 305.90 691.85 303.98 688.11 304.62 C 683.78 304.91 680.28 308.74 679.99 312.99 C 679.57 318.25 679.93 323.54 679.74 328.81 C 678.23 328.81 676.72 328.82 675.22 328.83 C 675.20 319.84 675.41 310.85 675.06 301.87 C 676.50 301.87 677.95 301.87 679.41 301.88 C 679.45 303.22 679.51 304.57 679.56 305.93 Z" />
<path fill="#020403" opacity="1.00" d=" M 964.18 308.24 C 969.47 300.75 981.54 299.66 988.33 305.65 C 991.61 308.51 992.28 313.00 992.40 317.11 C 983.69 317.21 975.00 316.97 966.30 317.11 C 967.03 320.37 968.55 323.72 971.74 325.25 C 977.02 328.32 983.85 326.64 987.90 322.30 C 989.01 323.04 990.12 323.78 991.24 324.53 C 984.93 331.44 973.04 332.26 966.08 325.93 C 961.20 321.56 960.35 313.54 964.18 308.24 M 966.35 313.81 C 973.50 314.03 980.66 313.93 987.81 313.91 C 987.07 311.39 986.39 308.55 984.03 307.04 C 977.78 302.73 967.88 306.12 966.35 313.81 Z" />
<path fill="#020403" opacity="1.00" d=" M 1002.99 303.99 C 1008.94 300.42 1017.28 301.51 1022.04 306.62 C 1020.88 307.39 1019.74 308.17 1018.60 308.94 C 1015.55 305.58 1010.45 304.08 1006.31 306.24 C 1003.95 307.22 1003.43 310.94 1005.85 312.16 C 1010.46 314.57 1016.36 313.94 1020.46 317.48 C 1023.79 320.56 1022.41 326.54 1018.50 328.49 C 1011.96 331.82 1003.23 330.52 998.20 325.07 C 999.36 324.32 1000.57 323.58 1001.77 322.85 C 1005.17 326.27 1010.36 328.05 1015.00 326.15 C 1017.42 325.40 1018.82 322.05 1016.98 320.06 C 1012.53 316.72 1006.15 317.76 1001.81 314.22 C 998.66 311.54 999.50 306.00 1002.99 303.99 Z" />
<path fill="#020403" opacity="1.00" d=" M 783.42 363.47 C 788.71 359.70 796.13 360.62 801.24 364.28 C 800.34 365.02 799.44 365.77 798.55 366.51 C 795.20 363.63 790.03 362.52 786.23 365.17 C 783.79 366.66 783.25 370.62 785.59 372.44 C 789.74 375.42 795.55 375.03 799.42 378.54 C 802.91 381.84 801.66 388.23 797.47 390.37 C 791.78 393.39 783.91 392.53 779.56 387.56 C 780.52 387.01 781.50 386.48 782.48 385.95 C 785.90 389.36 791.61 390.85 795.74 387.80 C 798.41 386.13 798.73 381.82 796.04 380.03 C 791.96 377.32 786.52 377.52 782.72 374.32 C 779.53 371.53 779.97 365.87 783.42 363.47 Z" />
<path fill="#020403" opacity="1.00" d=" M 873.76 368.37 C 877.10 365.47 880.65 362.03 885.30 361.69 C 885.21 371.64 885.26 381.60 885.25 391.55 C 884.37 391.55 882.59 391.55 881.70 391.55 C 881.81 383.00 881.71 374.45 881.77 365.90 C 879.72 367.35 877.70 368.83 875.71 370.35 C 875.22 369.85 874.25 368.86 873.76 368.37 Z" />
<path fill="#020403" opacity="1.00" d=" M 997.38 362.58 C 1004.72 360.21 1013.86 361.81 1018.77 368.14 C 1023.04 373.52 1022.70 381.96 1017.96 386.96 C 1011.00 394.37 997.82 394.48 990.60 387.40 C 985.89 382.82 985.03 374.98 988.47 369.43 C 990.46 366.13 993.76 363.79 997.38 362.58 M 1000.47 364.64 C 994.29 365.75 989.43 371.73 990.13 378.06 C 990.40 385.45 997.98 390.56 1004.99 389.82 C 1012.22 389.89 1018.97 383.37 1018.00 375.95 C 1017.56 367.53 1008.10 362.61 1000.47 364.64 Z" />
<path fill="#020403" opacity="1.00" d=" M 1029.81 368.64 C 1033.55 366.18 1036.80 362.24 1041.60 362.12 C 1041.64 372.03 1041.48 381.95 1041.60 391.86 C 1040.41 391.90 1039.24 391.94 1038.08 391.99 C 1038.04 383.40 1038.06 374.82 1038.07 366.23 C 1036.04 367.70 1034.03 369.18 1032.02 370.66 C 1031.47 370.15 1030.37 369.14 1029.81 368.64 Z" />
<path fill="#020403" opacity="1.00" d=" M 1083.97 362.70 C 1090.63 362.19 1097.35 362.64 1104.03 362.51 C 1103.81 366.38 1101.59 369.63 1099.90 372.99 C 1096.63 379.33 1093.39 385.69 1090.11 392.04 C 1088.78 392.00 1087.46 391.97 1086.15 391.93 C 1090.87 383.07 1095.59 374.19 1100.16 365.25 C 1094.56 365.25 1088.98 365.19 1083.39 365.16 C 1083.54 364.54 1083.82 363.32 1083.97 362.70 Z" />
<path fill="#020403" opacity="1.00" d=" M 1113.12 368.73 C 1116.87 366.36 1120.09 362.47 1124.85 362.32 C 1124.92 372.27 1124.86 382.22 1124.81 392.17 C 1123.62 392.11 1122.44 392.04 1121.29 391.99 C 1121.30 383.48 1121.43 374.97 1121.35 366.47 C 1119.30 367.91 1117.27 369.38 1115.25 370.86 C 1114.72 370.33 1113.65 369.26 1113.12 368.73 Z" />
<path fill="#020403" opacity="1.00" d=" M 448.91 381.01 C 448.57 371.45 461.37 367.70 468.18 372.81 C 470.04 373.37 467.60 374.82 467.34 375.65 C 464.41 373.34 460.43 372.06 456.91 373.84 C 452.08 375.74 450.93 382.80 454.66 386.30 C 457.50 389.00 462.13 389.35 465.43 387.29 C 466.52 386.16 470.15 386.33 468.62 388.53 C 462.12 394.13 448.88 390.52 448.91 381.01 Z" />
<path fill="#020403" opacity="1.00" d=" M 479.43 371.57 C 484.59 369.64 491.32 370.49 494.85 375.05 C 498.11 379.17 497.12 385.83 492.76 388.79 C 486.93 392.90 477.07 391.81 473.73 385.02 C 471.19 379.94 474.13 373.37 479.43 371.57 M 481.51 373.61 C 476.81 375.04 474.86 381.26 477.66 385.22 C 481.45 390.99 492.40 389.30 493.17 382.01 C 494.37 375.69 486.98 371.28 481.51 373.61 Z" />
<path fill="#020403" opacity="1.00" d=" M 520.97 371.17 C 521.79 371.17 523.44 371.18 524.26 371.19 C 524.23 371.93 524.15 373.43 524.12 374.18 C 528.65 370.21 535.84 369.39 540.70 373.25 C 545.60 376.87 545.62 385.07 540.74 388.73 C 535.90 392.60 528.72 391.79 524.16 387.87 C 524.30 392.16 524.26 396.45 524.20 400.74 C 523.36 400.74 521.69 400.73 520.85 400.73 C 521.01 390.87 520.88 381.02 520.97 371.17 M 529.53 373.61 C 525.35 374.69 522.71 379.59 524.37 383.64 C 526.40 389.18 534.43 390.38 538.59 386.60 C 541.63 383.70 541.64 378.28 538.59 375.40 C 536.20 373.18 532.58 372.71 529.53 373.61 Z" />
<path fill="#020403" opacity="1.00" d=" M 556.47 371.68 C 563.64 368.55 574.55 373.05 573.62 381.93 C 572.66 392.40 556.85 394.51 551.37 386.53 C 547.63 381.41 550.49 373.53 556.47 371.68 M 559.37 373.49 C 554.65 374.31 551.83 379.92 553.89 384.22 C 556.37 390.11 565.92 390.43 569.07 385.00 C 570.87 381.97 570.32 377.70 567.64 375.36 C 565.42 373.39 562.20 372.87 559.37 373.49 Z" />
<path fill="#020403" opacity="1.00" d=" M 743.41 374.00 C 747.15 371.63 751.78 370.44 756.13 371.70 C 758.56 372.38 760.96 374.26 761.15 376.96 C 761.52 381.87 761.20 386.80 761.50 391.73 C 759.68 391.56 758.44 390.65 758.04 388.89 C 754.41 391.93 748.86 392.90 744.77 390.24 C 741.49 388.30 741.60 382.80 745.09 381.14 C 749.22 379.01 754.05 379.45 758.55 379.13 C 758.16 376.23 756.25 373.45 753.01 373.68 C 749.64 372.68 746.00 377.51 743.41 374.00 M 746.23 384.18 C 744.23 388.26 749.88 390.24 752.98 389.14 C 756.70 388.64 758.29 384.86 758.49 381.52 C 754.40 381.83 749.38 381.02 746.23 384.18 Z" />
</g>
<g id="#de9131ff">
<path fill="#de9131" opacity="1.00" d=" M 408.99 344.81 C 650.12 344.81 891.25 344.81 1132.38 344.81 C 1132.36 346.12 1132.35 347.44 1132.36 348.76 C 891.25 348.75 650.13 348.74 409.02 348.76 C 409.00 347.44 408.99 346.13 408.99 344.81 Z" />
</g>
<g id="#010303ff">
<path fill="#010303" opacity="1.00" d=" M 939.46 362.22 C 940.62 362.16 941.79 362.10 942.97 362.05 C 942.97 369.04 943.09 376.03 942.96 383.02 C 942.92 385.87 942.20 389.06 939.70 390.78 C 934.63 394.23 926.34 392.32 924.47 386.08 C 927.47 384.78 928.93 387.66 930.97 389.16 C 934.21 390.77 939.04 388.90 939.23 384.95 C 939.74 377.39 939.42 369.79 939.46 362.22 Z" />
<path fill="#010303" opacity="1.00" d=" M 693.74 373.97 C 698.19 371.03 704.44 369.80 709.15 372.83 C 711.21 374.14 711.81 376.69 711.74 378.99 C 711.80 383.14 711.72 387.30 711.93 391.46 C 709.96 391.41 708.55 390.64 708.64 388.44 C 705.10 391.93 699.17 392.84 694.99 389.99 C 692.00 388.03 692.04 382.93 695.24 381.19 C 699.38 378.86 704.34 379.34 708.91 379.03 C 708.49 376.36 707.05 373.55 703.94 373.62 C 700.36 372.54 696.79 377.01 693.74 373.97 M 696.47 384.42 C 695.05 388.23 700.18 390.00 703.10 389.09 C 706.96 388.72 708.70 384.85 708.91 381.41 C 704.81 381.79 699.31 380.76 696.47 384.42 Z" />
</g>
<g id="#010302ff">
<path fill="#010302" opacity="1.00" d=" M 503.62 371.14 C 504.34 371.15 505.78 371.18 506.50 371.20 C 506.65 371.79 506.93 372.98 507.08 373.57 C 509.74 371.46 512.94 370.43 516.34 370.59 C 516.24 371.30 516.03 372.71 515.93 373.42 C 512.93 373.34 509.14 373.59 507.85 376.83 C 506.30 381.26 507.23 386.10 507.01 390.70 C 506.18 390.69 504.51 390.66 503.68 390.65 C 503.66 384.14 503.76 377.64 503.62 371.14 Z" />
<path fill="#010302" opacity="1.00" d=" M 809.26 387.36 C 810.91 386.33 813.85 387.91 813.05 390.00 C 812.47 391.93 809.54 392.21 808.40 390.69 C 807.30 389.78 807.99 387.77 809.26 387.36 Z" />
<path fill="#010302" opacity="1.00" d=" M 850.31 387.33 C 851.95 386.58 854.45 388.02 853.87 389.97 C 853.38 391.95 850.33 392.38 849.21 390.77 C 847.92 389.80 848.91 387.64 850.31 387.33 Z" />
</g>
<g id="#262424ff">
<path fill="#262424" opacity="1.00" d=" M 174.87 392.31 C 181.98 390.83 189.26 391.34 196.47 391.19 C 212.20 390.26 227.51 397.52 238.30 408.72 C 247.40 398.60 260.54 392.08 274.14 391.24 C 280.75 391.27 287.37 391.11 293.97 391.36 C 302.08 391.96 309.94 394.21 317.93 395.56 C 343.54 400.27 369.30 404.09 395.14 407.30 C 396.72 415.96 398.94 424.73 404.09 432.04 C 410.01 432.58 415.99 432.65 421.89 433.51 C 427.88 434.46 431.96 441.16 430.28 446.95 C 429.04 452.30 423.43 455.80 418.06 455.03 C 373.48 451.72 328.90 448.37 284.32 445.06 C 280.84 450.51 276.50 455.49 271.05 459.05 C 262.95 464.61 253.18 467.01 243.53 468.00 L 232.36 468.00 C 221.89 467.26 211.26 464.55 202.65 458.31 C 197.68 454.86 193.70 450.19 190.51 445.09 C 146.01 448.31 101.52 451.72 57.02 455.01 C 51.98 455.74 46.53 452.98 44.86 448.04 C 42.71 442.42 45.83 435.34 51.77 433.77 C 58.39 432.30 65.28 432.99 71.93 431.74 C 77.82 425.04 79.27 415.77 81.12 407.32 C 112.53 403.42 143.86 398.66 174.87 392.31 M 177.02 404.68 C 155.63 409.08 134.07 412.66 112.45 415.72 C 110.97 415.71 109.98 416.83 109.05 417.82 L 109.15 417.11 L 108.85 416.40 C 103.08 416.93 97.37 417.97 91.62 418.64 C 90.49 422.76 89.12 426.81 87.48 430.75 C 121.99 428.19 156.50 425.63 191.00 423.03 C 195.24 422.50 199.53 422.36 203.59 423.85 C 205.86 425.99 207.81 428.49 208.61 431.56 C 210.16 436.74 214.45 440.62 219.26 442.82 C 226.35 446.11 234.39 446.43 242.07 445.99 C 249.30 445.52 256.92 443.50 262.16 438.20 C 266.04 434.60 266.29 428.86 269.61 424.86 C 272.28 423.82 274.90 422.20 277.89 422.62 C 288.93 423.40 299.95 424.32 310.99 425.05 C 336.94 427.00 362.89 428.94 388.84 430.91 C 387.18 426.89 385.79 422.78 384.60 418.60 C 379.16 417.93 373.73 417.17 368.30 416.42 C 345.41 413.07 322.55 409.49 299.89 404.77 C 285.79 401.84 270.22 402.16 257.41 409.40 C 251.97 412.61 246.61 417.12 244.70 423.33 C 243.53 423.49 244.85 425.98 244.03 426.87 C 243.94 431.49 237.63 433.76 234.30 430.81 C 231.36 428.87 232.44 424.99 231.37 422.19 C 228.27 415.49 222.09 410.72 215.51 407.68 C 203.51 402.26 189.75 402.08 177.02 404.68 Z" />
</g>
<g id="#ffffffff">
<path fill="#ffffff" opacity="1.00" d=" M 177.02 404.68 C 189.75 402.08 203.51 402.26 215.51 407.68 C 222.09 410.72 228.27 415.49 231.37 422.19 C 231.38 422.75 231.40 423.88 231.41 424.44 C 222.14 424.08 212.86 424.30 203.59 423.85 C 199.53 422.36 195.24 422.50 191.00 423.03 C 185.01 423.42 179.00 423.66 173.00 423.52 C 150.44 423.19 127.88 422.82 105.31 422.55 C 106.55 420.97 107.79 419.38 109.05 417.82 C 109.98 416.83 110.97 415.71 112.45 415.72 C 134.07 412.66 155.63 409.08 177.02 404.68 Z" />
<path fill="#ffffff" opacity="1.00" d=" M 257.41 409.40 C 270.22 402.16 285.79 401.84 299.89 404.77 C 322.55 409.49 345.41 413.07 368.30 416.42 C 367.45 419.72 366.63 423.03 365.81 426.34 C 347.53 426.09 329.25 425.96 310.99 425.05 C 299.95 424.32 288.93 423.40 277.89 422.62 C 274.90 422.20 272.28 423.82 269.61 424.86 C 261.28 424.87 252.94 424.79 244.62 424.44 C 244.64 424.16 244.68 423.61 244.70 423.33 C 246.61 417.12 251.97 412.61 257.41 409.40 Z" />
</g>
</svg>
