<?xml version="1.0" encoding="iso-8859-1"?>
<!-- Generator: Adobe Illustrator 18.1.1, SVG Export Plug-In . SVG Version: 6.00 Build 0)  -->
<svg xmlns="http://www.w3.org/2000/svg" xmlns:xlink="http://www.w3.org/1999/xlink" version="1.1" id="Capa_1" x="0px" y="0px" viewBox="0 0 293.372 293.372" style="enable-background:new 0 0 293.372 293.372;" xml:space="preserve" width="512px" height="512px">
<g>
	<g>
		<g>
			<path d="M146.689,293.372c-80.884,0-146.686-65.807-146.686-146.686S65.805,0,146.689,0     S293.37,65.807,293.37,146.686S227.573,293.372,146.689,293.372z M146.689,21.463c-69.043,0-125.218,56.18-125.218,125.224     c0,69.038,56.175,125.213,125.218,125.213s125.218-56.169,125.218-125.207C271.907,77.643,215.738,21.463,146.689,21.463z" fill="#01785a"/>
		</g>
		<g>
			<path d="M146.689,249.827c-45.802,0-85.48-29.442-98.735-73.232c-1.719-5.673,1.49-11.667,7.163-13.375     c5.689-1.74,11.667,1.474,13.38,7.158c10.329,34.141,42.485,57.975,78.187,57.975c35.963,0,68.184-24.062,78.344-58.524     c1.675-5.678,7.631-8.969,13.331-7.25c5.684,1.681,8.936,7.636,7.261,13.315C232.789,219.434,192.105,249.827,146.689,249.827z" fill="#01785a"/>
		</g>
		<g>
			<g>
				<circle cx="113.521" cy="132.517" r="14.163" fill="#01785a"/>
			</g>
			<g>
				<circle cx="179.856" cy="132.517" r="14.163" fill="#01785a"/>
			</g>
		</g>
	</g>
</g>
<g>
</g>
<g>
</g>
<g>
</g>
<g>
</g>
<g>
</g>
<g>
</g>
<g>
</g>
<g>
</g>
<g>
</g>
<g>
</g>
<g>
</g>
<g>
</g>
<g>
</g>
<g>
</g>
<g>
</g>
</svg>
