<svg id="Capa_1" enable-background="new 0 0 512.001 512.001" height="512" viewBox="0 0 512.001 512.001" width="512" xmlns="http://www.w3.org/2000/svg"><path d="m461.858 7.5h-200.341c-23.17 0-41.953 18.783-41.953 41.953v126.234c0 23.17 18.783 41.953 41.953 41.953h127.598c4.562 0 8.978 1.61 12.468 4.548l65.352 54.984c5.379 4.526 13.341-.756 11.262-7.472l-9.977-32.23c-2.891-9.338 1.602-19.434 10.547-23.378 14.749-6.503 25.044-21.251 25.044-38.405v-126.234c.001-23.17-18.782-41.953-41.953-41.953z" fill="#ffe02f"/><path d="m461.858 7.5h-22.729c17.978 4.737 31.236 21.101 31.236 40.567v117.158c0 18.476-11.944 34.163-28.532 39.76-7.033 2.373-10.758 10.074-8.563 17.164l11.175 36.101 22.489 18.922c5.379 4.526 13.341-.756 11.262-7.472l-9.977-32.23c-2.891-9.338 1.602-19.434 10.547-23.378 14.749-6.503 25.044-21.251 25.044-38.405v-126.234c.002-23.17-18.781-41.953-41.952-41.953z" fill="#fbc700"/><path d="m296.649 176.143-256.991 5.263c-19.383.397-33.999 17.746-31.098 36.915l20.111 132.914c2.54 16.787 17.706 28.696 34.616 27.185l33.178-2.967-27.335 37.432c-2 2.721-1.678 6.503.753 8.847l32.619 31.451c2.368 2.283 2.743 5.942.887 8.657l-23.138 33.86c-3.51 5.136 2.726 11.306 7.824 7.742l64.702-45.223c3.24-2.534 3.476-7.355.498-10.192l-23.629-22.515c-3.242-3.089-2.627-8.422 1.232-10.692l72.581-48.936 81.569-7.294c15.021-1.343 27.084-12.956 28.997-27.915l15.138-118.348c2.49-19.46-12.898-36.586-32.514-36.184z" fill="#98db7c"/><path d="m296.649 176.143-28.957.593c16.847 3.183 31.23 18.659 28.179 38.618l-18.408 143.914 7.566-.677c15.021-1.343 27.084-12.956 28.997-27.915l15.138-118.348c2.489-19.461-12.899-36.587-32.515-36.185z" fill="#6acb44"/><path d="m95.233 417.846c-3.859 2.27-4.474 7.603-1.232 10.692l23.629 22.515c2.978 2.838 2.743 7.658-.498 10.192l-25.529 17.843-11.352 16.612c-3.51 5.136 2.726 11.306 7.824 7.742l64.702-45.223c3.24-2.534 3.476-7.355.498-10.192l-23.629-22.515c-3.242-3.089-2.627-8.422 1.232-10.692l72.581-48.936-35.646 3.025z" fill="#6acb44"/><path d="m261.812 67.699h199.752c4.143 0 7.5-3.357 7.5-7.5s-3.357-7.5-7.5-7.5h-199.752c-4.143 0-7.5 3.357-7.5 7.5s3.358 7.5 7.5 7.5z"/><path d="m261.812 121.691h199.752c4.143 0 7.5-3.357 7.5-7.5s-3.357-7.5-7.5-7.5h-199.752c-4.143 0-7.5 3.357-7.5 7.5s3.358 7.5 7.5 7.5z"/><path d="m461.564 160.684h-63.781c-4.143 0-7.5 3.357-7.5 7.5s3.357 7.5 7.5 7.5h63.781c4.143 0 7.5-3.357 7.5-7.5s-3.357-7.5-7.5-7.5z"/><path d="m135.041 258.888-9.747.698 1.853-16.211c-.438-4.366-4.187-5.855-7.936-5.587-3.125.224-6.16 1.697-6.383 3.849l-2.03 18.988-13.747.984 1.728-16.202c-.313-4.375-4.063-5.864-7.811-5.596-3.125.225-6.16 1.697-6.508 3.858l-2.031 18.987-12.246.878c-2.749.196-4.312 2.946-4.061 6.445.26 3.624 2.171 5.747 5.045 5.542l9.748-.699-1.648 15.569-12.121.868c-2.625.188-4.303 3.071-4.052 6.571.251 3.499 2.17 5.748 4.92 5.552l9.747-.699-1.728 17.96c.287 3.999 4.804 5.685 8.302 5.435 2.5-.18 5.767-1.92 5.98-4.197l2.191-20.254 13.497-.967-1.854 17.969c.287 3.999 4.929 5.676 8.428 5.425 2.75-.196 5.892-1.929 6.104-4.205l2.192-20.254 12.122-.869c2.249-.161 4.569-2.84 4.31-6.464-.242-3.374-2.929-5.819-5.303-5.648l-9.748.698 1.772-15.578 11.998-.859c2.374-.171 4.444-2.831 4.194-6.33-.249-3.499-2.802-5.827-5.177-5.657zm-27.532 29.481-13.497.967 1.648-15.569 13.621-.976z"/><path d="m199.529 243.841c-.747.053.197-.258-15.254 6.242l-.379-14.041c-.375-3.49-3.115-4.926-6.114-4.711s-5.508 2.026-5.382 5.535l1.619 13.827c-16.459-4.164-14.924-3.957-15.855-3.889-3.373.241-5.648 3.546-5.442 6.419.188 2.625 1.473 4.793 4.008 5.114l14.158 3.005c-8.915 14.667-9.145 14.348-9.002 16.347.25 3.499 4.65 5.319 7.15 5.14 4.166-.298 3.219-2.876 11.298-15.882 9.073 10.338 8.846 14.437 13.696 14.092 3.124-.225 6.328-2.84 6.077-6.34-.217-3.051-1.545-2.998-11.145-15.28l13.256-4.341c2.589-.688 3.561-2.893 3.408-5.018-.223-3.122-2.722-6.461-6.097-6.219z"/><path d="m233.898 302.801c-4.874.35-8.221 4.484-7.89 9.108.322 4.498 4.233 8.238 9.107 7.889 4.624-.331 8.212-4.608 7.89-9.106-.331-4.625-4.483-8.222-9.107-7.891z"/><path d="m233.128 293.813c2.5-.179 6.025-1.813 5.784-5.188-1.183-16.495-1.008-38.615-2.19-55.111-.313-4.374-4.117-6.613-8.366-6.31-4.373.313-7.568 3.055-7.255 7.429 1.183 16.496 4.382 38.375 5.564 54.87.241 3.375 3.215 4.543 6.463 4.31z"/><path d="m269.012 300.285c-4.875.349-8.221 4.483-7.89 9.107.322 4.498 4.232 8.238 9.107 7.89 4.623-.332 8.211-4.609 7.889-9.107-.33-4.624-4.483-8.222-9.106-7.89z"/><path d="m268.242 291.297c2.499-.179 6.025-1.813 5.784-5.188-1.183-16.495-1.009-38.616-2.191-55.112-.313-4.374-4.116-6.613-8.365-6.309-4.374.313-7.569 3.054-7.256 7.428 1.183 16.496 4.383 38.375 5.565 54.87.241 3.375 3.214 4.543 6.463 4.311z"/><path d="m296.496 168.645-256.991 5.264c-23.865.487-41.942 21.87-38.361 45.535l20.111 132.914c3.127 20.664 21.872 35.375 42.7 33.533l16.692-1.493-17.56 24.046c-4.207 5.724-3.523 13.757 1.59 18.688l32.158 31.006-22.776 33.331c-3.628 5.309-2.969 12.175 1.602 16.697 4.555 4.506 11.424 5.12 16.712 1.424l64.702-45.223c.109-.077.218-.157.323-.239 6.845-5.354 7.337-15.541 1.052-21.529l-22.938-21.856 70.54-47.56 79.645-7.122c18.384-1.643 33.427-16.124 35.769-34.433l15.138-118.349c3.062-23.941-15.841-45.096-40.108-44.634zm25.228 42.732-15.138 118.349c-1.455 11.376-10.802 20.374-22.226 21.396l-81.568 7.294c-3.636.324-.637-.305-75.949 50.081-7.957 4.881-9.152 15.985-2.37 22.446l22.95 21.869-55.095 38.508 17.253-25.248c3.934-5.757 3.146-13.448-1.873-18.287l-32.144-30.992 26.957-36.916c3.786-5.186-.296-12.461-6.725-11.894l-33.179 2.968c-12.912 1.142-24.591-7.996-26.532-20.837l-20.11-132.915c-2.223-14.694 8.995-27.99 23.836-28.295l256.991-5.264c15.132-.264 26.82 12.892 24.922 27.737z"/><path d="m461.858 0h-200.341c-27.269 0-49.453 22.185-49.453 49.453v98.989c0 4.143 3.357 7.5 7.5 7.5s7.5-3.357 7.5-7.5v-98.989c0-18.997 15.456-34.453 34.453-34.453h200.341c18.997 0 34.453 15.456 34.453 34.453v126.233c0 13.653-8.074 26.034-20.569 31.543-12.407 5.47-18.721 19.424-14.687 32.458l9.515 30.74c-62.161-49.877-64.643-60.288-81.455-60.288h-30.943c-4.143 0-7.5 3.357-7.5 7.5s3.357 7.5 7.5 7.5h30.943c7.682 0 4.805 1.657 72.991 57.77 10.996 9.251 27.573-1.481 23.256-15.428l-9.977-32.229c-1.782-5.755.973-11.901 6.407-14.298 17.932-7.904 29.519-25.674 29.519-45.268v-126.233c0-27.268-22.184-49.453-49.453-49.453z"/></svg>