<?xml version="1.0" encoding="iso-8859-1"?>
<!-- Generator: Adobe Illustrator 19.0.0, SVG Export Plug-In . SVG Version: 6.00 Build 0)  -->
<svg version="1.1" id="Capa_1" xmlns="http://www.w3.org/2000/svg" xmlns:xlink="http://www.w3.org/1999/xlink" x="0px" y="0px"
	 viewBox="0 0 512 512" style="enable-background:new 0 0 512 512;" xml:space="preserve">
<path style="fill:#C86D5C;" d="M315.379,238.288c0,0,243.109-154.715,178.078-219.747S273.709,196.619,273.709,196.619
	L315.379,238.288z"/>
<path style="fill:#AD4F3D;" d="M493.455,18.542c-3.923-3.923-8.175-6.714-12.699-8.516
	c28.058,70.441-186.593,207.049-186.593,207.049l21.214,21.214C315.379,238.288,558.487,83.574,493.455,18.542z"/>
<path style="fill:#ECB000;" d="M306.798,280.977c22.388-7.413,53.471-38.334,8.013-83.791s-76.378-14.375-83.791,8.013
	L306.798,280.977z"/>
<path style="fill:#D29C00;" d="M314.812,197.186c-3.858-3.858-7.609-7.153-11.254-9.96c30.27,39.281,2.513,65.753-17.974,72.538
	l21.214,21.214C329.186,273.563,360.269,242.644,314.812,197.186z"/>
<path style="fill:#FFCE1C;" d="M277.172,234.826c-82.466-82.466-162.178,8.694-222.773,45.506l-15.227,39.617l61.237,91.638
	l95.113,60.369l36.143-14.358C268.476,397.004,359.637,317.292,277.172,234.826z"/>
<path style="fill:#ECB000;" d="M231.664,457.599c36.812-60.594,127.972-140.307,45.506-222.773
	c-3.713-3.713-7.421-7.062-11.122-10.092c64.261,78.484-26.787,162.892-61.941,220.758l17.493,19.069L231.664,457.599z"/>
<ellipse transform="matrix(0.7071 -0.7071 0.7071 0.7071 -280.2937 183.8185)" style="fill:#FFCE1C;" cx="81.742" cy="430.254" rx="39.718" ry="43.696"/>
<path style="fill:#ECB000;" d="M192.439,503.583c-24.712-7.722-64.086-26.701-110.704-73.32s-65.598-85.992-73.32-110.704
	c-3.648-11.692,3.839-23.696,15.844-26.075c9.389-1.867,19.474-6.671,30.14-13.151c8.66,24.868,28.09,62.088,71.635,105.632
	s80.763,62.974,105.632,71.634c-6.479,10.667-11.284,20.751-13.151,30.14C216.134,499.744,204.13,507.231,192.439,503.583z"/>
<path style="fill:#D29C00;" d="M218.514,487.74c1.867-9.389,6.671-19.474,13.151-30.14c-7.741-2.696-16.682-6.437-26.635-11.624
	c-3.712,7.16-6.431,14.024-7.729,20.55c-2.38,12.005-14.384,19.492-26.075,15.844c-22.779-7.118-58.023-23.821-99.909-62.9
	c3.315,3.554,6.773,7.149,10.419,10.796c46.618,46.618,85.992,65.597,110.704,73.32C204.13,507.231,216.134,499.744,218.514,487.74z
	"/>
<path d="M150.816,265.178l-7.727,7.727c-2.929,2.929-2.929,7.678,0,10.607c2.812,2.812,7.671,2.935,10.607,0l7.727-7.727
	c2.929-2.929,2.929-7.678,0-10.607C158.494,262.248,153.745,262.248,150.816,265.178z"/>
<path d="M236.206,350.568l-7.727,7.727c-2.929,2.929-2.929,7.678,0,10.607c2.898,2.898,7.713,2.893,10.607,0l7.727-7.727
	c2.929-2.929,2.929-7.678,0-10.607C243.884,347.639,239.135,347.639,236.206,350.568z"/>
<path d="M201.66,323.42c-3.396,0.229-6.817-1.119-9.394-3.695c-2.576-2.576-3.923-6-3.695-9.394c0.278-4.133-2.848-7.708-6.98-7.985
	c-4.127-0.285-7.708,2.847-7.985,6.98c-0.518,7.712,2.418,15.37,8.055,21.007c5.481,5.482,13.241,8.581,21.006,8.054
	c4.133-0.277,7.258-3.853,6.98-7.985C209.368,326.269,205.804,323.134,201.66,323.42z"/>
<path d="M498.732,13.259c-9.967-9.967-22.253-14.351-36.506-13.024c-27.162,2.525-61.771,26.602-102.866,71.563
	c-31.34,34.288-59.811,73.527-75.727,96.524c-4.516-1.288-8.995-1.959-13.426-1.959c-20.568,0-36.132,14.456-43.612,29.836
	c-15.735-3.647-32.188-3.102-49.536,1.605c-32.862,8.917-63.886,31.625-91.257,51.659c-12.483,9.137-24.273,17.767-35.324,24.48
	c-11.022,6.696-20.086,10.689-27.705,12.204c-16.054,3.193-26.467,19.891-21.543,35.67c5.755,18.422,17.482,44.563,41.341,75.517
	c-7.067,8.614-10.623,19.573-10.063,31.32c1.312,27.536,25.57,50.886,53.189,50.887c10.833,0,20.961-3.565,28.966-10.116
	c30.952,23.857,57.092,35.584,75.516,41.341c15.787,4.933,32.491-5.521,35.666-21.541c1.516-7.621,5.508-16.686,12.209-27.714
	c6.709-11.044,15.34-22.834,24.477-35.318c20.034-27.372,42.742-58.396,51.659-91.257c4.707-17.35,5.252-33.804,1.604-49.541
	c11.932-5.797,24.749-17.025,28.672-33.571c1.922-8.106,1.346-16.002-0.808-23.453c31.099-21.512,84.155-60.545,122.23-100.889
	c2.843-3.012,2.706-7.759-0.307-10.603c-3.013-2.844-7.759-2.705-10.603,0.307c-36.142,38.296-86.461,75.62-117.327,97.098
	c-2.837-4.991-6.445-10.017-10.766-15.047c-8.311-9.676-18.029-18.565-29.161-24.896c30.724-44.071,112.556-154.209,165.893-159.166
	c9.735-0.903,17.755,1.939,24.51,8.695c7.921,7.921,10.491,17.695,7.853,29.878c-2.561,11.834-9.99,25.785-22.083,41.468
	c-2.529,3.28-1.92,7.99,1.36,10.52c3.281,2.53,7.989,1.921,10.52-1.36c13.463-17.461,21.828-33.427,24.864-47.454
	C514.387,39.598,510.381,24.909,498.732,13.259z M85.693,464.538c-19.745,0-37.264-16.945-38.202-36.601
	c-0.326-6.832,1.358-13.234,4.807-18.541c0.738,0.877,1.501,1.762,2.259,2.646c14.704,17.144,30.753,33.101,48.032,47.645
	C97.715,462.845,91.891,464.538,85.693,464.538z M299.709,331.005c-8.188,30.176-30.022,60.007-49.286,86.326
	c-7.932,10.838-15.492,21.166-21.907,31.141c-0.061,0.077-17.629-7.717-25.248-11.942c-26.651-14.771-50.468-34.358-71.958-55.848
	c-13.757-13.758-25.967-27.801-36.292-41.739c-2.434-3.287-7.201-4.002-10.493-1.562c-3.329,2.465-4.028,7.162-1.562,10.492
	c7.875,10.631,16.794,21.3,26.598,31.853c25.006,26.913,53.365,51.404,85.513,69.42c7.777,4.358,25.233,12.218,25.657,12.389
	c-5.02,9.276-8.113,17.284-9.602,24.766c-6.431,32.329-82.038-24.455-92.163-32.566c-0.034-0.028-0.064-0.06-0.099-0.088
	c-22.246-17.86-42.681-38.257-60.522-60.523c-0.031-0.039-0.068-0.074-0.1-0.112c-25.094-31.333-37.035-57.539-42.698-75.665
	c-2.312-7.399,2.7-15.01,10.145-16.486c7.481-1.488,15.491-4.582,24.767-9.603c-0.207,0.129,2.677,6.307,2.888,6.779
	c3.697,8.29,8.003,16.518,12.665,24.39c2.076,3.508,6.771,4.709,10.275,2.634c3.565-2.109,4.744-6.709,2.634-10.275
	c-5.479-9.259-10.398-18.887-14.427-28.868c-0.331-0.818-0.654-1.633-0.97-2.447c9.973-6.415,20.299-13.972,31.136-21.904
	c26.319-19.264,56.15-41.099,86.326-49.286c15.652-4.247,32.222-4.75,47.775,0.099c14.758,4.6,29.251,13.943,43.079,27.769
	c13.829,13.829,23.171,28.322,27.769,43.079C304.448,298.758,303.982,315.258,299.709,331.005z M329.866,248.361
	c-2.395,10.099-10.32,17.975-18.701,22.558c-4.753-11.609-11.936-22.835-21.567-33.755c-4.615-5.232-9.555-10.165-14.786-14.784
	c-10.919-9.628-22.145-16.809-33.754-21.56c5.586-10.279,15.928-19.456,29.148-19.456c4.294,0,8.742,0.924,13.322,2.729
	c0.087,0.039,0.169,0.086,0.258,0.121c13.721,5.503,24.889,16.117,33.99,27.518C328.294,224.906,332.46,237.421,329.866,248.361z"/>
<g>
</g>
<g>
</g>
<g>
</g>
<g>
</g>
<g>
</g>
<g>
</g>
<g>
</g>
<g>
</g>
<g>
</g>
<g>
</g>
<g>
</g>
<g>
</g>
<g>
</g>
<g>
</g>
<g>
</g>
</svg>
