<?xml version="1.0" encoding="iso-8859-1"?>
<!-- Generator: Adobe Illustrator 19.0.0, SVG Export Plug-In . SVG Version: 6.00 Build 0)  -->
<svg version="1.1" id="Capa_1" xmlns="http://www.w3.org/2000/svg" xmlns:xlink="http://www.w3.org/1999/xlink" x="0px" y="0px"
	 viewBox="0 0 512 512" style="enable-background:new 0 0 512 512;" xml:space="preserve">
<rect x="98.381" y="419.21" style="fill:#AD4F3D;" width="315.25" height="35.578"/>
<g>
	<path style="fill:#C86D5C;" d="M147.828,314.995c-11.684-4.921-25.139,0.563-30.058,12.245L48.055,492.813
		c-2.337,5.55,1.738,11.687,7.76,11.687h31.532c3.388,0,6.445-2.03,7.76-5.153l64.966-154.295
		C164.993,333.37,159.51,319.913,147.828,314.995z"/>
	<path style="fill:#C86D5C;" d="M364.173,314.995c11.684-4.921,25.139,0.563,30.058,12.245l69.715,165.572
		c2.337,5.55-1.738,11.687-7.76,11.687h-31.532c-3.388,0-6.445-2.03-7.76-5.153l-64.966-154.295
		C347.008,333.37,352.491,319.913,364.173,314.995z"/>
</g>
<path style="fill:#FFCE1C;" d="M426.969,7.5H85.032C66.391,7.5,51.28,22.611,51.28,41.251v286.735h409.44V41.251
	C460.72,22.611,445.609,7.5,426.969,7.5z"/>
<path style="fill:#ECB000;" d="M108.032,7.5h-23C66.391,7.5,51.28,22.611,51.28,41.251v286.735h23V41.251
	C74.28,22.611,89.391,7.5,108.032,7.5z"/>
<rect x="97.181" y="53.4" style="fill:#2FC8B4;" width="317.64" height="274.58"/>
<rect x="97.181" y="53.4" style="fill:#00AE95;" width="34" height="274.58"/>
<path style="fill:#DC5A64;" d="M419.739,236.39h-79.547c-9.266,0-16.778,7.512-16.778,16.778v74.819h113.102v-74.819
	C436.516,243.901,429.005,236.39,419.739,236.39z"/>
<rect x="348.911" y="261.89" style="fill:#EFEDEE;" width="62.1" height="66.1"/>
<rect x="348.911" y="261.89" style="fill:#D4D2D3;" width="20" height="66.1"/>
<g>
	<path style="fill:#AD4F3D;" d="M394.231,327.24c-4.919-11.682-18.374-17.166-30.058-12.245
		c-11.682,4.918-17.165,18.375-12.246,30.058l18.976,45.068h49.804L394.231,327.24z"/>
	<path style="fill:#AD4F3D;" d="M141.098,390.121l18.976-45.068c4.919-11.682-0.564-25.14-12.246-30.058
		c-11.684-4.921-25.139,0.563-30.058,12.245l-26.476,62.881H141.098z"/>
</g>
<path style="fill:#C86D5C;" d="M460.72,295.851H51.28c-22.079,0-39.978,17.899-39.978,39.978v7.486
	c0,9.282,7.524,16.806,16.806,16.806H483.89c9.282,0,16.806-7.524,16.806-16.806v-7.486
	C500.698,313.75,482.799,295.851,460.72,295.851z"/>
<path d="M165.424,185.085c4.142,0,7.5-3.358,7.5-7.5v-16.393c0-4.142-3.358-7.5-7.5-7.5s-7.5,3.358-7.5,7.5v16.393
	C157.924,181.727,161.282,185.085,165.424,185.085z"/>
<path d="M346.579,185.085c4.142,0,7.5-3.358,7.5-7.5v-16.393c0-4.142-3.358-7.5-7.5-7.5s-7.5,3.358-7.5,7.5v16.393
	C339.079,181.727,342.437,185.085,346.579,185.085z"/>
<path d="M256.001,193.835c10.877,0,21.084-4.54,28.003-12.455c2.726-3.119,2.408-7.856-0.711-10.583s-7.857-2.408-10.583,0.711
	c-4.07,4.656-10.16,7.327-16.709,7.327c-6.548,0-12.639-2.67-16.708-7.327c-2.727-3.119-7.464-3.437-10.583-0.711
	s-3.437,7.464-0.711,10.583C234.918,189.296,245.124,193.835,256.001,193.835z"/>
<path d="M28.11,367.621h64.521c0,0-51.437,122.164-51.487,122.281C36.803,500.213,44.665,512,55.816,512h31.532
	c6.421,0,12.181-3.824,14.672-9.742l16.83-39.972h274.301l16.83,39.972c2.492,5.918,8.251,9.742,14.672,9.742c0,0,31.499,0,31.533,0
	c11.184,0,19.013-11.789,14.672-22.098l-18.382-43.657c-1.607-3.817-6.003-5.609-9.823-4.001c-3.817,1.607-5.609,6.005-4.001,9.823
	c0,0,18.317,43.502,18.382,43.656c0.254,0.604-0.202,1.277-0.847,1.277h-31.533c-0.371,0-0.704-0.221-0.848-0.563l-54.239-128.816
	h33.529l24.352,57.835c1.607,3.817,6.003,5.609,9.823,4.001c3.817-1.607,5.609-6.005,4.001-9.823L419.37,367.62h64.52
	c13.403,0,24.307-10.904,24.307-24.306v-7.486c0-23.627-17.35-43.272-39.978-46.879V41.251C468.221,18.505,449.716,0,426.969,0
	H85.033C62.286,0,43.781,18.505,43.781,41.251V288.95c-22.627,3.607-39.978,23.252-39.978,46.879v7.486
	C3.803,356.717,14.707,367.621,28.11,367.621z M88.195,496.438c-0.144,0.342-0.476,0.563-0.847,0.563c0,0-31.468,0-31.532,0
	c-0.653,0-1.098-0.68-0.848-1.277l53.938-128.102h33.528L88.195,496.438z M125.166,447.286l6.193-14.709l2.471-5.87h244.34
	l8.665,20.579L125.166,447.286L125.166,447.286z M371.855,411.708H140.147l18.563-44.086h194.583L371.855,411.708z M58.781,41.251
	C58.781,26.776,70.557,15,85.033,15H426.97c14.476,0,26.252,11.776,26.252,26.251v247.1h-9.204v-35.185
	c0-12.515-9.519-22.846-21.697-24.139V53.401c0-4.142-3.358-7.5-7.5-7.5H178.245c-4.142,0-7.5,3.358-7.5,7.5s3.358,7.5,7.5,7.5
	H407.32V228.89h-67.128c-13.387,0-24.277,10.891-24.277,24.277v35.185H104.682V60.901h43.563c4.142,0,7.5-3.358,7.5-7.5
	s-3.358-7.5-7.5-7.5H97.182c-4.142,0-7.5,3.358-7.5,7.5v234.95H58.781V41.251z M403.517,288.352h-47.103V269.39h47.103V288.352z
	 M411.017,254.39h-62.103c-4.142,0-7.5,3.358-7.5,7.5v26.461h-10.5v-35.185c0-5.116,4.162-9.277,9.277-9.277h79.548
	c5.116,0,9.277,4.162,9.277,9.277v35.185h-10.5V261.89C418.517,257.748,415.159,254.39,411.017,254.39z M18.803,335.829
	c0-17.908,14.569-32.478,32.478-32.478h409.44c17.908,0,32.478,14.569,32.478,32.478v7.486c0,5.131-4.175,9.306-9.307,9.306H28.11
	c-5.132,0-9.307-4.175-9.307-9.306C18.803,343.315,18.803,335.829,18.803,335.829z"/>
<g>
</g>
<g>
</g>
<g>
</g>
<g>
</g>
<g>
</g>
<g>
</g>
<g>
</g>
<g>
</g>
<g>
</g>
<g>
</g>
<g>
</g>
<g>
</g>
<g>
</g>
<g>
</g>
<g>
</g>
</svg>
