<svg xmlns="http://www.w3.org/2000/svg" height="511pt" version="1.1" viewBox="1 -38 511.99999 511" width="511pt">
<g id="surface1">
<path d="M 344.9375 21.917969 L 344.9375 98.125 L 7.519531 98.125 L 7.519531 338.777344 L 344.9375 338.777344 L 344.9375 414.984375 L 502.363281 218.453125 Z M 344.9375 21.917969 " style=" stroke:none;fill-rule:nonzero;fill:rgb(84.313725%,28.627451%,27.843137%);fill-opacity:1;" />
<path d="M 512 218.453125 L 337.417969 0.5 L 337.417969 90.605469 L 0 90.605469 L 0 346.296875 L 337.417969 346.296875 L 337.417969 436.402344 Z M 15.039062 331.257812 L 15.039062 105.644531 L 352.457031 105.644531 L 352.457031 43.335938 L 492.730469 218.453125 L 352.457031 393.566406 L 352.457031 331.257812 Z M 15.039062 331.257812 " style=" stroke:none;fill-rule:nonzero;fill:rgb(0%,0%,0%);fill-opacity:1;" />
<path d="M 380.03125 135.726562 L 364.992188 135.726562 L 364.992188 120.6875 L 380.03125 120.6875 Z M 349.949219 135.726562 L 334.910156 135.726562 L 334.910156 120.6875 L 349.949219 120.6875 Z M 319.867188 135.726562 L 304.828125 135.726562 L 304.828125 120.6875 L 319.867188 120.6875 Z M 289.789062 135.726562 L 32.085938 135.726562 L 32.085938 120.6875 L 289.789062 120.6875 Z M 289.789062 135.726562 " style=" stroke:none;fill-rule:nonzero;fill:rgb(100%,100%,100%);fill-opacity:1;" />
<path d="M 380.03125 316.21875 L 364.992188 316.21875 L 364.992188 301.175781 L 380.03125 301.175781 Z M 349.949219 316.21875 L 334.910156 316.21875 L 334.910156 301.175781 L 349.949219 301.175781 Z M 319.867188 316.21875 L 304.828125 316.21875 L 304.828125 301.175781 L 319.867188 301.175781 Z M 289.789062 316.21875 L 32.085938 316.21875 L 32.085938 301.175781 L 289.789062 301.175781 Z M 289.789062 316.21875 " style=" stroke:none;fill-rule:nonzero;fill:rgb(100%,100%,100%);fill-opacity:1;" />
<path d="M 120.328125 278.113281 L 34.59375 278.113281 L 34.59375 162.800781 L 120.328125 162.800781 L 120.328125 177.84375 L 49.636719 177.84375 L 49.636719 263.074219 L 120.328125 263.074219 Z M 120.328125 278.113281 " style=" stroke:none;fill-rule:nonzero;fill:rgb(100%,100%,100%);fill-opacity:1;" />
<path d="M 326.886719 162.800781 L 413.121094 162.800781 L 413.121094 177.84375 L 326.886719 177.84375 Z M 326.886719 162.800781 " style=" stroke:none;fill-rule:nonzero;fill:rgb(100%,100%,100%);fill-opacity:1;" />
<path d="M 42.113281 212.9375 L 120.328125 212.9375 L 120.328125 227.976562 L 42.113281 227.976562 Z M 42.113281 212.9375 " style=" stroke:none;fill-rule:nonzero;fill:rgb(100%,100%,100%);fill-opacity:1;" />
<path d="M 136.957031 173.523438 L 147.800781 163.097656 L 248.070312 267.378906 L 237.230469 277.800781 Z M 136.957031 173.523438 " style=" stroke:none;fill-rule:nonzero;fill:rgb(100%,100%,100%);fill-opacity:1;" />
<path d="M 136.957031 267.390625 L 237.226562 163.113281 L 248.070312 173.535156 L 147.796875 277.816406 Z M 136.957031 267.390625 " style=" stroke:none;fill-rule:nonzero;fill:rgb(100%,100%,100%);fill-opacity:1;" />
<path d="M 284.273438 163.300781 L 299.3125 163.300781 L 299.3125 278.617188 L 284.273438 278.617188 Z M 284.273438 163.300781 " style=" stroke:none;fill-rule:nonzero;fill:rgb(100%,100%,100%);fill-opacity:1;" />
<path d="M 362.484375 170.320312 L 377.527344 170.320312 L 377.527344 278.617188 L 362.484375 278.617188 Z M 362.484375 170.320312 " style=" stroke:none;fill-rule:nonzero;fill:rgb(100%,100%,100%);fill-opacity:1;" />
</g>
</svg>