<svg id="Layer_1" enable-background="new 0 0 256 256" height="512" viewBox="0 0 256 256" width="512" xmlns="http://www.w3.org/2000/svg"><path d="m178.148 192.808 5.676-36.252c1.763-11.256 2.657-22.742 2.657-34.139v-16.327c0-30.138-24.519-54.656-54.656-54.656-.906 0-1.791.022-2.703.067-29.132 1.436-51.952 25.563-51.952 54.927v15.99c0 6.954-.545 13.964-1.621 20.832l-6.028 38.498c30.9 26.103 74.333 29.806 108.627 11.06z" fill="#f9cfcf"/><g fill="#f9a7a7"><path d="m132.78 207.555c-.154 0-.311-.012-.468-.036-1.637-.256-2.756-1.791-2.5-3.428l8.558-54.652c.161-1.03.313-2.063.456-3.096.228-1.643 1.748-2.787 3.383-2.561 1.642.228 2.788 1.742 2.561 3.383-.148 1.068-.305 2.136-.472 3.201l-8.558 54.652c-.231 1.48-1.508 2.537-2.96 2.537z"/><path d="m143.382 131.148c-.033 0-.065-.001-.099-.002-1.656-.053-2.955-1.438-2.901-3.095.061-1.878.091-3.773.091-5.634v-16.327c0-4.918-4.119-8.874-9.101-8.636-4.513.223-8.196 4.248-8.196 8.974v15.99c0 1.064-.009 2.129-.027 3.194-.029 1.639-1.367 2.947-2.999 2.947-.018 0-.036 0-.054 0-1.657-.03-2.977-1.396-2.947-3.053.019-1.03.027-2.06.027-3.089v-15.99c0-8.008 6.112-14.582 13.915-14.967.256-.012.496-.018.734-.018 8.076 0 14.647 6.57 14.647 14.646v16.328c0 1.924-.032 3.885-.095 5.827-.051 1.625-1.383 2.905-2.995 2.905z"/><path d="m109.882 205.017c-.154 0-.311-.012-.468-.036-1.637-.256-2.756-1.791-2.5-3.428l8.159-52.114c.293-1.872.557-3.756.784-5.6.202-1.645 1.7-2.819 3.344-2.611 1.645.202 2.813 1.7 2.611 3.344-.235 1.909-.508 3.859-.812 5.796l-8.159 52.113c-.231 1.479-1.507 2.536-2.959 2.536z"/><path d="m124.658 204.275 8.709-55.619c1.355-8.652 2.041-17.479 2.041-26.238v-15.795c0-1.716-1-3.334-2.606-3.939-.434-.164-.793-.191-1.168-.173-1.872.092-3.395 1.849-3.395 3.917v15.992c0 9.62-.747 19.226-2.236 28.73l-8.203 52.389c2.279.335 4.567.563 6.858.736z"/><path d="m166.421 201.223c-.154 0-.311-.012-.468-.036-1.637-.256-2.756-1.791-2.5-3.428l6.784-43.33c1.296-8.279 2.096-16.741 2.377-25.151.055-1.656 1.469-2.949 3.099-2.897 1.655.055 2.953 1.442 2.897 3.099-.289 8.652-1.111 17.359-2.445 25.878l-6.784 43.33c-.232 1.478-1.508 2.535-2.96 2.535z"/><path d="m175.729 116.833c-1.657 0-3-1.343-3-3v-7.743c0-22.555-18.35-40.904-40.904-40.904-.669 0-1.338.017-2.022.051-21.235 1.047-37.933 17.979-38.844 39.386-.07 1.655-1.451 2.938-3.125 2.869-1.655-.07-2.939-1.47-2.869-3.125 1.043-24.523 20.191-43.922 44.539-45.122.784-.04 1.553-.059 2.321-.059 25.863 0 46.904 21.041 46.904 46.904v7.743c0 1.657-1.343 3-3 3z"/><path d="m79.271 192c-.154 0-.311-.012-.468-.036-1.637-.256-2.756-1.791-2.5-3.428l6.902-44.088c1.138-7.264 1.714-14.676 1.714-22.03v-2.291c0-1.657 1.343-3 3-3s3 1.343 3 3v2.291c0 7.664-.601 15.389-1.786 22.958l-6.902 44.088c-.231 1.479-1.507 2.536-2.96 2.536z"/><path d="m154.977 204.81c-.154 0-.311-.012-.468-.036-1.637-.256-2.756-1.791-2.5-3.428l7.606-48.58c1.024-6.545 1.725-13.243 2.081-19.906.089-1.654 1.515-2.936 3.156-2.836 1.654.089 2.924 1.502 2.836 3.156-.368 6.866-1.09 13.769-2.146 20.514l-7.606 48.58c-.231 1.479-1.507 2.536-2.959 2.536z"/><path d="m164.977 122.645c-1.657 0-3-1.343-3-3v-13.555c0-16.626-13.526-30.152-30.152-30.152-.496 0-.992.013-1.497.037-16.068.793-28.655 14.169-28.655 30.453v5.965c0 1.657-1.343 3-3 3s-3-1.343-3-3v-5.965c0-19.487 15.093-35.496 34.36-36.445.604-.03 1.198-.045 1.792-.045 19.935 0 36.152 16.218 36.152 36.152v13.555c0 1.657-1.343 3-3 3z"/><path d="m89.269 197.658c-.154 0-.311-.012-.468-.036-1.637-.256-2.756-1.791-2.5-3.428l7.528-48.082c1.049-6.7 1.656-13.543 1.807-20.34.036-1.634 1.372-2.934 2.998-2.934.022 0 .045 0 .067.001 1.656.036 2.97 1.409 2.933 3.065-.156 7.062-.787 14.172-1.877 21.135l-7.528 48.082c-.232 1.481-1.508 2.537-2.96 2.537z"/><path d="m143.776 206.832c-.154 0-.311-.012-.468-.036-1.637-.256-2.756-1.791-2.5-3.428l8.184-52.266c.837-5.345 1.446-10.805 1.812-16.229.11-1.653 1.523-2.908 3.194-2.792 1.653.111 2.903 1.542 2.792 3.194-.377 5.601-1.006 11.237-1.87 16.755l-8.184 52.266c-.231 1.479-1.507 2.536-2.96 2.536z"/><path d="m154.218 127.126c-.009 0-.018 0-.026 0-1.657-.015-2.988-1.369-2.975-3.025.005-.562.008-1.123.008-1.683v-16.328c0-11.02-9.222-19.913-20.367-19.376-10.337.51-18.434 9.17-18.434 19.714v12.781c0 1.657-1.343 3-3 3s-3-1.343-3-3v-12.781c0-13.747 10.603-25.038 24.138-25.706.424-.021.842-.032 1.263-.032 14.006 0 25.4 11.395 25.4 25.4v16.328c0 .577-.003 1.156-.008 1.733-.015 1.649-1.355 2.975-2.999 2.975z"/><path d="m99.475 201.979c-.154 0-.311-.012-.468-.036-1.637-.256-2.756-1.791-2.5-3.428l7.944-50.74c.913-5.831 1.517-11.792 1.794-17.718.077-1.654 1.481-2.907 3.138-2.856 1.655.078 2.934 1.482 2.856 3.138-.288 6.142-.914 12.32-1.86 18.364l-7.944 50.74c-.232 1.48-1.508 2.536-2.96 2.536z"/><path d="m178.151 195.808c-.154 0-.311-.012-.468-.036-1.637-.256-2.756-1.791-2.5-3.428l5.676-36.251c1.739-11.107 2.621-22.438 2.621-33.675v-16.328c0-9.428-2.575-18.659-7.447-26.695-.859-1.417-.406-3.262 1.01-4.121 1.418-.86 3.262-.406 4.121 1.01 5.44 8.975 8.316 19.281 8.316 29.807v16.328c0 11.548-.906 23.189-2.693 34.603l-5.676 36.251c-.231 1.478-1.507 2.535-2.96 2.535zm-108.628-11.061c-.154 0-.311-.012-.468-.036-1.637-.256-2.756-1.791-2.5-3.428l6.028-38.498c1.051-6.714 1.584-13.566 1.584-20.367v-15.99c0-.469.005-.937.017-1.402.04-1.631 1.375-2.927 2.998-2.927.024 0 .049 0 .074.001 1.656.04 2.966 1.416 2.926 3.072-.01.417-.015.836-.015 1.256v15.99c0 7.11-.558 14.275-1.656 21.295l-6.028 38.498c-.231 1.479-1.507 2.536-2.96 2.536zm9.227-88.518c-.235 0-.475-.028-.714-.087-1.609-.393-2.596-2.017-2.202-3.626 6.023-24.668 27.875-42.767 53.139-44.012.958-.048 1.891-.07 2.852-.07 15.864 0 30.658 6.332 41.655 17.83 1.146 1.197 1.103 3.096-.095 4.241-1.196 1.145-3.096 1.104-4.241-.095-10.449-10.924-24.693-16.644-39.876-15.914-22.631 1.116-42.207 17.336-47.605 39.443-.335 1.372-1.562 2.29-2.913 2.29z"/></g><path d="m33.063 108.594c-2.762 0-5-2.238-5-5v-55.512c0-11.039 8.98-20.02 20.02-20.02h55.512c2.762 0 5 2.238 5 5s-2.238 5-5 5h-55.513c-5.524 0-10.02 4.495-10.02 10.02v55.512c.001 2.761-2.238 5-4.999 5z" fill="#6bdddd"/><path d="m103.594 227.938h-55.512c-11.039 0-20.02-8.98-20.02-20.02v-55.512c0-2.762 2.238-5 5-5s5 2.238 5 5v55.512c0 5.524 4.495 10.02 10.02 10.02h55.512c2.762 0 5 2.238 5 5s-2.239 5-5 5z" fill="#6bdddd"/><path d="m207.918 227.938h-55.512c-2.762 0-5-2.238-5-5s2.238-5 5-5h55.512c5.524 0 10.02-4.495 10.02-10.02v-55.512c0-2.762 2.238-5 5-5s5 2.238 5 5v55.512c0 11.039-8.981 20.02-20.02 20.02z" fill="#6bdddd"/><path d="m222.938 108.594c-2.762 0-5-2.238-5-5v-55.512c0-5.524-4.495-10.02-10.02-10.02h-55.512c-2.762 0-5-2.238-5-5s2.238-5 5-5h55.512c11.039 0 20.02 8.98 20.02 20.02v55.512c0 2.761-2.239 5-5 5z" fill="#6bdddd"/><path d="m228 134h-200c-3.313 0-6-2.687-6-6s2.687-6 6-6h200c3.313 0 6 2.687 6 6s-2.687 6-6 6z" fill="#ffea92"/><path d="m33.063 110.594c-3.859 0-7-3.141-7-7v-55.512c0-12.142 9.878-22.02 22.02-22.02h55.512c3.859 0 7 3.141 7 7s-3.141 7-7 7h-55.513c-4.422 0-8.02 3.598-8.02 8.02v55.512c.001 3.859-3.14 7-6.999 7zm15.019-80.531c-9.936 0-18.02 8.084-18.02 18.02v55.512c0 1.654 1.346 3 3 3s3-1.346 3-3v-55.513c0-6.628 5.392-12.02 12.02-12.02h55.512c1.654 0 3-1.346 3-3s-1.346-3-3-3h-55.512z" fill="#3762cc"/><path d="m103.594 229.938h-55.512c-12.142 0-22.02-9.878-22.02-22.02v-55.512c0-3.859 3.141-7 7-7s7 3.141 7 7v55.512c0 4.422 3.598 8.02 8.02 8.02h55.512c3.859 0 7 3.141 7 7s-3.141 7-7 7zm-70.531-80.532c-1.654 0-3 1.346-3 3v55.512c0 9.936 8.084 18.02 18.02 18.02h55.512c1.654 0 3-1.346 3-3s-1.346-3-3-3h-55.513c-6.628 0-12.02-5.392-12.02-12.02v-55.512c.001-1.654-1.345-3-2.999-3z" fill="#3762cc"/><path d="m207.918 229.938h-55.512c-3.859 0-7-3.141-7-7s3.141-7 7-7h55.512c4.422 0 8.02-3.598 8.02-8.02v-55.512c0-3.859 3.141-7 7-7s7 3.141 7 7v55.512c0 12.142-9.878 22.02-22.02 22.02zm-55.512-10c-1.654 0-3 1.346-3 3s1.346 3 3 3h55.512c9.936 0 18.02-8.084 18.02-18.02v-55.512c0-1.654-1.346-3-3-3s-3 1.346-3 3v55.512c0 6.628-5.392 12.02-12.02 12.02z" fill="#3762cc"/><path d="m222.938 110.594c-3.859 0-7-3.141-7-7v-55.512c0-4.422-3.598-8.02-8.02-8.02h-55.512c-3.859 0-7-3.141-7-7s3.141-7 7-7h55.512c12.142 0 22.02 9.878 22.02 22.02v55.512c0 3.859-3.141 7-7 7zm-70.532-80.531c-1.654 0-3 1.346-3 3s1.346 3 3 3h55.512c6.628 0 12.02 5.392 12.02 12.02v55.512c0 1.654 1.346 3 3 3s3-1.346 3-3v-55.513c0-9.936-8.084-18.02-18.02-18.02h-55.512z" fill="#3762cc"/></svg>