<svg id="Capa_1" enable-background="new 0 0 512 512" height="512" viewBox="0 0 512 512" width="512" xmlns="http://www.w3.org/2000/svg"><path id="XMLID_1049_" d="m422 502h-332c-22.091 0-40-17.909-40-40v-412c0-22.091 17.909-40 40-40h332c22.091 0 40 17.909 40 40v412c0 22.091-17.909 40-40 40z" fill="#98a1b3"/><path id="XMLID_1047_" d="m90 50h332v412h-332z" fill="#fff"/><path id="XMLID_1046_" d="m256 388c-63.962 0-116-52.038-116-116v-32c0-63.962 52.038-116 116-116s116 52.038 116 116v32c0 63.962-52.038 116-116 116z" fill="#ffddcf"/><path id="XMLID_96_" d="m422 512h-332c-27.57 0-50-22.43-50-50v-412c0-27.57 22.43-50 50-50h332c27.57 0 50 22.43 50 50v412c0 27.57-22.43 50-50 50zm-332-492c-16.542 0-30 13.458-30 30v412c0 16.542 13.458 30 30 30h332c16.542 0 30-13.458 30-30v-412c0-16.542-13.458-30-30-30z"/><path id="XMLID_95_" d="m422 472h-120.937c-5.523 0-10-4.477-10-10s4.477-10 10-10h110.937v-392h-312v392h111.063c5.523 0 10 4.477 10 10s-4.477 10-10 10h-121.063c-5.523 0-10-4.477-10-10v-412c0-5.523 4.477-10 10-10h332c5.523 0 10 4.477 10 10v412c0 5.523-4.477 10-10 10z"/><path id="XMLID_94_" d="m130 144c-5.523 0-10-4.477-10-10v-44c0-5.523 4.477-10 10-10h44c5.523 0 10 4.477 10 10s-4.477 10-10 10h-34v34c0 5.523-4.477 10-10 10z"/><path id="XMLID_93_" d="m382 144c-5.523 0-10-4.477-10-10v-34h-34c-5.523 0-10-4.477-10-10s4.477-10 10-10h44c5.523 0 10 4.477 10 10v44c0 5.523-4.477 10-10 10z"/><path id="XMLID_92_" d="m174 432.25h-44c-5.523 0-10-4.477-10-10v-44c0-5.523 4.477-10 10-10s10 4.477 10 10v34h34c5.523 0 10 4.477 10 10s-4.477 10-10 10z"/><path id="XMLID_91_" d="m382 432.25h-44c-5.523 0-10-4.477-10-10s4.477-10 10-10h34v-34c0-5.523 4.477-10 10-10s10 4.477 10 10v44c0 5.523-4.477 10-10 10z"/><path id="XMLID_90_" d="m202.26 335.74c-2.559 0-5.119-.977-7.071-2.929-16.244-16.243-25.189-37.839-25.189-60.811v-32c0-47.42 38.58-86 86-86s86 38.58 86 86v32c0 5.523-4.477 10-10 10s-10-4.477-10-10v-32c0-36.393-29.607-66-66-66s-66 29.607-66 66v32c0 17.629 6.865 34.204 19.331 46.669 3.905 3.905 3.905 10.237 0 14.143-1.953 1.952-4.512 2.928-7.071 2.928z"/><path id="XMLID_89_" d="m256 358c-5.523 0-10-4.477-10-10s4.477-10 10-10c18.517 0 36.297-7.853 48.782-21.544 3.721-4.081 10.046-4.373 14.127-.651s4.372 10.046.651 14.127c-16.266 17.838-39.433 28.068-63.56 28.068z"/><path id="XMLID_88_" d="m174.014 363.986c-2.559 0-5.118-.976-7.071-2.929-23.823-23.823-36.943-55.451-36.943-89.057v-32c0-33.598 13.115-65.221 36.928-89.042 3.905-3.906 10.237-3.906 14.142-.002 3.906 3.905 3.907 10.236.002 14.142-20.037 20.044-31.072 46.645-31.072 74.902v32c0 28.264 11.04 54.87 31.085 74.915 3.905 3.905 3.906 10.237 0 14.142-1.952 1.952-4.512 2.929-7.071 2.929z"/><path id="XMLID_87_" d="m256 398c-33.606 0-65.234-13.12-89.057-36.943-3.905-3.905-3.905-10.237 0-14.143s10.237-3.905 14.143 0c20.045 20.046 46.65 31.086 74.914 31.086 5.523 0 10 4.477 10 10s-4.477 10-10 10z"/><path id="XMLID_86_" d="m336.467 365.478c-2.62 0-5.237-1.023-7.199-3.059-3.834-3.976-3.719-10.306.257-14.14 20.942-20.193 32.475-47.283 32.475-76.279v-32c0-58.449-47.551-106-106-106-5.523 0-10-4.477-10-10s4.477-10 10-10c69.477 0 126 56.523 126 126v32c0 34.476-13.706 66.679-38.592 90.677-1.941 1.87-4.443 2.801-6.941 2.801z"/><path id="XMLID_85_" d="m256 318c-5.523 0-10-4.477-10-10s4.477-10 10-10c14.336 0 26-11.664 26-26v-32c0-14.336-11.664-26-26-26s-26 11.664-26 26v21.747c0 5.523-4.477 10-10 10s-10-4.477-10-10v-21.747c0-25.364 20.636-46 46-46s46 20.636 46 46v32c0 25.364-20.636 46-46 46z"/><path id="XMLID_84_" d="m256.06 472.06c-2.63 0-5.2-1.06-7.07-2.92-1.86-1.87-2.93-4.45-2.93-7.08s1.07-5.21 2.93-7.07 4.44-2.93 7.07-2.93c2.64 0 5.21 1.07 7.07 2.93 1.87 1.86 2.93 4.44 2.93 7.07 0 2.64-1.06 5.21-2.93 7.08-1.86 1.86-4.43 2.92-7.07 2.92z"/></svg>