<svg id="Layer_1" enable-background="new 0 0 128 128" height="512" viewBox="0 0 128 128" width="512" xmlns="http://www.w3.org/2000/svg"><path d="m20.812 30.457c1.902 0 3.449-1.547 3.449-3.449v-12.355c0-.533.435-.968.968-.968h12.146c1.901 0 3.448-1.547 3.448-3.449s-1.547-3.449-3.448-3.449h-12.146c-4.338 0-7.866 3.528-7.866 7.866v12.354c-.001 1.903 1.546 3.45 3.449 3.45z" fill="#e6e7e8"/><path d="m106.771 6.787h-12.145c-1.901 0-3.448 1.547-3.448 3.449s1.547 3.449 3.448 3.449h12.146c.533 0 .968.435.968.968v12.354c0 1.902 1.547 3.449 3.449 3.449s3.449-1.547 3.449-3.449v-12.354c0-4.338-3.529-7.866-7.867-7.866z" fill="#e6e7e8"/><path d="m111.188 68.318c-1.902 0-3.449 1.547-3.449 3.449v12.354c0 .446-.309.806-.719.918l-.061-7.562c-.029-3.644-2.775-6.729-6.251-7.023-1.588-.144-3.12.274-4.39 1.133-.114-2-1.046-3.81-2.442-5.053.924-2.847 1.43-5.88 1.43-9.031v-16.233c0-16.159-13.146-29.306-29.306-29.306s-29.308 13.146-29.308 29.306v16.232c0 9.174 4.24 17.374 10.86 22.752l.107 13.224c.07 8.739 2.875 16.724 7.896 22.484 5.278 6.056 12.489 9.25 20.868 9.25.089 0 .178 0 .267-.001 8.188-.066 15.859-3.316 21.602-9.152 5.742-5.835 8.868-13.558 8.803-21.745l-.019-2.343c4.196-.162 7.562-3.616 7.562-7.851v-12.352c0-1.903-1.547-3.45-3.45-3.45z" fill="#e6e7e8"/><path d="m37.374 85.09h-12.145c-.533 0-.968-.435-.968-.969v-12.353c0-1.902-1.547-3.449-3.449-3.449s-3.449 1.547-3.449 3.449v12.354c0 4.338 3.528 7.866 7.866 7.866h12.146c1.901 0 3.448-1.547 3.448-3.448-.001-1.903-1.548-3.45-3.449-3.45z" fill="#e6e7e8"/><path d="m47.529 73.122c-.022-2.782 1.863-5.133 4.432-5.816.214.057.42.13.622.212v-.007c1.888.753 3.291 2.49 3.732 4.537l-.278-34.556c-.027-3.404 2.799-6.165 6.243-6.013 3.23.143 5.674 3.021 5.7 6.254l.229 28.444c.69-2.433 2.892-4.234 5.548-4.256 3.226-.026 5.862 2.568 5.888 5.794-.027-3.33 2.738-6.031 6.108-5.882 1.103.049 2.108.429 2.956 1.031 1.031-2.932 1.597-6.081 1.597-9.36v-16.233c0-15.608-12.698-28.306-28.306-28.306-15.609 0-28.307 12.698-28.307 28.306v16.232c0 10.339 5.574 19.398 13.873 24.338z" fill="#d4fbff"/><path d="m16.811 25.457c-1.352 0-2.449-1.097-2.449-2.449v-12.354c0-3.786 3.08-6.866 6.866-6.866h12.145c1.352 0 2.449 1.097 2.449 2.449s-1.097 2.449-2.449 2.449h-12.144c-1.086 0-1.968.883-1.968 1.968v12.354c-.001 1.352-1.097 2.449-2.45 2.449z" fill="#fa759e"/><path d="m107.189 25.457c1.352 0 2.449-1.097 2.449-2.449v-12.354c0-3.786-3.08-6.866-6.866-6.866h-12.146c-1.352 0-2.449 1.097-2.449 2.449s1.097 2.449 2.449 2.449h12.145c1.086 0 1.968.883 1.968 1.968v12.354c.001 1.352 1.097 2.449 2.45 2.449z" fill="#fa759e"/><path d="m107.188 65.318c-1.352 0-2.449 1.097-2.449 2.449v12.354c0 1.086-.883 1.968-1.968 1.968h-.743l.039 4.898h.703c3.786 0 6.866-3.08 6.866-6.866v-12.354c.002-1.352-1.095-2.449-2.448-2.449z" fill="#fa759e"/><path d="m16.811 65.318c-1.352 0-2.449 1.097-2.449 2.449v12.354c0 3.786 3.08 6.866 6.866 6.866h12.145c1.352 0 2.449-1.097 2.449-2.449s-1.097-2.449-2.449-2.449h-12.144c-1.086 0-1.968-.883-1.968-1.968v-12.354c-.001-1.352-1.097-2.449-2.45-2.449z" fill="#fa759e"/><path d="m96.623 67.45c-2.167-.184-4.091.825-5.241 2.426h-.037l-.015-1.925c-.025-3.163-2.417-5.979-5.576-6.119-3.37-.149-6.135 2.552-6.108 5.882-.026-3.226-2.662-5.82-5.888-5.794-2.656.021-4.858 1.823-5.548 4.256l-.229-28.444c-.026-3.233-2.47-6.111-5.7-6.254-3.445-.153-6.271 2.609-6.243 6.013l.278 34.556c-.574-2.659-2.763-4.814-5.544-4.938-3.445-.153-6.271 2.609-6.243 6.013l.131 16.348c.138 17.101 10.921 30.879 28.022 30.741 16.376-.132 29.544-13.514 29.412-29.89l-.135-16.837c-.024-3.059-2.286-5.775-5.336-6.034z" fill="#fff"/><path d="m96.624 67.45c-2.167-.184-4.092.825-5.241 2.426h-.037l-.016-1.925c-.026-3.163-2.417-5.979-5.576-6.119-3.37-.149-6.135 2.552-6.108 5.882-.026-3.226-2.662-5.82-5.888-5.794-2.656.021-4.858 1.823-5.548 4.256l-.229-28.444c-.026-3.233-2.47-6.111-5.7-6.254-3.444-.153-6.271 2.609-6.243 6.013l.278 34.556c-.441-2.046-1.844-3.784-3.732-4.537v.007c-.202-.082-.409-.155-.622-.212-2.57.683-4.455 3.034-4.432 5.816l.13 16.349c.105 13.089 6.452 24.22 17.09 28.666v1.046c.918.257 1.87.452 2.839.615l.019.018c1.623.27 3.313.411 5.074.396 16.376-.132 29.544-13.514 29.412-29.889l-.135-16.837c-.024-3.06-2.286-5.776-5.335-6.035z" fill="#ffd7e5"/><g fill="#3a2c60"><path d="m85.634 37.271v16.232c0 .553.447 1 1 1s1-.447 1-1v-16.232c0-4.294-1.088-8.546-3.146-12.296-.267-.483-.871-.659-1.358-.396-.484.267-.661.874-.396 1.358 1.897 3.457 2.9 7.376 2.9 11.334z"/><path d="m62.001 13.638c6.64 0 13.017 2.83 17.496 7.764.373.41 1.005.439 1.412.068.409-.371.439-1.004.068-1.412-4.857-5.352-11.774-8.42-18.977-8.42-14.135 0-25.635 11.499-25.635 25.633v6.465c0 .553.447 1 1 1s1-.447 1-1v-6.465c.001-13.032 10.604-23.633 23.636-23.633z"/><path d="m62.001 15.312c-5.492 0-10.753 2.045-14.811 5.76-.408.372-.436 1.005-.063 1.412.373.408 1.006.436 1.412.063 3.688-3.375 8.47-5.234 13.461-5.234 11.006 0 19.959 8.953 19.959 19.959v11.526c0 .553.447 1 1 1s1-.447 1-1v-11.527c.001-12.109-9.85-21.959-21.958-21.959z"/><path d="m45.714 53.503v-12.518c0-.553-.447-1-1-1s-1 .447-1 1v12.518c0 2.287.418 4.518 1.243 6.63.154.396.532.637.932.637.121 0 .244-.021.363-.068.515-.201.77-.781.568-1.295-.734-1.882-1.106-3.867-1.106-5.904z"/><path d="m79.507 58.791c.518-1.71.779-3.489.779-5.288v-16.232c0-.553-.447-1-1-1s-1 .447-1 1v16.232c0 1.603-.233 3.188-.693 4.71-.16.528.139 1.087.668 1.246.096.029.193.043.289.043.43 0 .826-.278.957-.711z"/><path d="m77.759 28.001c-3.284-5.561-9.321-9.016-15.758-9.016-10.084 0-18.287 8.203-18.287 18.285 0 .553.447 1 1 1s1-.447 1-1c0-8.979 7.307-16.285 16.287-16.285 5.731 0 11.11 3.078 14.035 8.033.281.476.895.633 1.37.353.476-.281.633-.894.353-1.37z"/><path d="m61.093 28.378c.299-.03.602-.046.908-.046 4.929 0 8.938 4.01 8.938 8.938v7.444c0 .553.447 1 1 1s1-.447 1-1v-7.444c0-6.031-4.907-10.938-10.938-10.938-.373 0-.742.02-1.107.056-.55.055-.95.545-.896 1.095.056.548.543.944 1.095.895z"/><path d="m16.812 26.457c1.902 0 3.449-1.547 3.449-3.449v-12.355c0-.533.435-.968.968-.968h12.146c1.901 0 3.448-1.547 3.448-3.449s-1.547-3.449-3.448-3.449h-12.146c-4.338 0-7.866 3.528-7.866 7.866v12.354c-.001 1.903 1.546 3.45 3.449 3.45zm-1.45-15.804c0-3.234 2.632-5.866 5.866-5.866h12.146c.799 0 1.448.65 1.448 1.449s-.649 1.449-1.448 1.449h-12.145c-1.637 0-2.968 1.331-2.968 2.968v12.354c0 .799-.65 1.449-1.449 1.449s-1.449-.65-1.449-1.449v-12.354z"/><path d="m102.771 2.787h-12.145c-1.901 0-3.448 1.547-3.448 3.449s1.547 3.449 3.448 3.449h12.146c.533 0 .968.435.968.968v12.354c0 1.902 1.547 3.449 3.449 3.449s3.449-1.547 3.449-3.449v-12.354c0-4.338-3.529-7.866-7.867-7.866zm5.867 20.221c0 .799-.65 1.449-1.449 1.449s-1.449-.65-1.449-1.449v-12.355c0-1.637-1.331-2.968-2.968-2.968h-12.146c-.799 0-1.448-.65-1.448-1.449s.649-1.449 1.448-1.449h12.146c3.234 0 5.866 2.632 5.866 5.866z"/><path d="m107.188 64.318c-1.902 0-3.449 1.547-3.449 3.449v12.354c0 .446-.309.806-.719.918l-.061-7.562c-.029-3.644-2.775-6.729-6.251-7.023-1.588-.143-3.12.274-4.39 1.133-.114-1.999-1.045-3.807-2.439-5.051.925-2.847 1.427-5.882 1.427-9.033v-16.232c0-16.159-13.146-29.306-29.306-29.306s-29.308 13.146-29.308 29.306v16.232c0 9.169 4.245 17.353 10.86 22.729l.107 13.247c.148 18.431 12.235 31.735 28.781 31.734.082 0 .167 0 .249-.001 8.505-.068 16.672-3.714 22.407-10.002.372-.408.343-1.04-.065-1.413-.407-.372-1.041-.345-1.413.065-5.36 5.878-12.995 9.285-20.944 9.35-.082.001-.161.001-.243.001-15.634 0-26.63-12.199-26.771-29.75l-.132-16.349c-.011-1.377.529-2.662 1.521-3.618s2.291-1.45 3.679-1.388c2.186.097 4.059 1.771 4.589 4.079l.148 18.381c.005.55.451.992 1 .992h.008c.553-.005.997-.456.992-1.008l-.15-18.512-.277-34.558c-.012-1.376.528-2.66 1.52-3.617s2.287-1.44 3.68-1.388c2.593.115 4.722 2.477 4.744 5.263l.229 28.444c0 .008.004.016.005.024l.088 10.913c.005.55.451.992 1 .992h.008c.553-.005.997-.456.992-1.008l-.087-10.775c.63-2.026 2.438-3.393 4.55-3.411 1.323-.03 2.513.483 3.435 1.39s1.435 2.119 1.445 3.412l.075 9.308c.005.55.451.992 1 .992h.008c.553-.005.997-.456.992-1.008l-.075-9.308c0-.001 0-.001 0-.002-.011-1.341.516-2.592 1.481-3.523.966-.931 2.247-1.399 3.582-1.351 2.526.112 4.6 2.413 4.621 5.128l.01 1.213.063 7.784c.005.55.451.992 1 .992h.008c.553-.005.997-.456.992-1.008l-.053-6.67c1.018-1.279 2.569-1.957 4.189-1.826 2.458.209 4.4 2.426 4.421 5.047l.136 16.837c.026 3.331-.513 6.598-1.604 9.71-.183.521.092 1.092.612 1.274.523.187 1.093-.092 1.274-.612 1.168-3.331 1.745-6.826 1.717-10.388l-.019-2.343c4.196-.162 7.562-3.616 7.562-7.851v-12.348c-.001-1.903-1.548-3.45-3.451-3.45zm-29.198-1.962c.157-.277.309-.559.449-.847.242-.496.037-1.096-.459-1.338-.496-.243-1.094-.036-1.338.459-.124.253-.258.5-.396.744-.544-.208-1.114-.348-1.701-.411 1.307-2.185 2.067-4.733 2.067-7.46v-16.232c0-8.058-6.555-14.612-14.611-14.612-8.058 0-14.613 6.555-14.613 14.612v13.106c0 .553.447 1 1 1s1-.447 1-1v-13.106c0-6.954 5.658-12.612 12.613-12.612 6.954 0 12.611 5.658 12.611 12.612v16.232c0 2.888-.98 5.547-2.62 7.673-1.052.296-2.016.839-2.81 1.576l-.008-1.005c2.304-2.006 3.765-4.956 3.765-8.244v-3.126c0-.553-.447-1-1-1s-1 .447-1 1v3.126c0 2.002-.672 3.843-1.788 5.333l-.17-21.111c-.031-3.833-3.017-7.083-6.656-7.245-1.927-.087-3.766.605-5.156 1.946-1.39 1.342-2.146 3.144-2.131 5.073l.175 21.79c-1.335-1.561-2.153-3.576-2.153-5.786v-16.232c0-2.8 1.28-5.387 3.514-7.098.438-.336.521-.964.186-1.402-.336-.438-.963-.521-1.402-.186-2.73 2.093-4.297 5.258-4.297 8.686v16.232c0 3.475 1.639 6.563 4.175 8.567l.017 2.058c-2.849-1.81-4.958-4.724-5.636-8.223-.105-.541-.624-.902-1.172-.791-.542.104-.896.63-.791 1.172.869 4.485 3.77 8.135 7.617 10.142l.014 1.688c-.937-.937-2.115-1.591-3.408-1.865-1.459-1.162-2.736-2.58-3.754-4.233-.291-.47-.907-.617-1.376-.327-.471.29-.616.906-.327 1.376.729 1.182 1.577 2.255 2.518 3.219-.585.134-1.148.34-1.679.62-3.229-3.547-5.219-8.24-5.219-13.403v-16.232c0-3.302.826-6.573 2.391-9.463.263-.485.082-1.092-.404-1.355-.485-.26-1.092-.082-1.355.404-1.721 3.18-2.631 6.781-2.631 10.414v16.232c0 5.6 2.128 10.699 5.593 14.582-.419.409-.773.864-1.072 1.348-3.844-4.205-6.194-9.797-6.194-15.93v-3.399c0-.553-.447-1-1-1s-1 .447-1 1v3.399c0 6.984 2.812 13.32 7.358 17.948-.129.543-.201 1.104-.196 1.679l.004.448c-5.426-4.992-8.839-12.138-8.839-20.075v-16.232c0-15.057 12.25-27.306 27.308-27.306 15.057 0 27.306 12.249 27.306 27.306v16.232c0 2.746-.434 5.387-1.192 7.888-.508-.227-1.044-.392-1.603-.482.23-.736.442-1.48.6-2.247.111-.541-.237-1.069-.778-1.181-.548-.11-1.07.238-1.181.778-.187.909-.445 1.787-.734 2.651-.7.109-1.372.324-1.999.639.988-2.494 1.541-5.205 1.541-8.047 0-.553-.447-1-1-1s-1 .447-1 1c0 3.674-1.011 7.111-2.751 10.07-.187-.24-.386-.471-.606-.688-.198-.19-.404-.363-.616-.528zm30.648 17.765c0 3.137-2.478 5.7-5.578 5.852l-.023-2.91c1.511-.136 2.703-1.396 2.703-2.942v-12.353c0-.799.65-1.449 1.449-1.449s1.449.65 1.449 1.449z"/><path d="m33.374 81.09h-12.145c-.533 0-.968-.435-.968-.969v-12.353c0-1.902-1.547-3.449-3.449-3.449s-3.449 1.547-3.449 3.449v12.354c0 4.338 3.528 7.866 7.866 7.866h12.146c1.901 0 3.448-1.547 3.448-3.448-.001-1.903-1.548-3.45-3.449-3.45zm0 4.897h-12.145c-3.234 0-5.866-2.632-5.866-5.866v-12.353c0-.799.65-1.449 1.449-1.449s1.449.65 1.449 1.449v12.354c0 1.637 1.331 2.969 2.968 2.969h12.146c.799 0 1.448.65 1.448 1.449s-.65 1.447-1.449 1.447z"/><path d="m99.125 103.549c-.484-.259-1.093-.073-1.352.416-.488.921-1.035 1.829-1.627 2.698-.312.456-.193 1.078.264 1.389.172.118.368.174.562.174.32 0 .634-.153.827-.438.634-.93 1.22-1.901 1.742-2.888.259-.487.072-1.092-.416-1.351z"/></g></svg>