<?xml version="1.0" encoding="iso-8859-1"?>
<!-- Generator: Adobe Illustrator 19.0.0, SVG Export Plug-In . SVG Version: 6.00 Build 0)  -->
<svg version="1.1" id="Capa_1" xmlns="http://www.w3.org/2000/svg" xmlns:xlink="http://www.w3.org/1999/xlink" x="0px" y="0px"
	 viewBox="0 0 512.001 512.001" style="enable-background:new 0 0 512.001 512.001;" xml:space="preserve">
<g>
	<path style="fill:#AD4F3D;" d="M284.99,7.5c-9.564,0-17.318,7.753-17.318,17.318v26.265h34.635V24.818
		C302.308,15.253,294.555,7.5,284.99,7.5z"/>
	<path style="fill:#AD4F3D;" d="M212.152,365.744c-10.427-2.731-21.096,3.511-23.825,13.94l-29.854,114.06
		c-1.424,5.439,2.68,10.756,8.303,10.756h22.61c3.903,0,7.314-2.633,8.303-6.409l28.405-108.521
		C228.821,379.142,222.58,368.474,212.152,365.744z"/>
	<path style="fill:#AD4F3D;" d="M357.829,365.744c10.427-2.731,21.096,3.511,23.825,13.94l29.854,114.06
		c1.424,5.439-2.68,10.756-8.303,10.756h-22.61c-3.903,0-7.314-2.633-8.303-6.409L343.889,389.57
		C341.16,379.142,347.401,368.474,357.829,365.744z"/>
</g>
<rect x="129.89" y="65.45" style="fill:#D4D2D3;" width="310.2" height="320.15"/>
<path style="fill:#C86D5C;" d="M440.09,358.504h-310.2c-9.603,0-17.388,7.785-17.388,17.388v19.422
	c0,9.603,7.785,17.388,17.388,17.388h310.2c9.603,0,17.388-7.785,17.388-17.388v-19.422
	C457.479,366.289,449.694,358.504,440.09,358.504z"/>
<path style="fill:#EFEDEE;" d="M129.891,92.555c0,0,9.463,122.204-75.37,240.028h309.885
	c84.833-117.824,75.371-240.028,75.371-240.028l-154.785-27.1L129.891,92.555z"/>
<path style="fill:#D4D2D3;" d="M284.99,65.455l-155.1,27.1c0,0,0.86,11.17-0.274,29.993c0.092,0,0.182,0.007,0.274,0.007h309.611
	c1.135-18.826,0.275-30,0.275-30L284.99,65.455z"/>
<path style="fill:#C86D5C;" d="M440.09,38.356h-310.2c-9.603,0-17.388,7.785-17.388,17.388v19.422
	c0,9.603,7.785,17.388,17.388,17.388h310.2c9.603,0,17.388-7.785,17.388-17.388V55.744C457.479,46.141,449.694,38.356,440.09,38.356
	z"/>
<path d="M184.215,223.856v-14.118c0-4.143-3.358-7.5-7.5-7.5c-4.143,0-7.5,3.357-7.5,7.5v14.118c0,4.142,3.357,7.5,7.5,7.5
	C180.856,231.356,184.215,227.998,184.215,223.856z"/>
<path d="M340.232,223.856v-14.118c0-4.143-3.358-7.5-7.5-7.5c-4.143,0-7.5,3.357-7.5,7.5v14.118c0,4.142,3.357,7.5,7.5,7.5
	C336.874,231.356,340.232,227.998,340.232,223.856z"/>
<path d="M254.724,238.892c9.668,0,18.743-4.04,24.9-11.083c2.726-3.119,2.408-7.857-0.71-10.583
	c-3.119-2.727-7.857-2.408-10.583,0.71c-3.308,3.784-8.268,5.955-13.606,5.955c-5.34,0-10.3-2.171-13.607-5.955
	c-2.726-3.118-7.464-3.437-10.583-0.71c-3.119,2.726-3.437,7.464-0.711,10.583C235.979,234.852,245.055,238.892,254.724,238.892z"/>
<path d="M86.077,280.996c-3.654-1.953-8.198-0.575-10.15,3.078c-8.164,15.27-17.418,30.115-27.503,44.123
	c-3.522,4.893,0.071,11.886,6.083,11.886h67.87v12.079c-10.069,3.189-17.388,12.621-17.388,23.731v19.422
	c0,13.724,11.165,24.889,24.888,24.889h40.078c0,0-18.736,71.582-18.752,71.642c-2.603,9.943,5.311,20.155,15.559,20.155h22.609
	c7.31,0,13.708-4.939,15.559-12.01l20.884-79.787h118.328l20.884,79.787c1.851,7.071,8.249,12.01,15.559,12.01
	c0,0,22.585,0,22.609,0c10.408,0,18.196-10.079,15.558-20.155L400,420.204h40.078c13.724,0,24.888-11.165,24.888-24.889v-19.422
	c0-11.11-7.319-20.542-17.388-23.731V106.62c0.015-1.649,0.016-3.299,0-4.948v-2.775c10.069-3.189,17.389-12.621,17.389-23.731
	V55.744c0-13.724-11.165-24.888-24.889-24.888h-38.081c-4.142,0-7.5,3.358-7.5,7.5s3.358,7.5,7.5,7.5h38.081
	c5.453,0,9.889,4.436,9.889,9.888v19.422c0,5.452-4.435,9.887-9.889,9.888c0,0-310.2,0-310.202,0
	c-5.451-0.001-9.886-4.437-9.886-9.889V55.744c0-5.452,4.436-9.888,9.888-9.888h242.178c4.142,0,7.5-3.358,7.5-7.5
	s-3.358-7.5-7.5-7.5h-62.26v-6.038C309.795,11.133,298.662,0,284.978,0S260.16,11.133,260.16,24.817v6.038H129.877
	c-13.723,0-24.888,11.165-24.888,24.888v19.422c0,11.2,7.437,20.693,17.631,23.807c0.375,19.157-1.097,83.022-32.497,155.662
	c-1.644,3.802,0.106,8.216,3.909,9.86s8.216-0.106,9.86-3.909c32.12-74.305,34.194-138.457,33.791-160.531h294.852
	c0.136,8.512-0.112,24.415-2.686,45.164c-0.008,0.062-0.016,0.125-0.023,0.187c-5.365,42.586-17.519,84.81-36.327,123.435
	c-9.522,19.555-20.435,38.462-32.973,56.243H129.877H68.828c7.312-10.964,14.122-22.333,20.326-33.937
	C91.107,287.494,89.729,282.949,86.077,280.996z M275.159,24.817c0-5.414,4.404-9.817,9.818-9.817c5.413,0,9.817,4.404,9.817,9.817
	v6.038h-19.636v-6.038H275.159z M190.418,496.191c-0.125,0.476-0.555,0.809-1.047,0.809c0,0-22.472,0-22.609,0
	c-0.702,0-1.224-0.682-1.048-1.357l19.747-75.44h24.847L190.418,496.191z M404.24,495.643c0.178,0.68-0.348,1.357-1.047,1.357
	h-22.609c-0.492,0-0.923-0.333-1.047-0.809l-19.889-75.988h24.847C384.494,420.203,404.2,495.49,404.24,495.643z M129.877,405.203
	c-5.453,0-9.888-4.436-9.888-9.889v-19.422c0-5.452,4.436-9.888,9.888-9.888h310.2c5.453,0,9.888,4.436,9.888,9.888v19.422
	c0,5.453-4.436,9.889-9.888,9.889H129.877z M364.392,340.083c2.412,0,4.677-1.16,6.087-3.118
	c9.535-13.242,18.249-27.075,26.109-41.375c14.787-26.908,26.66-55.77,35.175-85.399c0.312-0.935,0.548-1.906,0.814-2.855v143.668
	h-295.2v-10.921H364.392z"/>
<g>
</g>
<g>
</g>
<g>
</g>
<g>
</g>
<g>
</g>
<g>
</g>
<g>
</g>
<g>
</g>
<g>
</g>
<g>
</g>
<g>
</g>
<g>
</g>
<g>
</g>
<g>
</g>
<g>
</g>
</svg>
