<svg id="Layer_1" enable-background="new 0 0 512 512" height="512" viewBox="0 0 512 512" width="512" xmlns="http://www.w3.org/2000/svg"><path d="m245.74 57.61c-245.131 0-238.14-.1-238.24 0v396.78h497v-343.46h-210.167z" fill="#fee95d"/><path d="m47.5 150.93h417v263.46h-417z" fill="#b6e6fa"/><circle cx="277" cy="224" fill="#fee95d" r="29"/><path d="m246.207 325.52-21.75 14-21.75-14-21.75 14-21.75-14-21.75 14-21.73-13.99 65.24-93.75z" fill="#fff"/><path d="m308.057 414.39h-254.17l61.84-88.86 21.73 13.99 21.75-14 21.75 14 21.75-14 21.75 14 21.75-14z" fill="#d8fc7e"/><path d="m408.626 343.94-17.242 11.098-17.241-11.098-17.242 11.098-17.242-11.098-17.242 11.098-17.226-11.09 51.718-74.318z" fill="#fff"/><path d="m457.66 414.39h-149.6l-25.95-37.28 23.08-33.16 17.23 11.09 17.24-11.1 17.24 11.1 17.24-11.1 17.24 11.1 17.25-11.1z" fill="#d8fc7e"/><path d="m27.5 57.61c-21.693 0-19.9-.1-20 0v396.78h20c0-407.133-.1-396.68 0-396.78z" fill="#fcad42"/><path d="m47.5 150.93h20v263.46h-20z" fill="#94b7f7"/><path d="m287 196.771c-18.811-6.91-39 6.989-39 27.229 0 20.201 20.156 34.152 39 27.229-25.254-9.278-25.3-45.163 0-54.458z" fill="#fee94f"/><path d="m135.727 325.53 55.241-79.381-10.001-14.369-65.24 93.75 21.73 13.99 10.001-6.437z" fill="#e2ecf6"/><path d="m179.207 325.52-10 6.437 11.75 7.563 10-6.437z" fill="#e2ecf6"/><path d="m222.707 325.52-10 6.437 11.75 7.563 10-6.437z" fill="#e2ecf6"/><g fill="#54e072"><path d="m200.957 339.52 11.75-7.563-10-6.437-11.75 7.563z"/><path d="m115.727 325.53-61.84 88.86h20l55.652-79.968z"/><path d="m244.457 339.52 7.938-5.109-6.188-8.891-11.75 7.563z"/><path d="m157.457 339.52 11.75-7.563-10-6.437-11.749 7.563z"/></g><path d="m359.659 343.94-10 6.437 7.242 4.661 10-6.436z" fill="#e2ecf6"/><path d="m325.191 343.948 41.718-59.949-10-14.369-51.718 74.318 17.226 11.09 10.001-6.437z" fill="#e2ecf6"/><path d="m394.143 343.94-10 6.437 7.241 4.661 10-6.436z" fill="#e2ecf6"/><path d="m376.9 355.04 7.24-4.662-10-6.438-7.24 4.662z" fill="#54e072"/><path d="m411.38 355.04 3.436-2.211-6.186-8.889-7.247 4.663z" fill="#94b7f7"/><path d="m342.42 355.04 7.24-4.662-10-6.438-7.242 4.663z" fill="#54e072"/><path d="m319.002 352.84-13.812-8.89-23.08 33.16 25.95 37.28h20l-25.95-37.28z" fill="#54e072"/><path d="m297.643 103.43-48.59-53.32h-249.053v411.78h393.63v-15h-378.63v-381.78h227.428l48.59 53.32h205.982v328.46h-88.37v15h103.37v-358.46z"/><path d="m101.33 158.43v-15h-61.33c0 291.16.261 277.409-.47 278.46h432.488c-.07-.1-.018 6.155-.018-278.46h-355.67v15h340.67v241.882l-100.092-143.812-74.797 107.479-101.145-145.329-125.966 181.011v-241.231zm255.579 124.33 41.12 59.083c-3.243 2.088-1.723 1.109-6.645 4.276-18.397-11.842-17.142-11.162-17.242-11.098-.1-.066 1.151-.741-17.241 11.098-18.385-11.834-17.142-11.165-17.242-11.098-.1-.067 1.187-.765-17.242 11.098l-6.629-4.268zm-49.696 71.412c.113.073 15.105 9.72 15.207 9.788l17.239-11.099c3.696 2.379.546.351 17.24 11.1 11.473-7.387 7.787-5.014 17.241-11.1 18.349 11.815 17.141 11.161 17.242 11.097.1.064-1.058.68 15.223-9.796l36.697 52.729h-131.324l-20.729-29.781zm-126.246-109.262 54.642 78.512-11.152 7.178-21.75-14-21.75 14-21.75-14-21.75 14-11.133-7.168zm-63.217 90.843 19.706 12.687 21.75-14 21.75 14 21.75-14 21.75 14 19.727-12.698 49.517 71.148h-225.456z"/><path d="m313.5 224c0-20.126-16.374-36.5-36.5-36.5s-36.5 16.374-36.5 36.5 16.374 36.5 36.5 36.5 36.5-16.374 36.5-36.5zm-58 0c0-11.855 9.645-21.5 21.5-21.5s21.5 9.645 21.5 21.5-9.645 21.5-21.5 21.5-21.5-9.645-21.5-21.5z"/><path d="m187.965 106.77h-68.867v-15h68.867zm-83.867 0h-15v-15h15zm-30 0h-15v-15h15z" fill="#fff"/></svg>