<?xml version="1.0" encoding="iso-8859-1"?>
<!-- Generator: Adobe Illustrator 19.0.0, SVG Export Plug-In . SVG Version: 6.00 Build 0)  -->
<svg version="1.1" id="Capa_1" xmlns="http://www.w3.org/2000/svg" xmlns:xlink="http://www.w3.org/1999/xlink" x="0px" y="0px"
	 viewBox="0 0 512 512" style="enable-background:new 0 0 512 512;" xml:space="preserve">
<polygon style="fill:#FF98C9;" points="237.597,19.789 125.451,19.789 125.451,87.365 237.597,87.365 207.362,53.576 "/>
<rect x="125.448" y="19.789" style="fill:#EB6DA8;" width="30.833" height="67.581"/>
<polygon style="fill:#FFCE1C;" points="32.377,190.304 32.377,443.659 255.999,474.196 479.622,443.659 479.622,190.304 
	255.999,159.767 "/>
<polygon style="fill:#ECB000;" points="32.377,190.304 32.377,215.315 32.377,215.315 479.622,215.315 479.622,215.315 
	479.622,190.304 255.999,159.767 "/>
<path style="fill:#FF98C9;" d="M479.622,129.23H32.377c-9.089,0-16.457,7.368-16.457,16.457v28.16
	c0,9.089,7.368,16.457,16.457,16.457h447.245c9.089,0,16.457-7.368,16.457-16.457v-28.16
	C496.078,136.598,488.711,129.23,479.622,129.23z"/>
<path style="fill:#42C3E2;" d="M414.106,278.056h-54.508c-14.138,0-25.598,11.46-25.598,25.598v170.541h105.704V303.654
	C439.703,289.517,428.243,278.056,414.106,278.056z"/>
<rect x="365.209" y="309.272" style="fill:#EFEDEE;" width="43.28" height="133.722"/>
<path style="fill:#00AE95;" d="M283.771,397.104L283.771,397.104L283.771,397.104c20.187-15.75,4.701-47.907-20.199-41.944l0,0l0,0
	c11.354-22.95-16.55-45.203-36.398-29.026l0,0l0,0c0.272-25.603-34.524-33.546-45.387-10.36l0,0l0,0
	c-10.863-23.186-45.659-15.244-45.387,10.36l0,0l0,0c-19.847-16.177-47.752,6.077-36.398,29.026l0,0l0,0
	c-24.901-5.963-40.387,26.194-20.199,41.944l0,0l0,0c-25.022,5.432-25.022,41.123,0,46.555l101.984,20.402l101.984-20.402
	C308.793,438.228,308.793,402.536,283.771,397.104z"/>
<path style="fill:#EFEDEE;" d="M252.738,223.667H110.837c-7.185,0-13.01,5.825-13.01,13.01v29.047c0,7.185,5.825,13.01,13.01,13.01
	h141.901c7.185,0,13.01-5.825,13.01-13.01v-29.047C265.747,229.492,259.922,223.667,252.738,223.667z"/>
<path style="fill:#FF98C9;" d="M479.622,443.659H32.377c-9.089,0-16.457,7.368-16.457,16.457v28.16
	c0,9.089,7.368,16.457,16.457,16.457h447.245c9.089,0,16.457-7.368,16.457-16.457v-28.16
	C496.078,451.027,488.711,443.659,479.622,443.659z"/>
<path d="M110.837,286h141.901c11.311,0,20.514-9.202,20.514-20.513v-29.047c0-11.311-9.202-20.514-20.514-20.514H110.837
	c-11.311,0-20.513,9.202-20.513,20.514v29.047C90.324,276.798,99.526,286,110.837,286z M105.331,236.44
	c0-3.036,2.47-5.507,5.507-5.507h141.901c3.036,0,5.507,2.47,5.507,5.507v29.047c0,3.036-2.47,5.507-5.507,5.507H110.837
	c-3.036,0-5.507-2.47-5.507-5.507C105.331,265.488,105.331,236.44,105.331,236.44z"/>
<path d="M8.418,173.61c0,10.591,6.91,19.593,16.456,22.751v240.768c-9.546,3.157-16.456,12.16-16.456,22.751v28.16
	c0,13.212,10.748,23.96,23.959,23.96h447.246c13.211,0,23.959-10.749,23.959-23.96v-28.16c0-10.591-6.91-19.593-16.456-22.751
	V196.36c9.546-3.157,16.456-12.16,16.456-22.751v-28.16c0-13.212-10.748-23.96-23.959-23.96h-54.215
	c-4.144,0-7.503,3.36-7.503,7.503c0,4.144,3.36,7.503,7.503,7.503h54.215c4.936,0,8.952,4.017,8.952,8.953v28.16
	c0,4.937-4.016,8.953-8.952,8.953H32.377c-4.936,0-8.952-4.017-8.952-8.953v-28.16c0-4.937,4.016-8.953,8.952-8.953h363.017
	c4.144,0,7.503-3.36,7.503-7.503s-3.36-7.503-7.503-7.503H132.955V94.631c0,0,104.319,0,104.641,0c6.371,0,9.845-7.756,5.593-12.507
	L217.431,53.34c0,0,25.658-28.673,25.757-28.784c4.252-4.752,0.746-12.507-5.592-12.507H132.955c0,0,0-4.753,0-4.783
	c0-9.635-15.007-9.741-15.007,0v114.225H32.377c-13.211,0-23.959,10.749-23.959,23.96V173.61z M488.575,488.039
	c0,4.937-4.016,8.953-8.952,8.953H32.377c-4.936,0-8.952-4.017-8.952-8.953v-28.16c0-4.937,4.016-8.953,8.952-8.953h88.621
	c4.144,0,7.503-3.36,7.503-7.503s-3.36-7.503-7.503-7.503H80.672c-8.937-2.291-12.132-9.862-12.132-15.774
	c0-6.068,3.367-13.883,12.853-15.943c6.107-1.326,7.947-9.409,3.025-13.249c-13.4-10.455-2.976-32.756,13.835-28.732
	c6.08,1.456,11.243-5.028,8.474-10.624c-7.6-15.359,11.648-30.708,24.932-19.883c4.856,3.958,12.311,0.341,12.245-5.895
	c-0.181-16.973,23.769-22.719,31.089-7.098c2.649,5.653,10.944,5.647,13.589,0.001c7.235-15.443,31.272-10.171,31.089,7.095
	c-0.066,6.234,7.396,9.849,12.244,5.897c13.325-10.86,32.54,4.5,24.933,19.881c-2.765,5.591,2.411,12.077,8.472,10.626
	c16.569-3.966,27.459,18.101,13.836,28.731c-4.917,3.837-3.059,11.929,3.023,13.249c16.112,3.498,17.101,27.519,0.722,31.718
	H151.012c-4.144,0-7.503,3.36-7.503,7.503s3.36,7.503,7.503,7.503h328.611c4.936,0,8.952,4.017,8.952,8.953V488.039z
	 M432.201,435.918h-16.204V309.031c0-4.145-3.36-7.503-7.503-7.503h-43.282c-4.144,0-7.503,3.359-7.503,7.503v126.888h-16.204
	V303.417c0-9.978,8.117-18.094,18.094-18.094h54.508c9.978,0,18.094,8.118,18.094,18.094L432.201,435.918L432.201,435.918z
	 M372.714,435.244v-118.71h28.275v118.711h-28.275V435.244z M472.119,197.57v238.348h-24.911V303.417
	c0-18.252-14.849-33.101-33.101-33.101h-54.508c-18.252,0-33.101,14.849-33.101,33.101v132.5h-20.543
	c2.628-4.611,4.089-9.985,4.089-15.774c0-11.005-5.265-20.521-13.831-26.116c5.29-8.757,5.905-19.616,1.13-29.532
	c-4.775-9.916-13.646-16.206-23.793-17.529c0.967-10.186-3.191-20.236-11.795-27.097c-8.604-6.861-19.327-8.679-29.041-5.47
	c-3.549-9.596-11.655-16.848-22.385-19.296c-10.726-2.449-21.177,0.565-28.538,7.673c-7.36-7.106-17.809-10.12-28.539-7.673
	c-10.729,2.449-18.836,9.699-22.383,19.296c-9.715-3.211-20.438-1.393-29.042,5.47c-8.604,6.861-12.762,16.911-11.795,27.097
	c-10.146,1.324-19.018,7.613-23.793,17.529c-4.774,9.916-4.161,20.774,1.13,29.532c-8.566,5.595-13.83,15.111-13.83,26.116
	c0,5.789,1.461,11.163,4.089,15.774H39.88V197.57H472.119z M220.814,27.055l-19.043,21.281c-2.549,2.848-2.549,7.158,0,10.007
	l19.043,21.281h-87.859V27.055H220.814z"/>
<g>
</g>
<g>
</g>
<g>
</g>
<g>
</g>
<g>
</g>
<g>
</g>
<g>
</g>
<g>
</g>
<g>
</g>
<g>
</g>
<g>
</g>
<g>
</g>
<g>
</g>
<g>
</g>
<g>
</g>
</svg>
