<svg height="511pt" viewBox="0 1 511 511.999" width="511pt" xmlns="http://www.w3.org/2000/svg"><path d="m193.664062 100.328125c0-51.269531-41.5625-92.828125-92.832031-92.828125s-92.832031 41.558594-92.832031 92.828125c0 51.265625 41.5625 92.824219 92.832031 92.824219s92.832031-41.558594 92.832031-92.824219zm0 0" fill="#64e8ff"/><path d="m504.851562 100.328125c0-51.269531-41.5625-92.828125-92.832031-92.828125-51.273437 0-92.835937 41.558594-92.835937 92.828125 0 51.265625 41.5625 92.824219 92.835937 92.824219 51.269531 0 92.832031-41.558594 92.832031-92.824219zm0 0" fill="#6193ff"/><path d="m193.664062 411.671875c0-51.265625-41.5625-92.824219-92.832031-92.824219s-92.832031 41.558594-92.832031 92.824219c0 51.269531 41.5625 92.828125 92.832031 92.828125s92.832031-41.558594 92.832031-92.828125zm0 0" fill="#ff5876"/><path d="m504.851562 411.671875c0-51.265625-41.5625-92.824219-92.832031-92.824219-51.273437 0-92.835937 41.558594-92.835937 92.824219 0 51.269531 41.5625 92.828125 92.835937 92.828125 51.269531 0 92.832031-41.558594 92.832031-92.828125zm0 0" fill="#ff80b3"/><path d="m147.683594 62.253906c-4.359375 3.074219-9.179688 5.421875-14.285156 6.960938-7.386719-8.492188-20.257813-9.390625-28.75-2.003906-4.523438 3.933593-7.085938 9.65625-7.003907 15.648437v4.546875c-16.238281.425781-31.609375-7.3125-40.941406-20.601562 0 0-18.199219 40.9375 22.742187 59.132812-9.367187 6.359375-20.527343 9.546875-31.839843 9.097656 40.9375 22.742188 90.976562 0 90.976562-52.3125-.003906-1.265625-.125-2.53125-.363281-3.773437 4.644531-4.578125 7.921875-10.359375 9.464844-16.695313zm0 0" fill="#fff"/><path d="m80.996094 410.65625v-29.484375c0-2.171875 2.351562-3.527344 4.230468-2.441406l25.527344 14.742187 25.523438 14.746094c1.878906 1.085938 1.878906 3.796875 0 4.882812l-25.523438 14.746094-25.527344 14.742188c-1.878906 1.085937-4.230468-.269532-4.230468-2.441406zm0 0" fill="#fff"/><path d="m336.71875 236.644531-62.496094-59.367187c-1.371094-1.304688-3.636718-.328125-3.636718 1.5625v33.382812c-59.070313 8.441406-84.765626 46.542969-96.640626 88.238282-1.144531 4.015624 3.945313 6.832031 6.75 3.742187 21.949219-24.152344 48.929688-35.335937 89.890626-35.335937v34.464843c0 1.875 2.226562 2.855469 3.609374 1.589844l62.421876-57.21875c3.234374-2.960937 3.277343-8.039063.101562-11.058594zm0 0" fill="#9dd46f"/><path d="m447.316406 317.761719c6.453125-19.917969 9.730469-40.6875 9.730469-61.851563 0-21.109375-3.257813-41.824218-9.675781-61.691406 38.9375-14.695312 66.195312-52.886719 64.941406-96.765625-1.585938-55.296875-47.882812-98.957031-103.167969-97.4140625-41.847656 1.1992185-77.050781 27.9999995-91.015625 64.9335935-19.875-6.421875-40.589844-9.679687-61.703125-9.679687-21.109375 0-41.824219 3.257812-61.699219 9.679687-14.328124-37.925781-51.007812-64.972656-93.894531-64.972656-55.324219 0-100.332031 45.007812-100.332031 100.328125 0 42.878906 27.046875 79.554687 64.972656 93.886719-6.417968 19.867187-9.675781 40.582031-9.675781 61.695312 0 21.167969 3.273437 41.9375 9.730469 61.855469-37.957032 14.316406-65.027344 51.007813-65.027344 93.90625 0 55.320313 45.007812 100.328125 100.332031 100.328125 42.949219 0 79.675781-27.125 93.960938-65.140625 19.847656 6.402344 40.542969 9.65625 61.632812 9.65625 21.089844 0 41.78125-3.25 61.632813-9.65625 4.585937 12.257813 11.5625 23.605469 20.714844 33.378906 2.828124 3.019531 7.578124 3.179688 10.601562.34375 3.023438-2.828125 3.179688-7.574219.347656-10.597656-14.855468-15.863281-23.035156-36.570313-23.035156-58.3125 0-47.050781 38.277344-85.328125 85.332031-85.328125 47.054688 0 85.332031 38.277344 85.332031 85.328125s-38.277343 85.324219-85.332031 85.324219c-12.402343 0-24.355469-2.597656-35.53125-7.722656-3.769531-1.730469-8.21875-.074219-9.945312 3.691406-1.726563 3.761718-.074219 8.214844 3.691406 9.941406 13.148437 6.03125 27.207031 9.089844 41.785156 9.089844 55.324219 0 100.332031-45.003906 100.332031-100.324219 0-42.902344-27.074218-79.59375-65.035156-93.910156zm-37.738281-302.726563c.828125-.023437 1.648437-.035156 2.472656-.035156 45.929688 0 83.941407 36.683594 85.265625 82.882812 1.347656 47.03125-35.820312 86.386719-82.855468 87.734376-46.984376 1.34375-86.394532-35.816407-87.738282-82.847657-1.347656-47.03125 35.820313-86.386719 82.855469-87.734375zm-308.746094 481.964844c-47.050781 0-85.332031-38.277344-85.332031-85.328125 0-47.046875 38.28125-85.324219 85.332031-85.324219 47.054688 0 85.332031 38.277344 85.332031 85.324219 0 47.050781-38.277343 85.328125-85.332031 85.328125zm210.855469-85.328125c0 7.054687.757812 14.003906 2.183594 20.773437-18.488282 6.015626-37.777344 9.070313-57.445313 9.070313-19.660156 0-38.945312-3.054687-57.429687-9.0625 1.417968-6.707031 2.171875-13.65625 2.171875-20.78125 0-55.316406-45.011719-100.324219-100.335938-100.324219-7.164062 0-14.160156.761719-20.902343 2.195313-6.058594-18.542969-9.132813-37.898438-9.132813-57.632813 0-19.671875 3.058594-38.96875 9.074219-57.464844 6.765625 1.441407 13.777344 2.207032 20.960937 2.207032 25.679688 0 50.109375-9.691406 68.792969-27.292969 3.015625-2.839844 3.15625-7.585937.316406-10.601563-2.839844-3.015624-7.589844-3.15625-10.605468-.316406-15.886719 14.96875-36.664063 23.210938-58.503907 23.210938-47.050781 0-85.332031-38.277344-85.332031-85.324219 0-47.050781 38.28125-85.328125 85.332031-85.328125 47.054688 0 85.332031 38.277344 85.332031 85.328125 0 10.972656-2.050781 21.648437-6.097656 31.738281-1.539062 3.84375.324219 8.210938 4.171875 9.753906 3.839844 1.539063 8.210938-.324218 9.75-4.171874 4.761719-11.871094 7.175781-24.425782 7.175781-37.320313 0-7.1875-.765624-14.195313-2.207031-20.957031 18.5-6.019532 37.796875-9.078125 57.46875-9.078125 19.675781 0 38.972657 3.058593 57.46875 9.074219-1.636719 7.671874-2.402343 15.652343-2.167969 23.832031 1.554688 54.324219 46.246094 97.453125 100.253907 97.453125.964843 0 1.9375-.015625 2.910156-.039063 6.1875-.179687 12.230469-.917969 18.082031-2.167969 6.019532 18.496094 9.074219 37.792969 9.074219 57.464844 0 19.730469-3.078125 39.085938-9.132813 57.632813-6.742187-1.433594-13.730468-2.195313-20.894531-2.195313-55.324219 0-100.332031 45.007813-100.332031 100.324219zm0 0"/><path d="m151.902344 56.054688c-2.582032-1.757813-5.988282-1.730469-8.542969.070312-2.554687 1.804688-5.289063 3.308594-8.164063 4.496094-10.304687-8.058594-25.238281-7.964844-35.46875.929687-5.316406 4.625-8.640624 11.019531-9.414062 17.925781-11.003906-1.636718-20.949219-7.695312-27.472656-16.984374-1.554688-2.210938-4.171875-3.414063-6.867188-3.152344-2.6875.261718-5.027344 1.949218-6.125 4.417968-.214844.484376-5.261718 12.015626-4.617187 26.128907.488281 10.800781 4.355469 24.726562 18.441406 35.472656-5.070313 1.636719-10.421875 2.394531-15.769531 2.183594-3.4375-.144531-6.582032 2.121093-7.519532 5.46875-.9375 3.34375.542969 6.894531 3.578126 8.582031 11.765624 6.535156 24.371093 9.804688 36.6875 9.804688 11.832031 0 23.394531-3.019532 33.683593-9.074219 20.179688-11.871094 31.75-33.597657 31.75-59.621094 0-.394531-.007812-.785156-.027343-1.179687 4.28125-5.042969 7.339843-11.023438 8.914062-17.492188.738281-3.039062-.480469-6.21875-3.066406-7.976562zm-21.050782 24.300781c.152344.789062.230469 1.59375.230469 2.367187 0 20.855469-8.648437 37.429688-24.359375 46.671875-9.066406 5.335938-19.476562 7.605469-30.085937 6.84375 2.425781-1.203125 4.777343-2.570312 7.019531-4.097656 2.253906-1.527344 3.503906-4.160156 3.261719-6.871094-.246094-2.714843-1.9375-5.082031-4.425781-6.1875-14.007813-6.226562-21.496094-16.121093-22.253907-29.414062-.15625-2.722657-.019531-5.339844.269531-7.730469 10.320313 8.621094 23.503907 13.320312 37.328126 12.96875 4.066406-.105469 7.308593-3.433594 7.308593-7.5v-4.546875c0-.03125 0-.066406-.003906-.101563-.050781-3.792968 1.5625-7.398437 4.429687-9.890624 5.355469-4.660157 13.507813-4.089844 18.167969 1.269531.933594 1.074219 2.132813 1.835937 3.4375 2.238281-.460937 1.257812-.582031 2.628906-.324219 3.980469zm0 0"/><path d="m387.339844 106.242188h10.632812v44.71875c0 4.144531 3.359375 7.5 7.5 7.5 4.144532 0 7.5-3.355469 7.5-7.5v-44.71875h11.582032c4.140624 0 7.5-3.359376 7.5-7.5 0-4.144532-3.359376-7.5-7.5-7.5h-11.582032v-20.984376c0-7.207031 5.863282-13.066406 13.070313-13.066406h9.710937c4.140625 0 7.5-3.359375 7.5-7.5 0-4.144531-3.359375-7.5-7.5-7.5h-9.710937c-15.476563 0-28.070313 12.589844-28.070313 28.066406v20.984376h-10.632812c-4.144532 0-7.5 3.355468-7.5 7.5 0 4.140624 3.359375 7.5 7.5 7.5zm0 0"/><path d="m140.027344 401.722656-51.046875-29.488281c-3.183594-1.839844-7.140625-1.839844-10.320313-.003906-3.183594 1.839843-5.164062 5.265625-5.164062 8.941406v58.972656c0 3.675781 1.980468 7.101563 5.160156 8.9375 1.59375.921875 3.375 1.378907 5.160156 1.378907s3.566406-.457032 5.160156-1.378907l51.054688-29.484375c3.179688-1.839844 5.15625-5.265625 5.15625-8.941406s-1.980469-7.097656-5.160156-8.933594zm-51.53125 30.3125v-42.757812l37.015625 21.378906zm0 0"/><path d="m444.605469 464.792969c11.324219 0 20.535156-9.210938 20.535156-20.535157v-65.167968c0-11.324219-9.210937-20.535156-20.535156-20.535156h-65.175781c-11.320313 0-20.53125 9.210937-20.53125 20.535156v65.167968c0 11.324219 9.210937 20.535157 20.53125 20.535157zm-70.707031-20.535157v-65.167968c0-3.054688 2.480468-5.535156 5.53125-5.535156h65.175781c3.054687 0 5.535156 2.480468 5.535156 5.535156v65.167968c0 3.050782-2.480469 5.535157-5.535156 5.535157h-65.175781c-3.050782 0-5.53125-2.484375-5.53125-5.535157zm0 0"/><path d="m412.015625 434.34375h.003906c12.5 0 22.671875-10.167969 22.671875-22.671875 0-12.5-10.171875-22.667969-22.675781-22.667969-12.5 0-22.667969 10.167969-22.667969 22.667969 0 12.503906 10.167969 22.671875 22.667969 22.671875zm.003906-30.339844c4.230469 0 7.671875 3.441406 7.671875 7.667969 0 4.230469-3.441406 7.671875-7.671875 7.671875h-.003906c-4.226563 0-7.667969-3.441406-7.667969-7.671875 0-4.226563 3.441406-7.667969 7.671875-7.667969zm0 0"/><path d="m279.390625 171.839844c-2.800781-2.660156-6.910156-3.394532-10.457031-1.871094-3.554688 1.523438-5.847656 5.007812-5.847656 8.871094v27.015625c-26.015626 4.832031-47.492188 15.847656-63.90625 32.800781-14.710938 15.1875-25.324219 34.734375-32.449219 59.753906-1.460938 5.136719.785156 10.539063 5.460937 13.140625 1.765625.980469 3.6875 1.457031 5.59375 1.457031 3.140625 0 6.226563-1.296874 8.460938-3.757812 7.414062-8.15625 15.203125-14.507812 23.816406-19.414062 3.601562-2.050782 4.855469-6.632813 2.804688-10.230469-2.050782-3.597657-6.628907-4.851563-10.226563-2.804688-5.980469 3.40625-11.601563 7.390625-16.964844 12.039063 15.367188-40.453125 43.613281-63.140625 85.972657-69.1875 3.695312-.527344 6.4375-3.691406 6.4375-7.425782v-20.921874l53.464843 50.871093-53.464843 49.007813v-22.316406c0-4.140626-3.355469-7.5-7.5-7.5-13.207032 0-24.839844 1.105468-35.558594 3.371093-4.054688.859375-6.644532 4.839844-5.785156 8.890625.855468 4.054688 4.839843 6.640625 8.890624 5.785156 7.640626-1.617187 15.855469-2.578124 24.953126-2.910156v26.832032c0 3.824218 2.265624 7.292968 5.765624 8.835937 3.507813 1.539063 7.59375.863281 10.414063-1.71875l62.421875-57.21875c3.066406-2.8125 4.847656-6.8125 4.886719-10.972656.035156-4.160157-1.675781-8.191407-4.691407-11.054688zm0 0"/></svg>